<?xml version="1.0" encoding="UTF-8" standalone="no"?>
<svg width="4357px" height="636px" viewBox="0 0 4357 636" version="1.1" xmlns="http://www.w3.org/2000/svg" xmlns:xlink="http://www.w3.org/1999/xlink">
    <!-- Generator: Sketch 45.2 (43514) - http://www.bohemiancoding.com/sketch -->
    <title>Hero-section-bg-detail</title>
    <desc>Created with Sketch.</desc>
    <defs>
        <linearGradient x1="50%" y1="-0.839814805%" x2="50%" y2="62.5852338%" id="linearGradient-1">
            <stop stop-color="#4240D0" stop-opacity="0.0509793931" offset="0%"></stop>
            <stop stop-color="#4240D0" stop-opacity="0.2" offset="100%"></stop>
        </linearGradient>
    </defs>
    <g id="Page-1" stroke="none" stroke-width="1" fill="none" fill-rule="evenodd">
        <path d="M2176,636 L73,636 C32.5846457,636 0,603.430382 0,563 L0,378 C0,358.974833 7.66791663,340.471571 21,327 L112,237 C139.957478,208.24302 186.038977,208.24302 214,237 L275,297 C302.955706,325.105828 349.037205,325.105828 377,297 L547,127 C575.723741,98.5238376 622.093237,98.6927579 650,127 L817,297 C846.850793,326.637105 895.703262,325.306733 924,294 L1006,200 C1032.73477,170.275951 1078.27728,167.209399 1108,193 L1213,283 C1239.83352,306.741501 1280.20508,306.817465 1308,283 L1618,18 C1645.80011,-6.53254663 1687.45065,-5.73292428 1715,19 L2024,306 C2050.3014,330.286901 2090.69298,331.252692 2118.85747,309.33877 L2192,237 C2219.95748,208.24302 2266.03898,208.24302 2294,237 L2355,297 C2382.95571,325.105828 2429.03721,325.105828 2457,297 L2627,127 C2655.72374,98.5238376 2702.09324,98.6927579 2730,127 L2897,297 C2926.85079,326.637105 2975.70326,325.306733 3004,294 L3086,200 C3112.73477,170.275951 3158.27728,167.209399 3188,193 L3293,283 C3319.83352,306.741501 3360.20508,306.817465 3388,283 L3698,18 C3725.80011,-6.53254663 3767.45065,-5.73292428 3795,19 L4104,306 C4132.28169,332.115518 4176.8552,331.265919 4205,304 C4232.93559,275.211392 4279.01709,275.211392 4307,304 L4355,351 C4357.68424,348.426814 4354.43027,480.049652 4352,565 C4350.94731,604.659801 4318.69866,636 4279,636 L2176,636 Z" id="Hero-section-bg-detail" fill="url(#linearGradient-1)" style="mix-blend-mode: darken;"></path>
    </g>
</svg>