<svg xmlns="http://www.w3.org/2000/svg" xmlns:xlink="http://www.w3.org/1999/xlink" width="220" height="220" viewBox="0 0 220 220">
    <defs>
        <path id="a" d="M220 110c0 60.752-49.248 110-110 110C49.25 220 0 170.752 0 110S49.25 0 110 0c60.752 0 110 49.248 110 110"/>
        <path id="c" d="M.375.165h11.579v5.06H.374V.165z"/>
        <path id="e" d="M.369.165h5.59v2.128H.369V.165z"/>
        <path id="g" d="M17.377.165H.95v15.59h16.427V.166z"/>
        <path id="i" d="M.13.165h2.069v3.724H.129V.165z"/>
        <path id="k" d="M.35.165h13.628v6.074H.35V.165z"/>
        <path id="m" d="M.53.165h11.578v5.06H.53V.165z"/>
        <path id="o" d="M.523.165h5.59v2.128H.524V.165z"/>
        <path id="q" d="M16.533.165H.105v15.59h16.428V.166z"/>
        <path id="s" d="M.284.165h2.07v3.724H.284V.165z"/>
        <path id="u" d="M.505.165h13.628v6.074H.505V.165z"/>
    </defs>
    <g fill="none" fill-rule="evenodd">
        <mask id="b" fill="#fff">
            <use xlink:href="#a"/>
        </mask>
        <use fill="#5873BB" xlink:href="#a"/>
        <g mask="url(#b)" opacity=".2">
            <path fill="#E6E9E9" d="M76.033 166.642c.286-1.037-1.53-2.83-1.882-4.821-.678-3.84-1.67-7.154-6.425-9.413-4.753-2.26-7.95-.937-11.356.962-1.765.985-4.303.708-4.926 1.584-.624.877-2.748 6.62-2.548 7.901.256 1.639 1.601 1.061 2.476 5.384.68 3.358 2.586 5.299 5.625 6.743 3.038 1.444 5.746 1.697 8.78.104 3.905-2.051 4.306-.643 5.738-1.48 1.12-.654 4.232-5.927 4.518-6.964"/>
            <path fill="#A8DBD6" d="M58.953 165.496c1.165-.245 2.05-2.82 1.612-4.407-.355-1.289-1.996-2.169-3.36-1.576-2.044.886-3.233 3.362-2.582 4.347.544.822 3.18 1.878 4.33 1.636"/>
            <path fill="#395663" d="M59.396 163.258c-.495 1.041-1.664 1.52-2.612 1.07-.948-.45-1.315-1.66-.82-2.702.494-1.04 1.664-1.519 2.612-1.069.948.451 1.315 1.66.82 2.701"/>
            <path fill="#FEFEFE" d="M57.843 161.645a.606.606 0 1 1-1.095-.52.606.606 0 0 1 1.095.52"/>
            <path fill="#395663" d="M65.214 159.074a.545.545 0 1 1-.258-.726.545.545 0 0 1 .258.726"/>
            <path fill="#A8DBD6" d="M63.13 167.482c-.545-1.058.892-3.37 2.4-4.033 1.224-.538 2.942.178 3.344 1.61.602 2.145-.566 4.63-1.741 4.748-.98.097-3.465-1.281-4.003-2.325"/>
            <path fill="#395663" d="M64.586 165.725c-.495 1.04-.128 2.25.82 2.7.948.45 2.118-.028 2.612-1.07.495-1.04.128-2.25-.82-2.7-.948-.45-2.117.029-2.612 1.07"/>
            <path fill="#FEFEFE" d="M66.818 165.91a.606.606 0 1 0 1.095.522.606.606 0 0 0-1.095-.521"/>
            <path fill="#36ADD3" d="M73.243 169.624c-1.234 1.896-2.123 3.506-1.986 3.595.137.089 1.248-1.376 2.482-3.272 1.234-1.896 2.091-3.561 1.954-3.65-.137-.09-1.216 1.43-2.45 3.327M50.883 158.996c-.691 2.154-1.378 3.86-1.533 3.81-.156-.05.278-1.837.969-3.991.692-2.154 1.442-3.87 1.598-3.82.155.05-.343 1.847-1.034 4"/>
            <path fill="#B7C1C5" d="M62.43 153.946c1.658.258 2.505-.773 3.282-2.315-1.34-.39-2.557-.482-3.702-.362-.688 1.374-1 2.454.42 2.677M69.864 157.479c-1.246-1.121-.982-2.43-.276-4.005 1.149.792 1.988 1.678 2.617 2.642-.63 1.4-1.27 2.325-2.34 1.363"/>
            <path fill="#355360" d="M58.866 170.707a2.237 2.237 0 0 1-1.174-1.348l-.073-.231a.413.413 0 0 1 .269-.517c.217-.068 3.106 1.299 3.2 1.506a.41.41 0 0 1-.203.545l-.127.059a2.24 2.24 0 0 1-1.84.01l-.052-.024"/>
            <path fill="#FEFEFE" d="M-2.375 98.106a.942.942 0 0 0-.922-.922h-.922a.933.933 0 0 0-.922.922v.334h2.766v-.334zm14.413.668a1.56 1.56 0 0 1-.748-.749l-.254-.334c-.33-.507-1.012-.92-1.587-.92H5.762c-.588 0-1.35.413-1.684.92l-.253.334c-.16.335-.508.59-.829.75h-8.23c-.669 0-1.256.587-1.256 1.35v10.634c0 .668.587 1.256 1.256 1.256h18.702c.668 0 1.35-.588 1.35-1.256v-10.635c0-.762-.682-1.35-1.35-1.35h-1.43zm-3.256 6.614c0-2.592-2.098-4.597-4.624-4.597-2.592 0-4.689 2.005-4.689 4.597a4.69 4.69 0 0 0 4.69 4.703c2.525 0 4.623-2.098 4.623-4.703zm.668-4.008h2.682v-1.256H9.45v1.256z"/>
            <path fill="#4DA1B7" d="M63.3 56.508a6.836 6.836 0 0 1-2.777-.578l.886-2.015c2.233.982 4.436-.211 4.458-.223l1.082 1.918c-.09.05-1.616.898-3.65.898M59.028 54.864c-2.421-2.618-1.816-6.036-1.789-6.18l2.165.398c-.005.025-.416 2.496 1.241 4.287l-1.617 1.495z"/>
            <path fill="#4DA1B7" d="M64.16 49.39l.07-.097-.16-.04-.09-.138-.069.098-5.469-1.371 1.98 4.979-7.857 11.265a.517.517 0 0 0 .124.717l.384.274a.517.517 0 0 0 .718-.116l8.093-11.096 5.352.25-3.077-4.725z"/>
            <path fill="#FEFEFE" d="M75.79 50.466c2.871-5.506-1.519-10.34-3.55-12.05l.02-.026-.586-.418-.019.027c-2.277-1.363-8.277-3.94-12.548.568-3.58 3.778-2.014 9.037-2.014 9.037s3.717.434 6.542 2.259c2.644 2.076 4.265 5.449 4.265 5.449s5.483-.232 7.89-4.846"/>
            <g transform="translate(-2 -.165)">
                <mask id="d" fill="#fff">
                    <use xlink:href="#c"/>
                </mask>
                <path fill="#1A6A8C" d="M6.165 2.293A2.909 2.909 0 0 1 3.369.165H.375a5.838 5.838 0 0 0 5.79 5.06 5.846 5.846 0 0 0 5.789-5.06H8.959a2.908 2.908 0 0 1-2.794 2.128" mask="url(#d)"/>
            </g>
            <path fill="#1A6A8C" d="M4.165 195.609a5.828 5.828 0 0 0-3.721 1.335 5.837 5.837 0 0 0-2.13 4.513c0 .268.026.529.06.787h2.994a2.882 2.882 0 0 1-.121-.787 2.918 2.918 0 0 1 5.834 0c0 .275-.05.535-.121.787h2.994a5.83 5.83 0 0 0 .059-.787 5.848 5.848 0 0 0-5.848-5.848"/>
            <g transform="translate(1 -.165)">
                <mask id="f" fill="#fff">
                    <use xlink:href="#e"/>
                </mask>
                <path fill="#FEFEFE" d="M3.165 2.293A2.907 2.907 0 0 0 5.959.165H.369a2.909 2.909 0 0 0 2.796 2.128" mask="url(#f)"/>
            </g>
            <path fill="#A8DBD6" d="M4.63 4.353"/>
            <g transform="translate(-5 -.165)">
                <mask id="h" fill="#fff">
                    <use xlink:href="#g"/>
                </mask>
                <path fill="#FEFEFE" d="M9.163 15.562v.002l.114.192 1.724-3.008 5.106-8.91c.413-.641.74-1.342.964-2.088l.003-.01a8.12 8.12 0 0 0 .303-1.575h-1.4a6.86 6.86 0 0 1-6.813 6.074A6.861 6.861 0 0 1 2.35.165H.95a8.19 8.19 0 0 0 1.27 3.672l6.943 11.725z" mask="url(#h)"/>
            </g>
            <g transform="translate(3 -.165)">
                <mask id="j" fill="#fff">
                    <use xlink:href="#i"/>
                </mask>
                <path fill="#A8DBD6" d="M2.199 3.889" mask="url(#j)"/>
            </g>
            <g transform="translate(-3 -.165)">
                <mask id="l" fill="#fff">
                    <use xlink:href="#k"/>
                </mask>
                <path fill="#4DA1B7" d="M7.165 5.224a5.825 5.825 0 0 1-3.721-1.336A5.838 5.838 0 0 1 1.374.164H.35a6.862 6.862 0 0 0 6.815 6.074A6.86 6.86 0 0 0 13.978.165h-1.024a5.846 5.846 0 0 1-5.79 5.06" mask="url(#l)"/>
            </g>
            <path fill="#FEFEFE" d="M7.081 201.457a2.917 2.917 0 0 0-5.834 0c0 .274.05.535.121.787H6.96c.071-.252.121-.513.121-.787"/>
            <path fill="#A8DBD6" d="M3.698 196.944"/>
            <path fill="#FEFEFE" d="M4.164 193.201a8.256 8.256 0 0 0-8.256 8.256c0 .266.017.527.042.786h1.399a6.797 6.797 0 0 1-.049-.786 6.862 6.862 0 0 1 6.864-6.862 6.861 6.861 0 0 1 6.862 6.862c0 .266-.019.528-.048.786h1.4c.025-.259.042-.52.042-.786a8.257 8.257 0 0 0-8.256-8.256"/>
            <path fill="#A8DBD6" d="M3.1 201.457a5.843 5.843 0 0 1 0 0"/>
            <path fill="#4DA1B7" d="M-1.685 201.457a5.837 5.837 0 0 1 3.062-5.143 5.821 5.821 0 0 1 2.788-.705 5.848 5.848 0 0 1 5.848 5.848c0 .267-.024.53-.059.787h1.025a7.06 7.06 0 0 0 .048-.787 6.862 6.862 0 0 0-6.862-6.862 6.862 6.862 0 0 0-6.864 6.862c0 .266.019.528.048.787h1.025a5.843 5.843 0 0 1-.059-.787M7.43 105.418a3.285 3.285 0 1 1-6.57-.001 3.285 3.285 0 0 1 6.57 0"/>
            <path fill="#E6E9E9" d="M163.886 43.214c-.385-1.004-2.911-1.37-4.374-2.766-2.823-2.69-5.587-4.77-10.755-3.77-5.167.998-6.957 3.958-8.574 7.507-.838 1.84-3.045 3.121-3.028 4.196.018 1.076 1.713 6.96 2.633 7.873 1.178 1.168 1.918-.095 5.186 2.868 2.539 2.301 5.224 2.733 8.527 2.095 3.304-.639 5.634-2.04 7.132-5.123 1.929-3.966 3.087-3.07 3.744-4.594.514-1.19-.107-7.282-.491-8.286"/>
            <path fill="#A8DBD6" d="M149.452 52.418c.793-.888-.02-3.486-1.315-4.505-1.05-.827-2.893-.563-3.64.724-1.12 1.925-.61 4.624.498 5.031.925.34 3.675-.374 4.457-1.25"/>
            <path fill="#395663" d="M148.482 50.353c.22 1.132-.439 2.211-1.469 2.41-1.03.2-2.043-.557-2.262-1.689-.219-1.13.44-2.21 1.47-2.409 1.03-.2 2.042.556 2.261 1.688"/>
            <path fill="#FEFEFE" d="M146.274 49.975a.607.607 0 1 1-1.192.23.607.607 0 0 1 1.192-.23"/>
            <path fill="#395663" d="M150.685 43.535a.545.545 0 1 1-1.07.207.545.545 0 0 1 1.07-.207"/>
            <path fill="#A8DBD6" d="M153.993 51.54c-1.066-.528-1.28-3.242-.46-4.67.668-1.158 2.476-1.601 3.65-.685 1.756 1.369 2.289 4.064 1.412 4.855-.732.659-3.55 1.023-4.602.5"/>
            <path fill="#395663" d="M154.124 49.263c.219 1.132 1.23 1.888 2.262 1.688 1.03-.2 1.688-1.278 1.469-2.41-.22-1.131-1.231-1.887-2.262-1.688-1.03.199-1.688 1.278-1.47 2.41"/>
            <path fill="#FEFEFE" d="M156.031 48.09a.606.606 0 1 0 1.191-.231.606.606 0 0 0-1.19.23"/>
            <path fill="#36ADD3" d="M163.407 47.27c.131 2.257.369 4.081.532 4.071.163-.009.189-1.848.059-4.106-.131-2.259-.428-4.107-.591-4.098-.163.01-.131 1.874 0 4.132M139.1 51.968c.72 2.145 1.178 3.925 1.023 3.977-.155.053-.864-1.644-1.585-3.788-.72-2.144-1.134-3.97-.979-4.022.155-.052.82 1.69 1.54 3.834"/>
            <path fill="#B7C1C5" d="M145.404 41.055c1.488-.774 1.559-2.106 1.27-3.809-1.311.48-2.345 1.128-3.195 1.904.26 1.514.649 2.57 1.925 1.905M153.485 39.493c-1.669-.163-2.23-1.373-2.598-3.061 1.396-.044 2.596.173 3.674.576.323 1.502.356 2.625-1.076 2.485"/>
            <path fill="#355360" d="M152.471 56.666a2.24 2.24 0 0 1-1.745-.39l-.195-.143a.411.411 0 0 1-.09-.575c.134-.184 3.27-.796 3.47-.685.198.11.27.361.16.56l-.068.122a2.237 2.237 0 0 1-1.476 1.1l-.056.011"/>
            <path fill="#4DA1B7" d="M155.23 157.71h-8.156a6.563 6.563 0 1 0-.614 13.097c-.857 1.382-2.36 4.563-2.36 4.563l7.552-4.532h3.577a6.564 6.564 0 0 0 0-13.128"/>
            <path fill="#FEFEFE" d="M154.652 156.701h-8.155a6.563 6.563 0 1 0-.614 13.097c-.857 1.382-2.36 4.563-2.36 4.563l7.552-4.532h3.577a6.564 6.564 0 0 0 0-13.128M199.78 98.106a.942.942 0 0 0-.922-.922h-.922a.933.933 0 0 0-.922.922v.334h2.766v-.334zm14.413.668a1.56 1.56 0 0 1-.748-.749l-.254-.334c-.33-.507-1.012-.92-1.587-.92h-3.687c-.588 0-1.35.413-1.684.92l-.253.334c-.16.335-.508.59-.829.75h-8.23c-.668 0-1.256.587-1.256 1.35v10.634c0 .668.588 1.256 1.256 1.256h18.702c.668 0 1.35-.588 1.35-1.256v-10.635c0-.762-.682-1.35-1.35-1.35h-1.43zm-3.256 6.614c0-2.592-2.098-4.597-4.624-4.597-2.592 0-4.689 2.005-4.689 4.597a4.69 4.69 0 0 0 4.69 4.703c2.525 0 4.623-2.098 4.623-4.703zm.668-4.008h2.682v-1.256h-2.682v1.256z"/>
            <g transform="translate(200 -.165)">
                <mask id="n" fill="#fff">
                    <use xlink:href="#m"/>
                </mask>
                <path fill="#1A6A8C" d="M6.32 2.293A2.909 2.909 0 0 1 3.522.165H.53a5.838 5.838 0 0 0 5.79 5.06 5.846 5.846 0 0 0 5.79-5.06H9.113a2.908 2.908 0 0 1-2.795 2.128" mask="url(#n)"/>
            </g>
            <path fill="#1A6A8C" d="M206.32 195.609a5.828 5.828 0 0 0-3.721 1.335 5.837 5.837 0 0 0-2.13 4.513c0 .268.026.529.06.787h2.993a2.882 2.882 0 0 1-.12-.787 2.918 2.918 0 0 1 5.834 0c0 .275-.05.535-.121.787h2.993a5.83 5.83 0 0 0 .06-.787 5.848 5.848 0 0 0-5.849-5.848"/>
            <g transform="translate(203 -.165)">
                <mask id="p" fill="#fff">
                    <use xlink:href="#o"/>
                </mask>
                <path fill="#FEFEFE" d="M3.32 2.293A2.907 2.907 0 0 0 6.114.165H.524A2.909 2.909 0 0 0 3.32 2.293" mask="url(#p)"/>
            </g>
            <path fill="#A8DBD6" d="M206.785 4.353"/>
            <g transform="translate(198 -.165)">
                <mask id="r" fill="#fff">
                    <use xlink:href="#q"/>
                </mask>
                <path fill="#FEFEFE" d="M8.318 15.562v.002l.114.192 1.724-3.008 5.106-8.91c.413-.641.74-1.342.964-2.088l.003-.01a8.197 8.197 0 0 0 .304-1.575h-1.4a6.86 6.86 0 0 1-6.814 6.074A6.861 6.861 0 0 1 1.504.165H.105a8.202 8.202 0 0 0 1.27 3.672l6.943 11.725z" mask="url(#r)"/>
            </g>
            <g transform="translate(205 -.165)">
                <mask id="t" fill="#fff">
                    <use xlink:href="#s"/>
                </mask>
                <path fill="#A8DBD6" d="M2.353 3.889" mask="url(#t)"/>
            </g>
            <g transform="translate(199 -.165)">
                <mask id="v" fill="#fff">
                    <use xlink:href="#u"/>
                </mask>
                <path fill="#4DA1B7" d="M7.32 5.224a5.825 5.825 0 0 1-3.721-1.336A5.838 5.838 0 0 1 1.529.164H.506A6.862 6.862 0 0 0 7.32 6.239 6.86 6.86 0 0 0 14.133.165h-1.024a5.846 5.846 0 0 1-5.79 5.06" mask="url(#v)"/>
            </g>
            <path fill="#FEFEFE" d="M209.236 201.457a2.917 2.917 0 0 0-5.834 0c0 .274.05.535.12.787h5.593c.07-.252.12-.513.12-.787"/>
            <path fill="#A8DBD6" d="M205.852 196.944"/>
            <path fill="#FEFEFE" d="M206.319 193.201a8.256 8.256 0 0 0-8.256 8.256c0 .266.017.527.042.786h1.399a6.797 6.797 0 0 1-.05-.786 6.862 6.862 0 0 1 6.865-6.862 6.861 6.861 0 0 1 6.862 6.862c0 .266-.02.528-.048.786h1.4c.025-.259.042-.52.042-.786a8.257 8.257 0 0 0-8.256-8.256"/>
            <path fill="#A8DBD6" d="M205.254 201.457a5.843 5.843 0 0 1 0 0"/>
            <path fill="#4DA1B7" d="M200.47 201.457c0-1.817.829-3.44 2.129-4.513a5.828 5.828 0 0 1 3.721-1.335 5.848 5.848 0 0 1 5.848 5.848c0 .267-.024.53-.06.787h1.026a7.06 7.06 0 0 0 .048-.787 6.862 6.862 0 0 0-6.862-6.862 6.862 6.862 0 0 0-6.864 6.862c0 .266.019.528.048.787h1.025a5.843 5.843 0 0 1-.06-.787M209.586 105.418a3.285 3.285 0 1 1-6.571-.001 3.285 3.285 0 0 1 6.57 0"/>
            <path fill="#1A6A8C" d="M4.165 204.372a2.909 2.909 0 0 1-2.796-2.128h-2.994a5.838 5.838 0 0 0 5.79 5.06 5.846 5.846 0 0 0 5.789-5.06H6.959a2.908 2.908 0 0 1-2.794 2.128"/>
            <path fill="#FEFEFE" d="M4.165 204.372a2.907 2.907 0 0 0 2.794-2.128h-5.59a2.909 2.909 0 0 0 2.796 2.128"/>
            <path fill="#A8DBD6" d="M4.63 206.597"/>
            <path fill="#FEFEFE" d="M4.163 217.64v.003l.114.192 1.724-3.008 5.106-8.91c.413-.641.74-1.342.964-2.088l.003-.01a8.12 8.12 0 0 0 .303-1.575h-1.4a6.86 6.86 0 0 1-6.813 6.074 6.861 6.861 0 0 1-6.815-6.074H-4.05a8.19 8.19 0 0 0 1.27 3.672l6.943 11.725z"/>
            <path fill="#A8DBD6" d="M5.199 205.968"/>
            <path fill="#4DA1B7" d="M4.165 207.304a5.825 5.825 0 0 1-3.721-1.336 5.838 5.838 0 0 1-2.07-3.724H-2.65a6.862 6.862 0 0 0 6.815 6.074 6.86 6.86 0 0 0 6.813-6.074H9.954a5.846 5.846 0 0 1-5.79 5.06"/>
            <path fill="#1A6A8C" d="M206.32 204.372a2.909 2.909 0 0 1-2.796-2.128h-2.995a5.838 5.838 0 0 0 5.79 5.06 5.846 5.846 0 0 0 5.79-5.06h-2.996a2.908 2.908 0 0 1-2.793 2.128"/>
            <path fill="#FEFEFE" d="M206.32 204.372a2.907 2.907 0 0 0 2.793-2.128h-5.59a2.909 2.909 0 0 0 2.797 2.128"/>
            <path fill="#A8DBD6" d="M206.785 206.597"/>
            <path fill="#FEFEFE" d="M206.318 217.64v.003l.114.192 1.724-3.008 5.106-8.91c.413-.641.74-1.342.964-2.088l.003-.01a8.197 8.197 0 0 0 .304-1.575h-1.4a6.86 6.86 0 0 1-6.814 6.074 6.861 6.861 0 0 1-6.815-6.074h-1.399a8.202 8.202 0 0 0 1.27 3.672l6.943 11.725z"/>
            <path fill="#A8DBD6" d="M207.353 205.968"/>
            <path fill="#4DA1B7" d="M206.32 207.304a5.825 5.825 0 0 1-3.721-1.336 5.838 5.838 0 0 1-2.07-3.724h-1.024a6.862 6.862 0 0 0 6.815 6.074 6.86 6.86 0 0 0 6.813-6.074h-1.024a5.846 5.846 0 0 1-5.79 5.06"/>
        </g>
        <g mask="url(#b)">
            <path fill="#E6E9E9" d="M166.86 135.358c.268-.505.53-1.018.785-1.542 3.827-7.844 4.95-15.23 5.064-16.046l-17.495-2.47c-.025.164-3.224 19.5-14.954 20.596-11.343 1.061-22.03-13.543-24.88-18.742l-15.494 8.492c.676 1.234 16.852 30.195 42.018 27.843 10.575-.989 19.174-7.248 24.956-18.13"/>
            <path fill="#B7C1C5" d="M130.433 133.3c2.462 1.452 5.084 2.44 7.77 2.62-3.068 5.432-2.83 12.429.397 17.681-4.658-.061-8.969-1.182-12.902-2.928-1.84-6.131-.889-12.638 4.735-17.373M148.97 130.601c4.719-6.079 6.227-15.189 6.244-15.3l17.495 2.47c-.115.815-1.236 8.201-5.064 16.045a51.675 51.675 0 0 1-.785 1.542c-1.523 2.867-3.247 5.404-5.146 7.618-6.035-2.349-11.316-6.23-12.744-12.375"/>
            <path fill="#D6D3D3" d="M112.926 142.061c3.802 2.26 7.839 4.086 11.942 5.316 2.573 1.168 5.273 2.035 8.226 2.312 20.01 3.057 34.293-14.82 36.666-32.336l2.949.417c-.115.816-1.236 8.202-5.064 16.046a51.675 51.675 0 0 1-.785 1.542c-5.781 10.883-14.381 17.142-24.956 18.13-11.9 1.113-21.787-4.778-28.978-11.427"/>
            <path fill="#898C8E" d="M125.698 150.673a20.443 20.443 0 0 1-.692-3.233c2.531 1.137 5.188 1.977 8.088 2.25 1.313.2 2.601.309 3.863.334.412 1.25.953 2.456 1.643 3.577-4.658-.061-8.969-1.183-12.902-2.928M169.76 117.354l2.95.416c-.116.817-1.238 8.202-5.066 16.047a48.243 48.243 0 0 1-.784 1.54c-1.523 2.869-3.247 5.406-5.146 7.619a32.264 32.264 0 0 1-3.709-1.717c6.387-6.28 10.566-15.134 11.755-23.905"/>
            <path fill="#E6E9E9" d="M155.886 117.163c3.548 6.361 14.712 8.153 24.49 3.491 5.21-2.484 4.085-6.963 4.467-8.178.723-2.299-.943-4.805-4.922-3.652-4.915 1.423-14.467 1.993-14.564.642-.097-1.35 10.2-3.762 8.785-6.46-1.973-3.767-4.77-.682-11.22 1.663-7.563 2.747-9.199 8.616-7.036 12.494"/>
            <path fill="#D6D3D3" d="M181.969 119.693a9.198 9.198 0 0 1-1.594.961c-7.9 3.767-18.04 3.814-22.732-.856 8.184.306 25.435 2.491 27.126-6.866.43.29.001 5.096-2.8 6.761"/>
            <path fill="#E6E9E9" d="M32.328 199.047l-14.783-5.635c18.037-53.61 28.919-79.293 29.415-80.36l16.02 7.451-8.01-3.726 8.013 3.723c-.118.254-9.652 26.94-30.655 78.547M115.079 298.508c-19.665-14.555-12.215-42.833-10.293-56.146 1.799-12.46 3.752-24.896 4.279-34.366.239-1.544.364-3.125.364-4.736 0-16.978-13.763-30.742-30.742-30.742-14.14 0-26.043 9.551-29.63 22.551-.006.019-.015.036-.021.055-.262.804-.463 1.732-.613 2.76a30.923 30.923 0 0 0-.478 5.376c0 1.219.079 2.419.217 3.601.427 9.599 2.466 22.538 4.338 35.501 1.922 13.313 9.37 41.591-10.293 56.146-16.303 12.066-21.066 22.437-14.302 30.264 7.549 8.736 30.917.039 50.187.58v.035c.183-.009.368-.011.55-.018.184.007.369.009.55.018v-.035c19.27-.541 42.64 8.156 50.188-.58 6.764-7.827 2-18.198-14.301-30.264"/>
            <path fill="#B7C1C5" d="M79.062 205.98c13.684.194 21.085-11.809 24.658-20.554-5.575-7.81-14.706-12.908-25.033-12.908-10.012 0-18.897 4.791-24.508 12.201 3.481 8.65 10.904 21.06 24.883 21.26"/>
            <path fill="#E6E9E9" d="M106.55 158.176c0 13.733-12.307 24.866-27.488 24.866-15.18 0-27.488-11.133-27.488-24.866s12.307-24.865 27.488-24.865 27.487 11.132 27.487 24.865"/>
            <path fill="#D6D4D3" d="M79.193 166.826c10.85.263 18.633 2.373 23.408 4.194 2.506-3.75 3.948-8.144 3.948-12.844 0-13.733-12.306-24.866-27.487-24.866s-27.488 11.133-27.488 24.866c0 4.444 1.296 8.613 3.554 12.223 4.078-1.677 11.826-3.87 24.065-3.573"/>
            <path fill="#B4B3B4" d="M66.733 110.851h24.921V97.394H66.733z"/>
            <path fill="#E6E9E9" d="M124.473 50.277c-.631-3.574-8.766-6.408-12.722-11.967-7.63-10.723-15.457-19.387-33.222-19.387-17.764 0-25.592 8.664-33.221 19.387-3.956 5.56-12.092 8.393-12.722 11.967-.631 3.574 1.216 24.157 3.68 27.772 3.154 4.626 6.417.917 15.35 12.827 6.938 9.251 15.559 12.405 26.913 12.405 11.355 0 19.975-3.154 26.914-12.405 8.932-11.91 12.195-8.2 15.349-12.827 2.465-3.615 4.312-24.198 3.681-27.772"/>
            <path fill="#A8DBD6" d="M70.75 63.679c3.195-2.435 2.163-11.565-1.472-15.77-2.95-3.413-9.226-3.721-12.53.065-4.941 5.663-4.98 14.933-1.567 16.99 2.847 1.718 12.415 1.118 15.569-1.285"/>
            <path fill="#395663" d="M68.857 56.214c0 3.89-2.87 7.044-6.413 7.044-3.542 0-6.413-3.154-6.413-7.044 0-3.89 2.871-7.044 6.413-7.044 3.542 0 6.413 3.154 6.413 7.044"/>
            <path fill="#FEFEFE" d="M61.783 53.547a2.047 2.047 0 1 1-4.094 0 2.047 2.047 0 0 1 4.094 0"/>
            <path fill="#395663" d="M80.527 36.993a1.84 1.84 0 1 1-3.68 0 1.84 1.84 0 0 1 3.68 0"/>
            <path fill="#A8DBD6" d="M86.358 63.679c-3.196-2.435-2.163-11.565 1.471-15.77 2.95-3.413 9.227-3.721 12.53.065 4.942 5.663 4.98 14.933 1.568 16.99-2.847 1.718-12.416 1.118-15.57-1.285"/>
            <path fill="#395663" d="M88.25 56.214c0 3.89 2.87 7.044 6.413 7.044 3.542 0 6.413-3.154 6.413-7.044 0-3.89-2.871-7.044-6.413-7.044-3.542 0-6.413 3.154-6.413 7.044"/>
            <path fill="#FEFEFE" d="M95.323 53.547a2.047 2.047 0 1 0 4.095 0 2.047 2.047 0 0 0-4.095 0"/>
            <path fill="#D6D3D3" d="M111.593 79.048c-6.15 4.416-12.93 15.14-31.067 15.14-19.869 0-28.227-10.172-34.378-14.982-2.529-1.979-7.579-3.544-11.114-4.46.385 1.5.798 2.668 1.232 3.303 3.154 4.626 6.417.917 15.35 12.826 6.938 9.252 15.56 12.406 26.913 12.406 11.354 0 19.975-3.154 26.914-12.406 8.932-11.909 12.195-8.2 15.35-12.826.392-.576.768-1.585 1.122-2.885-3.718.785-7.705 2.005-10.322 3.884"/>
            <path fill="#36ADD3" d="M120.29 63.409c-1.015 7.568-1.393 13.762-.846 13.835.546.073 1.811-6.002 2.825-13.57 1.014-7.567 1.213-13.884.666-13.957-.547-.073-1.632 6.124-2.646 13.692"/>
            <path fill="#B7C1C5" d="M35.636 142.045c-1.466 3.95-3.061 8.304-4.784 13.088 6.649-.811 11.208 4.166 15.34 9.319 2.21-5.608 4.188-10.68 5.947-15.227-4.264-4.593-9.993-7.502-16.503-7.18"/>
            <path fill="#36ADD3" d="M36.73 63.409c1.015 7.568 1.393 13.762.846 13.835-.546.073-1.811-6.002-2.825-13.57-1.013-7.567-1.213-13.884-.666-13.957.547-.073 1.632 6.124 2.646 13.692"/>
            <path fill="#395663" d="M110.55 162.466H46.824c-6.2 0-11.228-5.026-11.228-11.227v-34.738c0-6.2 5.027-11.227 11.227-11.227h63.725c6.2 0 11.227 5.027 11.227 11.227v34.738c0 6.201-5.026 11.227-11.227 11.227"/>
            <path fill="#A8DBD6" d="M111.798 156.255H45.577a3.37 3.37 0 0 1-3.37-3.37v-38.029a3.37 3.37 0 0 1 3.37-3.37h66.22a3.37 3.37 0 0 1 3.37 3.37v38.03a3.37 3.37 0 0 1-3.37 3.37"/>
            <path fill="#B7C1C5" d="M64.613 31.284c5.427-1.611 6.514-5.98 6.649-11.807-4.653.749-8.494 2.235-11.808 4.26-.107 5.186.505 8.928 5.159 7.547M92.393 31.284c-5.427-1.611-6.514-5.98-6.65-11.807 4.654.749 8.495 2.235 11.809 4.26.107 5.186-.505 8.928-5.16 7.547"/>
            <path fill="#355360" d="M78.515 80.748c-2.68 0-5.36-.965-7.473-2.903l-.646-.593a1.277 1.277 0 0 1-.076-1.806 1.28 1.28 0 0 1 1.807-.077l.644.592c3.304 3.03 8.422 2.966 11.648-.149l.437-.422a1.28 1.28 0 0 1 1.776 1.841l-.437.422a11.034 11.034 0 0 1-7.68 3.095"/>
            <path fill="#B7C1C5" d="M24.495 173.094a2089.633 2089.633 0 0 0-6.95 20.32l14.783 5.633a3519.925 3519.925 0 0 0 7.586-18.79c-3.95-4.313-9.707-7.032-15.419-7.163"/>
            <path fill="#E6E9E9" d="M27.841 187.444c-5.862-4.323-16.798.86-22.63 9.988-3.108 4.863.214 8.07.532 9.303.602 2.334 3.342 3.58 6.109.497 3.418-3.807 9.747-6.113 10.544-5.018.797 1.094-3.632 7.857-1.005 9.4 3.667 2.153 4.408-1.945 8.644-7.346 4.965-6.331 3.852-12.366-2.194-16.824"/>
            <path fill="#FEFEFE" d="M145.885 78.354h51.127v-.421h-51.127zM173.592 86.788h23.42v-5.895h-23.42zM145.885 113.106h23.419V91.077h-23.419zM145.884 86.788h23.419v-5.895h-23.419zM173.592 113.106h23.42V91.077h-23.42z"/>
            <path fill="#C4C2C1" d="M145.885 78.354v2.538h23.419v-1.87h4.288v1.87h23.42v-2.538z"/>
            <path fill="#B54244" d="M169.303 80.893h4.289v-1.871h-4.289z"/>
            <path fill="#DB514D" d="M169.303 113.106h4.289V91.077h-4.289zM169.303 86.788h4.289v-5.895h-4.289zM169.303 79.021h4.289V62.342h-4.289zM145.884 91.077h23.419v-4.289h-23.419zM173.592 91.077h23.42v-4.289h-23.42zM169.303 91.077h4.289v-4.289h-4.289z"/>
            <path fill="#FEFEFE" d="M140.445 79.021h28.858V62.342h-28.858zM173.593 79.021h28.858V62.342h-28.858z"/>
            <path fill="#B54244" d="M157.98 53.556l6.256-7.148 5.719 13.045-.716 2.323z"/>
            <path fill="#DB514D" d="M151.655 62.549s-.823-8.1 2.751-10.244c3.574-2.145 16.62 10.185 16.62 10.185l-19.37.059z"/>
            <path fill="#B54244" d="M185.085 53.556l-6.255-7.148-5.718 13.045.715 2.323z"/>
            <path fill="#DB514D" d="M191.455 62.363s.778-7.913-2.796-10.058c-3.574-2.144-16.62 10.186-16.62 10.186l19.416-.128z"/>
            <path fill="#B54244" d="M173.975 60.883c0 .938-.76 1.698-1.697 1.698h-2.145a1.698 1.698 0 1 1 0-3.395h2.145c.937 0 1.697.76 1.697 1.697"/>
            <path fill="#EE3735" d="M78.95 125.893c1.88-3.76 3.76-5.64 7.52-5.64a7.523 7.523 0 0 1 7.52 7.52c0 7.52-7.52 15.042-15.04 22.562-7.522-7.52-15.042-15.041-15.042-22.561a7.523 7.523 0 0 1 7.52-7.521c3.761 0 5.641 1.88 7.521 5.64"/>
            <path fill="#FEFEFE" d="M82.653 121.207a17.5 17.5 0 0 1 .274 3.092c0 7.99-5.392 14.722-12.737 16.754-3.677-4.427-6.282-8.853-6.282-13.28a7.523 7.523 0 0 1 7.52-7.52c3.76 0 5.642 1.88 7.522 5.64 1.106-2.214 2.212-3.776 3.703-4.686"/>
        </g>
    </g>
</svg>
