<?xml version="1.0" encoding="UTF-8" standalone="no"?>
<svg width="15px" height="15px" viewBox="0 0 15 15" version="1.1" xmlns="http://www.w3.org/2000/svg" xmlns:xlink="http://www.w3.org/1999/xlink">
    <!-- Generator: sketchtool 45.2 (43514) - http://www.bohemiancoding.com/sketch -->
    <title>3B0DA7B6-3D78-4B33-85D2-1E1AADAAAD4D</title>
    <desc>Created with sketchtool.</desc>
    <defs></defs>
    <g id="Page-1" stroke="none" stroke-width="1" fill="none" fill-rule="evenodd">
        <g id="MS-Pepper-Landing-Page-Desktop-JP" transform="translate(-1029.000000, -2671.000000)" stroke="#FFFFFF">
            <g id="Section" transform="translate(0.000000, 2386.000000)">
                <g id="Group-6" transform="translate(230.000000, 70.000000)">
                    <g id="Newsletter">
                        <g id="Group-24" transform="translate(0.000000, 157.000000)">
                            <g id="Group-25" transform="translate(83.000000, 40.000000)">
                                <g id="Group-23" transform="translate(600.000000, 0.000000)">
                                    <g id="Group-44" transform="translate(44.000000, 16.000000)">
                                        <g id="Newsletter-arrow-icon" transform="translate(72.000000, 2.000000)">
                                            <circle id="Oval-2-Copy-4" cx="7.5" cy="7.5" r="7"></circle>
                                            <path d="M10.5931971,5.8930013 L7.99993763,8.72527774 L5.40717716,5.8930013 C5.31386573,5.80018885 5.16267127,5.80018885 5.07035782,5.8930013 C4.97654739,5.98631273 4.97654739,6.13750719 5.07035782,6.23081862 L7.8048319,9.21828146 C7.81381375,9.23075625 7.8108198,9.24672398 7.82179762,9.2577018 C7.8701998,9.30660298 7.93506872,9.32855861 7.99893964,9.32606365 C8.06380855,9.3290576 8.12917646,9.30760096 8.17807763,9.2577018 C8.18955444,9.24722297 8.18656049,9.23075625 8.19504335,9.21778247 L10.9300164,6.23031963 C11.0233279,6.1370082 11.0233279,5.98631273 10.9300164,5.8930013 C10.836705,5.79968986 10.6860095,5.79968986 10.5931971,5.8930013 Z" id="arrow-down-copy-5" stroke-width="0.7" fill="#FFFFFF" transform="translate(8.000000, 7.574678) rotate(-90.000000) translate(-8.000000, -7.574678) "></path>
                                        </g>
                                    </g>
                                </g>
                            </g>
                        </g>
                    </g>
                </g>
            </g>
        </g>
    </g>
</svg>