<?xml version="1.0" encoding="UTF-8" standalone="no"?>
<svg width="33px" height="33px" viewBox="0 0 33 33" version="1.1" xmlns="http://www.w3.org/2000/svg" xmlns:xlink="http://www.w3.org/1999/xlink">
    <!-- Generator: sketchtool 45.2 (43514) - http://www.bohemiancoding.com/sketch -->
    <title>D528B187-CC5D-4C95-9D31-193419547FFE</title>
    <desc>Created with sketchtool.</desc>
    <defs></defs>
    <g id="Symbols" stroke="none" stroke-width="1" fill="none" fill-rule="evenodd">
        <g id="Footer" transform="translate(-1137.000000, -384.000000)">
            <g id="Social-Icons">
                <g transform="translate(881.000000, 384.000000)">
                    <g id="Icons" transform="translate(112.000000, 0.000000)">
                        <g id="YouTube-hover" transform="translate(144.000000, 0.000000)">
                            <circle id="Oval-2-Copy-2" fill="#455070" cx="16.5" cy="16.5" r="16.5"></circle>
                            <path d="M13.3991667,14.4641667 L14.3741667,14.4641667 L14.375,11.0933333 L15.5266667,8.20583333 L14.4608333,8.20583333 L13.8475,10.35 L13.2275,8.2 L12.1716667,8.2 L13.3975,11.095 L13.3991667,14.4641667 Z M16.2583333,13.2825 C16.2583333,13.5316667 16.4441667,13.735 16.67,13.735 C16.8958333,13.735 17.08,13.5316667 17.08,13.2825 L17.08,10.9433333 C17.08,10.695 16.8958333,10.4916667 16.67,10.4916667 C16.4441667,10.4916667 16.2583333,10.695 16.2583333,10.9433333 L16.2583333,13.2825 Z M15.4491667,11.5366667 C15.4491667,11.115 15.485,10.7858333 15.5541667,10.5483333 C15.625,10.3116667 15.7516667,10.1216667 15.935,9.97833333 C16.1166667,9.83416667 16.3508333,9.76166667 16.635,9.76166667 C16.8741667,9.76166667 17.0783333,9.80833333 17.25,9.90083333 C17.4225,9.9925 17.5541667,10.1125 17.6466667,10.2608333 C17.74,10.4091667 17.8033333,10.5625 17.8383333,10.7183333 C17.8725,10.8775 17.89,11.1158333 17.89,11.4383333 L17.89,12.55 C17.89,12.9566667 17.8733333,13.2575 17.8416667,13.4475 C17.8108333,13.6383333 17.7433333,13.8158333 17.6375,13.9816667 C17.5341667,14.1466667 17.4016667,14.2691667 17.24,14.3466667 C17.0775,14.4266667 16.8908333,14.465 16.68,14.465 C16.4441667,14.465 16.245,14.4325 16.0825,14.3641667 C15.9183333,14.2975 15.7916667,14.195 15.7008333,14.0591667 C15.61,13.9241667 15.5458333,13.7591667 15.5066667,13.5675 C15.4675,13.375 15.4491667,13.0858333 15.4491667,12.7008333 L15.4491667,11.5366667 Z M18.5816667,14.02 C18.6291667,14.135 18.7033333,14.23 18.8041667,14.3008333 C18.9033333,14.3716667 19.0308333,14.4058333 19.1841667,14.4058333 C19.3175,14.4058333 19.4358333,14.37 19.5391667,14.2958333 C19.6416667,14.2208333 19.7283333,14.1108333 19.7983333,13.9633333 L19.7808333,14.3266667 L20.815,14.3266667 L20.815,9.93166667 L20.0016667,9.93166667 L20.0016667,13.3525 C20.0016667,13.5383333 19.8483333,13.6891667 19.6616667,13.6891667 C19.4766667,13.6891667 19.3233333,13.5383333 19.3233333,13.3525 L19.3233333,9.93166667 L18.475,9.93166667 L18.475,12.8966667 C18.475,13.2741667 18.4816667,13.5258333 18.4933333,13.6533333 C18.5041667,13.78 18.5333333,13.9016667 18.5816667,14.02 L18.5816667,14.02 Z M22.1475,21.1708333 L21.4516667,21.175 C21.4508333,21.2016667 21.45,21.2341667 21.45,21.2691667 L21.45,21.6566667 C21.45,21.8641667 21.2783333,22.0325 21.07,22.0325 L20.9341667,22.0325 C20.7258333,22.0325 20.5533333,21.8641667 20.5533333,21.6566667 L20.5533333,20.6358333 L22.1458333,20.6358333 L22.1458333,20.0366667 C22.1458333,19.5991667 22.1341667,19.1616667 22.0983333,18.9108333 C21.9841667,18.1191667 20.8733333,17.9933333 20.3116667,18.3991667 C20.135,18.5258333 20.0008333,18.695 19.9225,18.9233333 C19.8433333,19.1508333 19.8041667,19.4616667 19.8041667,19.8575 L19.8041667,21.1741667 C19.8041667,23.3641667 22.4641667,23.0541667 22.1475,21.1708333 L22.1475,21.1708333 Z M19.245,21.4641667 L19.2441667,19.2541667 C19.2433333,18.4125 18.6125,17.9083333 17.7575,18.5891667 L17.7616667,16.9466667 L16.8358333,16.9483333 L16.8316667,22.6175 L17.5925,22.6066667 L17.6616667,22.2533333 C18.635,23.1466667 19.2475,22.5341667 19.245,21.4641667 L19.245,21.4641667 Z M16.2791667,18.4241667 L15.3525,18.4241667 L15.3525,21.0783333 C15.3525,21.4625 15.3758333,21.6541667 15.3516667,21.7216667 C15.2758333,21.9275 14.9375,22.1466667 14.8041667,21.7441667 C14.7825,21.6741667 14.8016667,21.4616667 14.8016667,21.0966667 L14.7983333,18.4241667 L13.8766667,18.4241667 L13.8791667,21.0541667 C13.88,21.4583333 13.87,21.7583333 13.8825,21.8958333 C13.905,22.1366667 13.8966667,22.4183333 14.1208333,22.5783333 C14.5383333,22.8791667 15.3375,22.5333333 15.5375,22.1033333 L15.535,22.6525 L16.28,22.6533333 L16.28,18.4241667 L16.2791667,18.4241667 Z M12.9458333,22.6541667 L12.9458333,17.6833333 L14.0583333,17.6833333 L14.0583333,16.9475 L11.0933333,16.9433333 L11.0933333,17.6675 L12.0191667,17.67 L12.0191667,22.6541667 L12.9458333,22.6541667 Z M23.5,17.4233333 L23.5,22.1416667 C23.5,23.2741667 22.5183333,24.2 21.3183333,24.2 L12.3475,24.2 C11.1475,24.2 10.1666667,23.2741667 10.1666667,22.1416667 L10.1666667,17.4233333 C10.1666667,16.2916667 11.1475,15.365 12.3475,15.365 L21.3183333,15.365 C22.5183333,15.365 23.5,16.2916667 23.5,17.4233333 L23.5,17.4233333 Z M18.1508333,18.81 C17.9283333,18.81 17.7466667,18.9608333 17.7466667,19.1433333 L17.7466667,21.6233333 C17.7466667,21.8066667 17.9283333,21.9558333 18.1508333,21.9558333 C18.375,21.9558333 18.5575,21.8066667 18.5575,21.6233333 L18.5575,19.1433333 C18.5575,18.9608333 18.375,18.81 18.1508333,18.81 L18.1508333,18.81 Z M21.445,19.9033333 L20.5666667,19.9033333 L20.5708333,19.3933333 C20.5708333,19.1675 20.7566667,18.9816667 20.9841667,18.9816667 L21.0408333,18.9816667 C21.2683333,18.9816667 21.455,19.1675 21.455,19.3933333 L21.445,19.9033333 Z" id="Fill-1" fill="#FFFFFF"></path>
                        </g>
                    </g>
                </g>
            </g>
        </g>
    </g>
</svg>