<?xml version="1.0" encoding="UTF-8" standalone="no"?>
<svg width="50px" height="50px" viewBox="0 0 50 50" version="1.1" xmlns="http://www.w3.org/2000/svg" xmlns:xlink="http://www.w3.org/1999/xlink">
    <!-- Generator: sketchtool 45.2 (43514) - http://www.bohemiancoding.com/sketch -->
    <title>510C2F25-57C5-4993-8A99-C702DA8CD7D6</title>
    <desc>Created with sketchtool.</desc>
    <defs></defs>
    <g id="Page-1" stroke="none" stroke-width="1" fill="none" fill-rule="evenodd">
        <g id="MS-Pepper-Landing-Page-City-Dropdown-Hover-Desktop-EN" transform="translate(-662.000000, -1294.000000)">
            <g id="Featured-Hotels-Live-Support" transform="translate(0.000000, 856.000000)">
                <g id="Tabs" transform="translate(229.000000, 130.000000)">
                    <g id="CN-flag-icon" transform="translate(433.000000, 308.000000)">
                        <circle id="EN" fill="#AAABAE" opacity="0.150000006" cx="25" cy="25" r="25"></circle>
                        <g id="Page-1" transform="translate(15.000000, 18.000000)">
                            <polygon id="Fill-1" fill="#E54C3C" points="0 13.9257517 20.7653372 13.9257517 20.7653372 0.241234483 0 0.241234483"></polygon>
                            <polygon id="Fill-2" fill="#FFCB03" points="3.23785814 1.85017241 3.66860233 3.16062069 5.06241628 3.16062069 3.93476512 3.9702069 4.36526512 5.28041379 3.23785814 4.47082759 2.11045116 5.28041379 2.54095116 3.9702069 1.41354419 3.16062069 2.80711395 3.16062069"></polygon>
                            <polygon id="Fill-3" fill="#FFCB03" points="6.81933488 1.29128276 6.98635814 1.79938621 7.52625349 1.79938621 7.08940465 2.11317931 7.25642791 2.62104138 6.81933488 2.30724828 6.38224186 2.62104138 6.54902093 2.11317931 6.11217209 1.79938621 6.65231163 1.79938621"></polygon>
                            <polygon id="Fill-4" fill="#FFCB03" points="7.04396163 3.40641724 7.21098488 3.91427931 7.75112442 3.91427931 7.31427558 4.22807241 7.48105465 4.73617586 7.04396163 4.42214138 6.6068686 4.73617586 6.77389186 4.22807241 6.33704302 3.91427931 6.87693837 3.91427931"></polygon>
                            <polygon id="Fill-5" fill="#FFCB03" points="6.10274651 5.64624828 6.26976977 6.15411034 6.8099093 6.15411034 6.37281628 6.46814483 6.53959535 6.9760069 6.10274651 6.66221379 5.66565349 6.9760069 5.83267674 6.46814483 5.39558372 6.15411034 5.93572326 6.15411034"></polygon>
                            <polygon id="Fill-6" fill="#FFCB03" points="4.09822326 6.93847241 4.26524651 7.44633448 4.80538605 7.44633448 4.36829302 7.76036897 4.53507209 8.26823103 4.09822326 7.95443793 3.66113023 8.26823103 3.82815349 7.76036897 3.39106047 7.44633448 3.9312 7.44633448"></polygon>
                        </g>
                    </g>
                </g>
            </g>
        </g>
    </g>
</svg>