<?xml version="1.0" encoding="UTF-8" standalone="no"?>
<svg width="15px" height="18px" viewBox="0 0 15 18" version="1.1" xmlns="http://www.w3.org/2000/svg" xmlns:xlink="http://www.w3.org/1999/xlink">
    <!-- Generator: sketchtool 45.2 (43514) - http://www.bohemiancoding.com/sketch -->
    <title>290E6774-D642-4624-9C7E-91B6F2FD652C</title>
    <desc>Created with sketchtool.</desc>
    <defs></defs>
    <g id="Page-1" stroke="none" stroke-width="1" fill="none" fill-rule="evenodd">
        <g id="MS-Pepper-Landing-Page-Desktop-JP" transform="translate(-543.000000, -513.000000)" stroke="#232E48" stroke-width="0.3" fill="#232E48">
            <g id="Search-Default" transform="translate(230.000000, 286.000000)">
                <g id="Group-8" transform="translate(270.000000, 188.000000)">
                    <g id="Group-7" transform="translate(33.000000, 37.000000)">
                        <path d="M17.5,3.77272727 C19.4911667,3.77272727 21.1111111,5.50595455 21.1111111,7.63636364 C21.1111111,9.76677273 19.4911667,11.5 17.5,11.5 C15.5088333,11.5 13.8888889,9.76677273 13.8888889,7.63636364 C13.8888889,5.50595455 15.5088333,3.77272727 17.5,3.77272727 Z M21.8333333,7.63636364 C21.8333333,5.07554545 19.8934444,3 17.5,3 C15.1065556,3 13.1666667,5.07554545 13.1666667,7.63636364 C13.1666667,9.47004545 14.1640556,11.0502727 15.6077778,11.8029091 C12.9442222,12.6714545 11,15.3234545 11,18.4545455 L11,18.6136364 C11,18.8269091 11.1617778,19 11.3611111,19 C11.5604444,19 11.7222222,18.8269091 11.7222222,18.6136364 L11.7222222,18.4545455 C11.7222222,15.0460455 14.3142778,12.2727273 17.5,12.2727273 C20.6857222,12.2727273 23.2777778,15.0460455 23.2777778,18.4545455 L23.2777778,18.6136364 C23.2777778,18.8269091 23.4395556,19 23.6388889,19 C23.8382222,19 24,18.8269091 24,18.6136364 L24,18.4545455 C24,15.3234545 22.0557778,12.6714545 19.3922222,11.8029091 C20.8359444,11.0502727 21.8333333,9.47004545 21.8333333,7.63636364 Z" id="Guests-icon-Copy"></path>
                    </g>
                </g>
            </g>
        </g>
    </g>
</svg>