<?xml version="1.0" encoding="UTF-8" standalone="no"?>
<svg width="33px" height="33px" viewBox="0 0 33 33" version="1.1" xmlns="http://www.w3.org/2000/svg" xmlns:xlink="http://www.w3.org/1999/xlink">
    <!-- Generator: Sketch 45.2 (43514) - http://www.bohemiancoding.com/sketch -->
    <title>Instagram-icon</title>
    <desc>Created with Sketch.</desc>
    <defs></defs>
    <g id="Symbols" stroke="none" stroke-width="1" fill="none" fill-rule="evenodd">
        <g id="Footer" transform="translate(-1089.000000, -384.000000)">
            <g id="Social-Icons">
                <g transform="translate(881.000000, 384.000000)">
                    <g id="Icons" transform="translate(112.000000, 0.000000)">
                        <g id="Instagram-icon" transform="translate(96.000000, 0.000000)">
                            <circle id="Oval-2-Copy" fill="#455070" cx="16.5" cy="16.5" r="16.5"></circle>
                            <path d="M22.66875,19.86 C22.66875,21.40875 21.40875,22.66875 19.86,22.66875 L13.13875,22.66875 C11.59,22.66875 10.33,21.40875 10.33,19.86 L10.33,13.13875 C10.33,11.59 11.59,10.33 13.13875,10.33 L19.86,10.33 C21.40875,10.33 22.66875,11.59 22.66875,13.13875 L22.66875,19.86 Z M19.86,9 C22.1425,9 24,10.85625 24,13.13875 L24,19.86 C24,22.1425 22.1425,24 19.86,24 L13.13875,24 C10.85625,24 9,22.1425 9,19.86 L9,13.13875 C9,10.85625 10.85625,9 13.13875,9 L19.86,9 Z M16.499625,19.0335 C15.102125,19.0335 13.964625,17.89725 13.964625,16.49975 C13.964625,15.10225 15.102125,13.96475 16.499625,13.96475 C17.897125,13.96475 19.034625,15.10225 19.034625,16.49975 C19.034625,17.89725 17.897125,19.0335 16.499625,19.0335 Z M16.499625,12.63475 C14.368375,12.63475 12.634625,14.3685 12.634625,16.49975 C12.634625,18.631 14.368375,20.36475 16.499625,20.36475 C18.630875,20.36475 20.364625,18.631 20.364625,16.49975 C20.364625,14.3685 18.630875,12.63475 16.499625,12.63475 Z M20.527,11.506125 C20.27075,11.506125 20.01825,11.609875 19.83825,11.791125 C19.65575,11.972375 19.55075,12.224875 19.55075,12.482375 C19.55075,12.738625 19.65575,12.989875 19.83825,13.172375 C20.01825,13.353625 20.27075,13.457375 20.527,13.457375 C20.7845,13.457375 21.03575,13.353625 21.217,13.172375 C21.3995,12.989875 21.50325,12.738625 21.50325,12.482375 C21.50325,12.224875 21.3995,11.972375 21.217,11.791125 C21.03575,11.609875 20.7845,11.506125 20.527,11.506125 Z" id="Combined-Shape" fill="#FFFFFF"></path>
                        </g>
                    </g>
                </g>
            </g>
        </g>
    </g>
</svg>