<?xml version="1.0" encoding="UTF-8" standalone="no"?>
<svg width="22px" height="22px" viewBox="0 0 22 22" version="1.1" xmlns="http://www.w3.org/2000/svg" xmlns:xlink="http://www.w3.org/1999/xlink">
    <!-- Generator: Sketch 45.2 (43514) - http://www.bohemiancoding.com/sketch -->
    <title>Location-icon</title>
    <desc>Created with Sketch.</desc>
    <defs></defs>
    <g id="Page-1" stroke="none" stroke-width="1" fill="none" fill-rule="evenodd">
        <g id="MS-Pepper-Landing-Page-Desktop-EN" transform="translate(-557.000000, -352.000000)" stroke-width="0.4" stroke="#FFFFFF" fill="#232E48">
            <g id="Hero-Section-v2" transform="translate(0.000000, 100.000000)">
                <g id="img">
                    <g id="Search-Default" transform="translate(230.000000, 186.000000)">
                        <g id="Group-9-Copy" transform="translate(30.000000, 24.000000)">
                            <path d="M308.67235,48.9679152 C308.67235,49.3414553 308.371438,49.6410935 308.000672,49.6410935 C307.629905,49.6410935 307.328993,49.3414553 307.328993,48.9679152 L307.328993,44.3336 C303.050402,44.6654863 299.665142,48.0542202 299.333333,52.3270884 L303.970601,52.3270884 C304.341368,52.3270884 304.64228,52.629414 304.64228,52.998923 C304.64228,53.372463 304.341368,53.6721013 303.970601,53.6721013 L299.333333,53.6721013 C299.665142,57.9463132 303.050402,61.335047 307.328993,61.6669333 L307.328993,57.0312744 C307.328993,56.6604217 307.629905,56.3580961 308.000672,56.3580961 C308.371438,56.3580961 308.67235,56.6604217 308.67235,57.0312744 L308.67235,61.6669333 C312.949598,61.335047 316.334858,57.9463132 316.666667,53.6721013 L312.030742,53.6721013 C311.659976,53.6721013 311.359064,53.372463 311.359064,52.998923 C311.359064,52.629414 311.659976,52.3270884 312.030742,52.3270884 L316.666667,52.3270884 C316.334858,48.0542202 312.949598,44.6654863 308.67235,44.3336 L308.67235,48.9679152 Z M308,63 C302.476,63 298,58.5226667 298,52.9986667 C298,47.4786667 302.476,43 308,43 C313.524,43 318,47.4786667 318,52.9986667 C318,58.5226667 313.524,63 308,63" id="Location-icon"></path>
                        </g>
                    </g>
                </g>
            </g>
        </g>
    </g>
</svg>