<svg xmlns="http://www.w3.org/2000/svg" xmlns:xlink="http://www.w3.org/1999/xlink" width="220" height="220" viewBox="0 0 220 220">
    <defs>
        <path id="a" d="M220 110c0 60.752-49.248 110-110 110C49.25 220 0 170.752 0 110S49.25 0 110 0c60.752 0 110 49.248 110 110"/>
        <path id="c" d="M17.377.165H.95v15.59h16.427V.166z"/>
    </defs>
    <g fill="none" fill-rule="evenodd">
        <mask id="b" fill="#fff">
            <use xlink:href="#a"/>
        </mask>
        <use fill="#5873BB" xlink:href="#a"/>
        <g mask="url(#b)" opacity=".2">
            <path fill="#E6E9E9" d="M110.033 152.642c.286-1.037-1.53-2.83-1.882-4.821-.678-3.84-1.67-7.154-6.425-9.413-4.753-2.26-7.95-.937-11.356.962-1.765.985-4.303.708-4.926 1.584-.624.877-2.748 6.62-2.548 7.901.256 1.639 1.601 1.061 2.476 5.384.68 3.358 2.586 5.299 5.625 6.743 3.038 1.444 5.746 1.697 8.78.104 3.905-2.051 4.306-.643 5.738-1.48 1.12-.654 4.232-5.927 4.518-6.964"/>
            <path fill="#A8DBD6" d="M92.953 151.496c1.165-.245 2.05-2.82 1.612-4.407-.355-1.289-1.996-2.169-3.36-1.576-2.044.886-3.233 3.362-2.582 4.347.544.822 3.18 1.878 4.33 1.636"/>
            <path fill="#395663" d="M93.396 149.258c-.495 1.041-1.664 1.52-2.612 1.07-.948-.45-1.315-1.66-.82-2.702.494-1.04 1.664-1.519 2.612-1.069.948.451 1.315 1.66.82 2.701"/>
            <path fill="#FEFEFE" d="M91.843 147.645a.606.606 0 1 1-1.095-.52.606.606 0 0 1 1.095.52"/>
            <path fill="#395663" d="M99.214 145.074a.545.545 0 1 1-.258-.726.545.545 0 0 1 .258.726"/>
            <path fill="#A8DBD6" d="M97.13 153.482c-.545-1.058.892-3.37 2.4-4.033 1.224-.538 2.942.178 3.344 1.61.602 2.145-.566 4.63-1.741 4.748-.98.097-3.465-1.281-4.003-2.325"/>
            <path fill="#395663" d="M98.586 151.725c-.495 1.04-.128 2.25.82 2.7.948.45 2.118-.028 2.612-1.07.495-1.04.128-2.25-.82-2.7-.948-.45-2.117.029-2.612 1.07"/>
            <path fill="#FEFEFE" d="M100.818 151.91a.606.606 0 1 0 1.095.522.606.606 0 0 0-1.095-.521"/>
            <path fill="#36ADD3" d="M107.243 155.624c-1.234 1.896-2.123 3.506-1.986 3.595.137.089 1.248-1.376 2.482-3.272 1.234-1.896 2.091-3.561 1.954-3.65-.137-.09-1.216 1.43-2.45 3.327M84.883 144.996c-.691 2.154-1.378 3.86-1.533 3.81-.156-.05.278-1.837.969-3.991.692-2.154 1.442-3.87 1.598-3.82.155.05-.343 1.847-1.034 4"/>
            <path fill="#B7C1C5" d="M96.43 139.946c1.658.258 2.505-.773 3.282-2.315-1.34-.39-2.557-.482-3.702-.362-.688 1.374-1 2.454.42 2.677M103.864 143.479c-1.246-1.121-.982-2.43-.276-4.005 1.149.792 1.988 1.678 2.617 2.642-.63 1.4-1.27 2.325-2.34 1.363"/>
            <path fill="#355360" d="M92.866 156.707a2.237 2.237 0 0 1-1.174-1.348l-.073-.231a.413.413 0 0 1 .269-.517c.217-.068 3.106 1.299 3.2 1.506a.41.41 0 0 1-.203.545l-.127.059a2.24 2.24 0 0 1-1.84.01l-.052-.024"/>
            <path fill="#FEFEFE" d="M31.625 84.106a.942.942 0 0 0-.922-.922h-.922a.933.933 0 0 0-.922.922v.334h2.766v-.334zm14.413.668a1.56 1.56 0 0 1-.748-.749l-.254-.334c-.33-.507-1.012-.92-1.587-.92h-3.687c-.588 0-1.35.413-1.684.92l-.253.334c-.16.335-.508.59-.829.75h-8.23c-.669 0-1.256.587-1.256 1.35v10.634c0 .668.587 1.256 1.256 1.256h18.702c.668 0 1.35-.588 1.35-1.256V86.124c0-.762-.682-1.35-1.35-1.35h-1.43zm-3.256 6.614c0-2.592-2.098-4.597-4.624-4.597-2.592 0-4.689 2.005-4.689 4.597a4.69 4.69 0 0 0 4.69 4.703c2.525 0 4.623-2.098 4.623-4.703zm.668-4.008h2.682v-1.256H43.45v1.256z"/>
            <path fill="#4DA1B7" d="M97.3 42.508a6.836 6.836 0 0 1-2.777-.578l.886-2.015c2.233.982 4.436-.211 4.458-.223l1.082 1.918c-.09.05-1.616.898-3.65.898M93.028 40.864c-2.421-2.618-1.816-6.036-1.789-6.18l2.165.398c-.005.025-.416 2.496 1.241 4.287l-1.617 1.495z"/>
            <path fill="#4DA1B7" d="M98.16 35.39l.07-.097-.16-.04-.09-.138-.069.098-5.469-1.371 1.98 4.979-7.857 11.265a.517.517 0 0 0 .124.717l.384.274a.517.517 0 0 0 .718-.116l8.093-11.096 5.352.25-3.077-4.725z"/>
            <path fill="#FEFEFE" d="M109.79 36.466c2.871-5.506-1.519-10.34-3.55-12.05l.02-.026-.586-.418-.019.027c-2.277-1.363-8.277-3.94-12.548.568-3.58 3.778-2.014 9.037-2.014 9.037s3.717.434 6.542 2.259c2.644 2.076 4.265 5.449 4.265 5.449s5.483-.232 7.89-4.846"/>
            <path fill="#1A6A8C" d="M38.165 181.609a5.828 5.828 0 0 0-3.721 1.335 5.837 5.837 0 0 0-2.13 4.513c0 .268.026.529.06.787h2.994a2.882 2.882 0 0 1-.121-.787 2.918 2.918 0 0 1 5.834 0c0 .275-.05.535-.121.787h2.994a5.83 5.83 0 0 0 .059-.787 5.848 5.848 0 0 0-5.848-5.848"/>
            <g transform="translate(29 -14.165)">
                <mask id="d" fill="#fff">
                    <use xlink:href="#c"/>
                </mask>
                <path fill="#FEFEFE" d="M9.163 15.562v.002l.114.192 1.724-3.008 5.106-8.91c.413-.641.74-1.342.964-2.088l.003-.01a8.12 8.12 0 0 0 .303-1.575h-1.4a6.86 6.86 0 0 1-6.813 6.074A6.861 6.861 0 0 1 2.35.165H.95a8.19 8.19 0 0 0 1.27 3.672l6.943 11.725z" mask="url(#d)"/>
            </g>
            <path fill="#FEFEFE" d="M41.081 187.457a2.917 2.917 0 0 0-5.834 0c0 .274.05.535.121.787h5.592c.071-.252.121-.513.121-.787"/>
            <path fill="#A8DBD6" d="M37.698 182.944"/>
            <path fill="#FEFEFE" d="M38.164 179.201a8.256 8.256 0 0 0-8.256 8.256c0 .266.017.527.042.786h1.399a6.797 6.797 0 0 1-.049-.786 6.862 6.862 0 0 1 6.864-6.862 6.861 6.861 0 0 1 6.862 6.862c0 .266-.019.528-.048.786h1.4c.025-.259.042-.52.042-.786a8.257 8.257 0 0 0-8.256-8.256"/>
            <path fill="#A8DBD6" d="M37.1 187.457a5.843 5.843 0 0 1 0 0"/>
            <path fill="#4DA1B7" d="M32.315 187.457a5.837 5.837 0 0 1 3.062-5.143 5.821 5.821 0 0 1 2.788-.705 5.848 5.848 0 0 1 5.848 5.848c0 .267-.024.53-.059.787h1.025a7.06 7.06 0 0 0 .048-.787 6.862 6.862 0 0 0-6.862-6.862 6.862 6.862 0 0 0-6.864 6.862c0 .266.019.528.048.787h1.025a5.843 5.843 0 0 1-.059-.787M41.43 91.418a3.285 3.285 0 1 1-6.57-.001 3.285 3.285 0 0 1 6.57 0"/>
            <path fill="#E6E9E9" d="M197.886 29.214c-.385-1.004-2.911-1.37-4.374-2.766-2.823-2.69-5.587-4.77-10.755-3.77-5.167.998-6.957 3.958-8.574 7.507-.838 1.84-3.045 3.121-3.028 4.196.018 1.076 1.713 6.96 2.633 7.873 1.178 1.168 1.918-.095 5.186 2.868 2.539 2.301 5.224 2.733 8.527 2.095 3.304-.639 5.634-2.04 7.132-5.123 1.929-3.966 3.087-3.07 3.744-4.594.514-1.19-.107-7.282-.491-8.286"/>
            <path fill="#A8DBD6" d="M183.452 38.418c.793-.888-.02-3.486-1.315-4.505-1.05-.827-2.893-.563-3.64.724-1.12 1.925-.61 4.624.498 5.031.925.34 3.675-.374 4.457-1.25"/>
            <path fill="#395663" d="M182.482 36.353c.22 1.132-.439 2.211-1.469 2.41-1.03.2-2.043-.557-2.262-1.689-.219-1.13.44-2.21 1.47-2.409 1.03-.2 2.042.556 2.261 1.688"/>
            <path fill="#FEFEFE" d="M180.274 35.975a.607.607 0 1 1-1.192.23.607.607 0 0 1 1.192-.23"/>
            <path fill="#395663" d="M184.685 29.535a.545.545 0 1 1-1.07.207.545.545 0 0 1 1.07-.207"/>
            <path fill="#A8DBD6" d="M187.993 37.54c-1.066-.528-1.28-3.242-.46-4.67.668-1.158 2.476-1.601 3.65-.685 1.756 1.369 2.289 4.064 1.412 4.855-.732.659-3.55 1.023-4.602.5"/>
            <path fill="#395663" d="M188.124 35.263c.219 1.132 1.23 1.888 2.262 1.688 1.03-.2 1.688-1.278 1.469-2.41-.22-1.131-1.231-1.887-2.262-1.688-1.03.199-1.688 1.278-1.47 2.41"/>
            <path fill="#FEFEFE" d="M190.031 34.09a.606.606 0 1 0 1.191-.231.606.606 0 0 0-1.19.23"/>
            <path fill="#36ADD3" d="M197.407 33.27c.131 2.257.369 4.081.532 4.071.163-.009.189-1.848.059-4.106-.131-2.259-.428-4.107-.591-4.098-.163.01-.131 1.874 0 4.132M173.1 37.968c.72 2.145 1.178 3.925 1.023 3.977-.155.053-.864-1.644-1.585-3.788-.72-2.144-1.134-3.97-.979-4.022.155-.052.82 1.69 1.54 3.834"/>
            <path fill="#B7C1C5" d="M179.404 27.055c1.488-.774 1.559-2.106 1.27-3.809-1.311.48-2.345 1.128-3.195 1.904.26 1.514.649 2.57 1.925 1.905M187.485 25.493c-1.669-.163-2.23-1.373-2.598-3.061 1.396-.044 2.596.173 3.674.576.323 1.502.356 2.625-1.076 2.485"/>
            <path fill="#355360" d="M186.471 42.666a2.24 2.24 0 0 1-1.745-.39l-.195-.143a.411.411 0 0 1-.09-.575c.134-.184 3.27-.796 3.47-.685.198.11.27.361.16.56l-.068.122a2.237 2.237 0 0 1-1.476 1.1l-.056.011"/>
            <path fill="#4DA1B7" d="M189.23 143.71h-8.156a6.563 6.563 0 1 0-.614 13.097c-.857 1.382-2.36 4.563-2.36 4.563l7.552-4.532h3.577a6.564 6.564 0 0 0 0-13.128"/>
            <path fill="#FEFEFE" d="M188.652 142.701h-8.155a6.563 6.563 0 1 0-.614 13.097c-.857 1.382-2.36 4.563-2.36 4.563l7.552-4.532h3.577a6.564 6.564 0 0 0 0-13.128"/>
            <path fill="#1A6A8C" d="M38.165 190.372a2.909 2.909 0 0 1-2.796-2.128h-2.994a5.838 5.838 0 0 0 5.79 5.06 5.846 5.846 0 0 0 5.789-5.06h-2.995a2.908 2.908 0 0 1-2.794 2.128"/>
            <path fill="#FEFEFE" d="M38.165 190.372a2.907 2.907 0 0 0 2.794-2.128h-5.59a2.909 2.909 0 0 0 2.796 2.128"/>
            <path fill="#A8DBD6" d="M38.63 192.597"/>
            <path fill="#FEFEFE" d="M38.163 203.64v.003l.114.192 1.724-3.008 5.106-8.91c.413-.641.74-1.342.964-2.088l.003-.01a8.12 8.12 0 0 0 .303-1.575h-1.4a6.86 6.86 0 0 1-6.813 6.074 6.861 6.861 0 0 1-6.815-6.074H29.95a8.19 8.19 0 0 0 1.27 3.672l6.943 11.725z"/>
            <path fill="#A8DBD6" d="M39.199 191.968"/>
            <path fill="#4DA1B7" d="M38.165 193.304a5.825 5.825 0 0 1-3.721-1.336 5.838 5.838 0 0 1-2.07-3.724H31.35a6.862 6.862 0 0 0 6.815 6.074 6.86 6.86 0 0 0 6.813-6.074h-1.024a5.846 5.846 0 0 1-5.79 5.06"/>
        </g>
        <g mask="url(#b)">
            <path fill="#E6E9E9" d="M190.658 84.82a48.24 48.24 0 0 0-.818-1.524c-4.256-7.621-9.68-12.758-10.284-13.319L167.54 82.934c.12.114 14.17 13.777 8.375 24.035-5.605 9.918-23.695 10.356-29.591 9.728l-1.872 17.57c1.399.149 34.412 3.399 46.846-18.606 5.225-9.248 4.995-19.88-.641-30.84"/>
            <path fill="#B7C1C5" d="M168.174 113.553c2.597-1.192 4.906-2.78 6.585-4.882 2.71 5.618 8.591 9.416 14.746 9.765-2.709 3.79-6.09 6.69-9.769 8.922-6.084-1.989-10.885-6.484-11.562-13.805M176.54 96.793c-2.298-7.345-8.917-13.783-9-13.86l12.016-12.956c.604.561 6.028 5.697 10.284 13.318.284.51.557 1.016.818 1.524 1.485 2.888 2.584 5.751 3.317 8.574-5.373 3.615-11.575 5.734-17.435 3.4"/>
            <path fill="#D6D3D3" d="M165.374 132.93c4.025-1.833 7.83-4.105 11.182-6.772 2.427-1.446 4.681-3.167 6.594-5.434 13.932-14.684 7.406-36.616-5.62-48.564l2.025-2.183c.605.56 6.029 5.697 10.285 13.318.284.51.556 1.016.818 1.524 5.635 10.96 5.865 21.593.641 30.84-5.88 10.406-16.361 15.161-25.925 17.27"/>
            <path fill="#898C8E" d="M179.736 127.359a20.454 20.454 0 0 1-3.049-1.277c2.377-1.43 4.584-3.131 6.463-5.357a29.63 29.63 0 0 0 2.48-2.981c1.261.376 2.56.619 3.875.693-2.709 3.789-6.091 6.689-9.769 8.922M177.53 72.16l2.025-2.182c.605.56 6.028 5.697 10.284 13.317.285.509.557 1.017.818 1.525 1.485 2.887 2.584 5.75 3.317 8.574a32.048 32.048 0 0 1-3.526 2.064c-1.51-8.828-6.394-17.314-12.917-23.297"/>
            <path fill="#E6E9E9" d="M75.368 299.545c19.665-14.555 12.215-42.833 10.293-56.146-1.8-12.46-3.751-24.895-4.28-34.366a30.938 30.938 0 0 1-.363-4.736c0-16.978 13.763-30.742 30.742-30.742 14.14 0 26.043 9.55 29.63 22.55.006.02.015.037.022.056.26.804.462 1.732.612 2.76.308 1.747.478 3.54.478 5.376 0 1.219-.08 2.419-.217 3.6-.427 9.6-2.466 22.539-4.338 35.502-1.922 13.313-9.371 41.59 10.293 56.146 16.303 12.066 21.065 22.437 14.302 30.265-7.55 8.736-30.917.038-50.187.579v.035c-.183-.01-.368-.011-.551-.018-.183.007-.368.009-.55.018v-.035c-19.27-.541-42.64 8.157-50.187-.58-6.764-7.827-2.001-18.198 14.3-30.264"/>
            <path fill="#B7C1C5" d="M111.385 207.016c-13.684.196-21.085-11.808-24.658-20.553 5.575-7.81 14.706-12.908 25.033-12.908 10.012 0 18.897 4.791 24.508 12.201-3.482 8.65-10.904 21.06-24.883 21.26"/>
            <path fill="#E6E9E9" d="M50.683 175.778c.374.432.76.86 1.156 1.287 5.944 6.392 12.432 10.095 13.152 10.496l8.596-15.437c-.144-.082-17.036-10.02-13.84-21.36 3.09-10.966 20.56-15.686 26.435-16.475l-2.352-17.512c-1.395.187-34.235 4.866-41.09 29.195-2.88 10.222-.133 20.497 7.943 29.806"/>
            <path fill="#B7C1C5" d="M65.703 142.528c-2.24 1.775-4.105 3.866-5.238 6.307-3.966-4.815-10.58-7.109-16.642-5.987 1.732-4.324 4.33-7.944 7.372-10.986 6.382.488 12.113 3.715 14.508 10.666M61.555 160.795c3.976 6.59 11.933 11.272 12.032 11.33l-8.596 15.435c-.72-.4-7.209-4.103-13.152-10.495a50.426 50.426 0 0 1-1.156-1.287c-2.128-2.453-3.875-4.974-5.258-7.542 4.362-4.786 9.883-8.317 16.13-7.44"/>
            <path fill="#D6D3D3" d="M63.824 123.041c-3.475 2.735-6.632 5.846-9.256 9.232-2.014 1.98-3.794 4.188-5.115 6.844-10.048 17.571 1.498 37.328 16.987 45.841l-1.45 2.602c-.72-.4-7.207-4.103-13.15-10.496a50.447 50.447 0 0 1-1.157-1.286c-8.076-9.309-10.823-19.584-7.943-29.807 3.242-11.504 12.294-18.61 21.084-22.93"/>
            <path fill="#898C8E" d="M51.195 131.862c1.114.085 2.205.26 3.265.517-1.97 1.954-3.71 4.13-5.007 6.738a29.635 29.635 0 0 0-1.701 3.484 16.962 16.962 0 0 0-3.93.247c1.734-4.324 4.33-7.944 7.373-10.986M66.44 184.959l-1.449 2.602c-.72-.401-7.208-4.104-13.152-10.496a48.778 48.778 0 0 1-1.156-1.287c-2.128-2.452-3.875-4.973-5.258-7.541a32.094 32.094 0 0 1 2.937-2.843c3.561 8.218 10.321 15.3 18.078 19.565"/>
            <path fill="#E6E9E9" d="M62.08 178.47c-3.536 6.367 3.005 16.55 12.803 21.165 5.221 2.46 7.977-1.245 9.16-1.719 2.236-.896 3.121-3.772-.29-6.122-4.214-2.903-7.312-8.884-6.328-9.815.984-.93 8.258 2.597 9.452-.207 1.666-3.912-2.493-4.122-8.392-7.632-6.915-4.113-12.758-2.237-16.405 4.33"/>
            <path fill="#D6D3D3" d="M76.635 200.26a9.16 9.16 0 0 1-1.752-.624c-7.918-3.73-14.374-11.55-13.73-18.137 4.943 6.528 14.175 21.265 22.49 16.649.047.517-3.945 3.228-7.008 2.113"/>
            <path fill="#E6E9E9" d="M83.897 159.213c0 13.733 12.307 24.866 27.488 24.866 15.18 0 27.487-11.133 27.487-24.866s-12.307-24.866-27.487-24.866c-15.18 0-27.488 11.133-27.488 24.866"/>
            <path fill="#D6D4D3" d="M111.254 167.863c-10.851.263-18.633 2.373-23.408 4.194-2.505-3.75-3.948-8.144-3.948-12.844 0-13.733 12.306-24.866 27.487-24.866 15.18 0 27.488 11.133 27.488 24.866 0 4.444-1.296 8.613-3.554 12.223-4.078-1.677-11.826-3.87-24.065-3.573"/>
            <path fill="#B4B3B4" d="M123.714 111.888H98.793V98.431h24.921z"/>
            <path fill="#395663" d="M79.897 163.503h63.725c6.201 0 11.227-5.026 11.227-11.227v-34.738c0-6.2-5.026-11.227-11.227-11.227H79.897c-6.2 0-11.227 5.027-11.227 11.227v34.738c0 6.201 5.027 11.227 11.227 11.227"/>
            <path fill="#A8DBD6" d="M78.649 157.292h66.221a3.37 3.37 0 0 0 3.37-3.37v-38.029a3.37 3.37 0 0 0-3.37-3.37H78.649a3.37 3.37 0 0 0-3.37 3.37v38.03a3.37 3.37 0 0 0 3.37 3.37"/>
            <path fill="#E6E9E9" d="M64.17 50.788c1.38-3.357 8.766-6.408 12.722-11.967 7.63-10.723 20.423-19.834 38.13-18.405 14.159 1.143 20.684 7.682 28.313 18.405 3.956 5.559 7.183 8.393 7.814 11.967.63 3.574-.234 24.157-2.7 27.772-3.153 4.626-4.265 5.012-11.422 12.827-7.81 8.528-14.217 11.652-20.042 12.405-13.104 1.693-24.923-3.215-33.785-12.405-10.333-10.717-11.145-9.13-15.35-12.827-3.757-3.304-6.456-21.026-3.68-27.772"/>
            <path fill="#A8DBD6" d="M127.006 72.253c-3.272-2.33-2.537-11.488.96-15.81 2.838-3.506 8.339-4.023 11.342.005 3.146 4.22 3.344 12.91 1.358 14.94-2.788 2.852-10.43 3.165-13.66.865"/>
            <path fill="#395663" d="M126.716 64.886c.126 3.888 3.098 6.947 6.638 6.832 3.54-.115 6.307-3.36 6.181-7.248-.126-3.888-3.098-6.947-6.638-6.832-3.54.115-6.307 3.36-6.18 7.248M116.523 45.234a1.84 1.84 0 1 0 3.68 0 1.84 1.84 0 0 0-3.68 0"/>
            <path fill="#355360" d="M122.18 84.658h-7.634a.663.663 0 0 0-.48 1.12c.802.851 2.195 1.876 4.252 1.876 2.248 0 3.614-1.039 4.357-1.893a.663.663 0 0 0-.495-1.103"/>
            <path fill="#A8DBD6" d="M109.16 72.042c3.195-2.435 2.163-11.565-1.472-15.77-2.95-3.413-9.226-3.72-12.529.065C90.217 62 90.18 71.27 93.591 73.328c2.847 1.717 12.415 1.117 15.57-1.286"/>
            <path fill="#395663" d="M107.268 64.578c0 3.89-2.87 7.044-6.413 7.044-3.542 0-6.413-3.154-6.413-7.044 0-3.89 2.871-7.044 6.413-7.044 3.542 0 6.413 3.154 6.413 7.044"/>
            <path fill="#FEFEFE" d="M100.194 61.91a2.047 2.047 0 1 1-4.094 0 2.047 2.047 0 0 1 4.094 0M133.14 60.895a2.046 2.046 0 1 1-4.09.134 2.046 2.046 0 0 1 4.09-.134"/>
            <path fill="#D6D3D3" d="M77.05 79.559c6.15 4.416 20.92 17.582 39.472 16.11 15.166-1.204 19.821-11.143 25.972-15.952 2.53-1.979 3.652-3.544 7.188-4.461-.385 1.5-.799 2.668-1.233 3.304-3.154 4.626-4.45 4.499-11.422 12.826-7.424 8.867-14.199 11.816-20.042 12.406-11.91 1.202-22.543-1.497-33.786-12.406-8.4-8.152-12.195-8.2-15.349-12.826-.393-.576-.769-1.585-1.123-2.885 3.718.784 7.705 2.005 10.322 3.884"/>
            <path fill="#36ADD3" d="M73.168 63.669C74.838 75 71.687 77.553 70.93 77.654c-.757.101-3.544-5.902-4.557-13.469-1.014-7.568.383-13.967 1.139-14.068.756-.101 3.975 2.159 5.655 13.552"/>
            <path fill="#B7C1C5" d="M129.231 32.746c-3.287-1.069-4.324-4.125-5.517-10.687 4.296 1.718 6.092 2.478 9.412 5.34.736 4.407-1.399 6.16-3.895 5.347M106.35 31.617c-3.901 1.072-8.19-2.524-10.24-8.409 3.859-1.572 8.115-2.592 12.763-2.864 1.428 5.951 1.262 10.233-2.523 11.273"/>
            <path fill="#E6E9E9" d="M162.297 71.024c-.228-1.262-4.432-8.475-7.189-5.844-3.858 3.683 7.832 14.9 7.832 14.9l-.643-9.056zM178.84 72.344c-1.97.729-3.015 5.31-7.622 3.53-2.78-1.074-4.27 1.096-5.844-2.096-.867-1.76.994-7.695 2.841-12.674 1.546-.291 11.675-1.764 13.52 9.069.111.647.19 1.293.237 1.932-1.283-.065-2.432-.021-3.133.239"/>
            <path fill="#D6D3D3" d="M167.994 61.707c-1.77 4.846-3.452 10.382-2.62 12.07 1.573 3.193 3.064 1.023 5.844 2.098 4.607 1.78 5.652-2.802 7.621-3.531.702-.26 1.85-.304 3.133-.24.13 1.77-.002 3.486-.523 5.044-1.049 3.136-3.68 6.607-9.002 7.55-6.93 1.229-10.05-4.285-11.3-8.487a18.038 18.038 0 0 1-.694-3.768c-.102-1.402.005-3.392.258-5.632 1.855-2.36 7.998-6.947 7.283-5.104"/>
            <path fill="#E6E9E9" d="M160.712 66.81c.874-7.726 3.506-18.448 5.467-18.448 5.253 0 1.83 12.783 1.83 12.783s.078-.017.207-.042c-.074.2.073-.201 0 0-2.66 1.556-5.65 3.349-7.504 5.708"/>
            <path fill="#F26D21" d="M108.815 137.366a8.047 8.047 0 1 0 .001-16.093 8.047 8.047 0 0 0-.001 16.093m0-19.406c6.274 0 11.358 5.086 11.358 11.358 0 2.264-.663 4.37-1.803 6.14l-9.554 16.13v.002l-.157.265-2.372-4.139-7.025-12.258a11.321 11.321 0 0 1-1.325-2.872l-.005-.013a11.347 11.347 0 0 1-.475-3.255c0-6.272 5.086-11.358 11.358-11.358"/>
            <path fill="#36ADD3" d="M107.747 129.318a4.014 4.014 0 1 1 8.028.003 4.014 4.014 0 0 1-8.028-.003"/>
            <path fill="#395663" d="M119.808 129.318a8.047 8.047 0 1 0-16.095.003 8.047 8.047 0 0 0 16.095-.003m-18.931 3.255a11.347 11.347 0 0 1-.475-3.255c0-6.272 5.086-11.358 11.358-11.358 6.274 0 11.358 5.086 11.358 11.358 0 2.264-.663 4.37-1.804 6.14l-9.553 16.13v.002l-.157.265-2.372-4.139-7.025-12.258a11.321 11.321 0 0 1-1.325-2.872l-.005-.013"/>
            <path fill="#395663" d="M119.808 129.318a8.047 8.047 0 1 0-16.095.003 8.047 8.047 0 0 0 16.095-.003m-8.048-9.44a9.44 9.44 0 0 1 9.443 9.44 9.442 9.442 0 0 1-9.443 9.443c-5.215 0-9.441-4.228-9.441-9.443a9.44 9.44 0 0 1 9.44-9.44"/>
        </g>
    </g>
</svg>
