<svg xmlns="http://www.w3.org/2000/svg" xmlns:xlink="http://www.w3.org/1999/xlink" width="220" height="220" viewBox="0 0 220 220">
    <defs>
        <path id="a" d="M220 110c0 60.752-49.248 110-110 110C49.25 220 0 170.752 0 110S49.25 0 110 0c60.752 0 110 49.248 110 110"/>
        <path id="c" d="M0 25.65V.586h27.417V25.65z"/>
        <path id="e" d="M.375.165h11.579v5.06H.374V.165z"/>
        <path id="g" d="M.369.165h5.59v2.128H.369V.165z"/>
        <path id="i" d="M17.377.165H.95v15.59h16.427V.166z"/>
        <path id="k" d="M.13.165h2.069v3.724H.129V.165z"/>
        <path id="m" d="M.35.165h13.628v6.074H.35V.165z"/>
    </defs>
    <g fill="none" fill-rule="evenodd">
        <mask id="b" fill="#fff">
            <use xlink:href="#a"/>
        </mask>
        <use fill="#5873BB" xlink:href="#a"/>
        <g mask="url(#b)" opacity=".2">
            <path fill="#E6E9E9" d="M123.033 175.642c.286-1.037-1.53-2.83-1.882-4.821-.678-3.84-1.67-7.154-6.425-9.413-4.753-2.26-7.95-.937-11.356.962-1.765.985-4.303.708-4.926 1.584-.624.877-2.748 6.62-2.548 7.901.256 1.639 1.601 1.061 2.476 5.384.68 3.358 2.586 5.299 5.625 6.743 3.038 1.444 5.746 1.697 8.78.104 3.905-2.051 4.306-.643 5.738-1.48 1.12-.654 4.232-5.927 4.518-6.964"/>
            <path fill="#A8DBD6" d="M105.953 174.496c1.165-.245 2.05-2.82 1.612-4.407-.355-1.289-1.996-2.169-3.36-1.576-2.044.886-3.233 3.362-2.582 4.347.544.822 3.18 1.878 4.33 1.636"/>
            <path fill="#395663" d="M106.396 172.258c-.495 1.041-1.664 1.52-2.612 1.07-.948-.45-1.315-1.66-.82-2.702.494-1.04 1.664-1.519 2.612-1.069.948.451 1.315 1.66.82 2.701"/>
            <path fill="#FEFEFE" d="M104.843 170.645a.606.606 0 1 1-1.095-.52.606.606 0 0 1 1.095.52"/>
            <path fill="#395663" d="M112.214 168.074a.545.545 0 1 1-.258-.726.545.545 0 0 1 .258.726"/>
            <path fill="#A8DBD6" d="M110.13 176.482c-.545-1.058.892-3.37 2.4-4.033 1.224-.538 2.942.178 3.344 1.61.602 2.145-.566 4.63-1.741 4.748-.98.097-3.465-1.281-4.003-2.325"/>
            <path fill="#395663" d="M111.586 174.725c-.495 1.04-.128 2.25.82 2.7.948.45 2.118-.028 2.612-1.07.495-1.04.128-2.25-.82-2.7-.948-.45-2.117.029-2.612 1.07"/>
            <path fill="#FEFEFE" d="M113.818 174.91a.606.606 0 1 0 1.095.522.606.606 0 0 0-1.095-.521"/>
            <path fill="#36ADD3" d="M120.243 178.624c-1.234 1.896-2.123 3.506-1.986 3.595.137.089 1.248-1.376 2.482-3.272 1.234-1.896 2.091-3.561 1.954-3.65-.137-.09-1.216 1.43-2.45 3.327M97.883 167.996c-.691 2.154-1.378 3.86-1.533 3.81-.156-.05.278-1.837.969-3.991.692-2.154 1.442-3.87 1.598-3.82.155.05-.343 1.847-1.034 4"/>
            <path fill="#B7C1C5" d="M109.43 162.946c1.658.258 2.505-.773 3.282-2.315-1.34-.39-2.557-.482-3.702-.362-.688 1.374-1 2.454.42 2.677M116.864 166.479c-1.246-1.121-.982-2.43-.276-4.005 1.149.792 1.988 1.678 2.617 2.642-.63 1.4-1.27 2.325-2.34 1.363"/>
            <path fill="#355360" d="M105.866 179.707a2.237 2.237 0 0 1-1.174-1.348l-.073-.231a.413.413 0 0 1 .269-.517c.217-.068 3.106 1.299 3.2 1.506a.41.41 0 0 1-.203.545l-.127.059a2.24 2.24 0 0 1-1.84.01l-.052-.024"/>
            <g transform="translate(-18 44.835)">
                <mask id="d" fill="#fff">
                    <use xlink:href="#c"/>
                </mask>
                <path fill="#E6E9E9" d="M26.73 7.38c-.384-1.005-2.91-1.372-4.373-2.767-2.823-2.69-5.587-4.77-10.755-3.77C6.435 1.84 4.645 4.8 3.028 8.35 2.19 10.19-.017 11.471 0 12.546c.018 1.076 1.713 6.96 2.633 7.873 1.178 1.168 1.918-.095 5.186 2.868 2.539 2.301 5.224 2.733 8.527 2.095 3.304-.639 5.634-2.04 7.132-5.123 1.929-3.966 3.087-3.07 3.744-4.594.514-1.19-.106-7.282-.491-8.286" mask="url(#d)"/>
            </g>
            <path fill="#A8DBD6" d="M-1.162 60.54c-1.066-.528-1.28-3.242-.459-4.67.667-1.158 2.475-1.601 3.649-.685 1.756 1.369 2.289 4.064 1.412 4.855-.732.659-3.549 1.023-4.602.5"/>
            <path fill="#395663" d="M-1.031 58.263c.219 1.132 1.23 1.888 2.262 1.688 1.03-.2 1.688-1.278 1.469-2.41-.22-1.131-1.231-1.887-2.262-1.688-1.03.199-1.688 1.278-1.47 2.41"/>
            <path fill="#FEFEFE" d="M.877 57.09a.606.606 0 1 0 1.19-.231.606.606 0 0 0-1.19.23"/>
            <path fill="#36ADD3" d="M8.252 56.27c.131 2.257.37 4.081.532 4.071.163-.009.19-1.848.06-4.106-.132-2.259-.429-4.107-.592-4.098-.163.01-.13 1.874 0 4.132"/>
            <path fill="#4DA1B7" d="M.074 166.71H-8.08a6.563 6.563 0 1 0-.614 13.097c-.857 1.382-2.36 4.563-2.36 4.563l7.552-4.532H.074a6.564 6.564 0 0 0 0-13.128"/>
            <path fill="#FEFEFE" d="M-.502 165.701h-8.155a6.563 6.563 0 1 0-.614 13.097c-.857 1.382-2.361 4.563-2.361 4.563l7.553-4.532h3.577a6.564 6.564 0 0 0 0-13.128M44.625 107.106a.942.942 0 0 0-.922-.922h-.922a.933.933 0 0 0-.922.922v.334h2.766v-.334zm14.413.668a1.56 1.56 0 0 1-.748-.749l-.254-.334c-.33-.507-1.012-.92-1.587-.92h-3.687c-.588 0-1.35.413-1.684.92l-.253.334c-.16.335-.508.59-.829.75h-8.23c-.669 0-1.256.587-1.256 1.35v10.634c0 .668.587 1.256 1.256 1.256h18.702c.668 0 1.35-.588 1.35-1.256v-10.635c0-.762-.682-1.35-1.35-1.35h-1.43zm-3.256 6.614c0-2.592-2.098-4.597-4.624-4.597-2.592 0-4.689 2.005-4.689 4.597a4.69 4.69 0 0 0 4.69 4.703c2.525 0 4.623-2.098 4.623-4.703zm.668-4.008h2.682v-1.256H56.45v1.256z"/>
            <path fill="#4DA1B7" d="M110.3 65.508a6.836 6.836 0 0 1-2.777-.578l.886-2.015c2.233.982 4.436-.211 4.458-.223l1.082 1.918c-.09.05-1.616.898-3.65.898M106.028 63.864c-2.421-2.618-1.816-6.036-1.789-6.18l2.165.398c-.005.025-.416 2.496 1.241 4.287l-1.617 1.495z"/>
            <path fill="#4DA1B7" d="M111.16 58.39l.07-.097-.16-.04-.09-.138-.069.098-5.469-1.371 1.98 4.979-7.857 11.265a.517.517 0 0 0 .124.717l.384.274a.517.517 0 0 0 .718-.116l8.093-11.096 5.352.25-3.077-4.725z"/>
            <path fill="#FEFEFE" d="M122.79 59.466c2.871-5.506-1.519-10.34-3.55-12.05l.02-.026-.586-.418-.019.027c-2.277-1.363-8.277-3.94-12.548.568-3.58 3.778-2.014 9.037-2.014 9.037s3.717.434 6.542 2.259c2.644 2.076 4.265 5.449 4.265 5.449s5.483-.232 7.89-4.846"/>
            <g transform="translate(45 8.835)">
                <mask id="f" fill="#fff">
                    <use xlink:href="#e"/>
                </mask>
                <path fill="#1A6A8C" d="M6.165 2.293A2.909 2.909 0 0 1 3.369.165H.375a5.838 5.838 0 0 0 5.79 5.06 5.846 5.846 0 0 0 5.789-5.06H8.959a2.908 2.908 0 0 1-2.794 2.128" mask="url(#f)"/>
            </g>
            <path fill="#1A6A8C" d="M51.165 204.609a5.828 5.828 0 0 0-3.721 1.335 5.837 5.837 0 0 0-2.13 4.513c0 .268.026.529.06.787h2.994a2.882 2.882 0 0 1-.121-.787 2.918 2.918 0 0 1 5.834 0c0 .275-.05.535-.121.787h2.994a5.83 5.83 0 0 0 .059-.787 5.848 5.848 0 0 0-5.848-5.848"/>
            <g transform="translate(48 8.835)">
                <mask id="h" fill="#fff">
                    <use xlink:href="#g"/>
                </mask>
                <path fill="#FEFEFE" d="M3.165 2.293A2.907 2.907 0 0 0 5.959.165H.369a2.909 2.909 0 0 0 2.796 2.128" mask="url(#h)"/>
            </g>
            <path fill="#A8DBD6" d="M51.63 13.353"/>
            <g transform="translate(42 8.835)">
                <mask id="j" fill="#fff">
                    <use xlink:href="#i"/>
                </mask>
                <path fill="#FEFEFE" d="M9.163 15.562v.002l.114.192 1.724-3.008 5.106-8.91c.413-.641.74-1.342.964-2.088l.003-.01a8.12 8.12 0 0 0 .303-1.575h-1.4a6.86 6.86 0 0 1-6.813 6.074A6.861 6.861 0 0 1 2.35.165H.95a8.19 8.19 0 0 0 1.27 3.672l6.943 11.725z" mask="url(#j)"/>
            </g>
            <g transform="translate(50 8.835)">
                <mask id="l" fill="#fff">
                    <use xlink:href="#k"/>
                </mask>
                <path fill="#A8DBD6" d="M2.199 3.889" mask="url(#l)"/>
            </g>
            <g transform="translate(44 8.835)">
                <mask id="n" fill="#fff">
                    <use xlink:href="#m"/>
                </mask>
                <path fill="#4DA1B7" d="M7.165 5.224a5.825 5.825 0 0 1-3.721-1.336A5.838 5.838 0 0 1 1.374.164H.35a6.862 6.862 0 0 0 6.815 6.074A6.86 6.86 0 0 0 13.978.165h-1.024a5.846 5.846 0 0 1-5.79 5.06" mask="url(#n)"/>
            </g>
            <path fill="#FEFEFE" d="M54.081 210.457a2.917 2.917 0 0 0-5.834 0c0 .274.05.535.121.787h5.592c.071-.252.121-.513.121-.787"/>
            <path fill="#A8DBD6" d="M50.698 205.944"/>
            <path fill="#FEFEFE" d="M51.164 202.201a8.256 8.256 0 0 0-8.256 8.256c0 .266.017.527.042.786h1.399a6.797 6.797 0 0 1-.049-.786 6.862 6.862 0 0 1 6.864-6.862 6.861 6.861 0 0 1 6.862 6.862c0 .266-.019.528-.048.786h1.4c.025-.259.042-.52.042-.786a8.257 8.257 0 0 0-8.256-8.256"/>
            <path fill="#A8DBD6" d="M50.1 210.457a5.843 5.843 0 0 1 0 0"/>
            <path fill="#4DA1B7" d="M45.315 210.457a5.837 5.837 0 0 1 3.062-5.143 5.821 5.821 0 0 1 2.788-.705 5.848 5.848 0 0 1 5.848 5.848c0 .267-.024.53-.059.787h1.025a7.06 7.06 0 0 0 .048-.787 6.862 6.862 0 0 0-6.862-6.862 6.862 6.862 0 0 0-6.864 6.862c0 .266.019.528.048.787h1.025a5.843 5.843 0 0 1-.059-.787M54.43 114.418a3.285 3.285 0 1 1-6.57-.001 3.285 3.285 0 0 1 6.57 0"/>
            <path fill="#E6E9E9" d="M210.886 52.214c-.385-1.004-2.911-1.37-4.374-2.766-2.823-2.69-5.587-4.77-10.755-3.77-5.167.998-6.957 3.958-8.574 7.507-.838 1.84-3.045 3.121-3.028 4.196.018 1.076 1.713 6.96 2.633 7.873 1.178 1.168 1.918-.095 5.186 2.868 2.539 2.301 5.224 2.733 8.527 2.095 3.304-.639 5.634-2.04 7.132-5.123 1.929-3.966 3.087-3.07 3.744-4.594.514-1.19-.107-7.282-.491-8.286"/>
            <path fill="#A8DBD6" d="M196.452 61.418c.793-.888-.02-3.486-1.315-4.505-1.05-.827-2.893-.563-3.64.724-1.12 1.925-.61 4.624.498 5.031.925.34 3.675-.374 4.457-1.25"/>
            <path fill="#395663" d="M195.482 59.353c.22 1.132-.439 2.211-1.469 2.41-1.03.2-2.043-.557-2.262-1.689-.219-1.13.44-2.21 1.47-2.409 1.03-.2 2.042.556 2.261 1.688"/>
            <path fill="#FEFEFE" d="M193.274 58.975a.607.607 0 1 1-1.192.23.607.607 0 0 1 1.192-.23"/>
            <path fill="#395663" d="M197.685 52.535a.545.545 0 1 1-1.07.207.545.545 0 0 1 1.07-.207"/>
            <path fill="#A8DBD6" d="M200.993 60.54c-1.066-.528-1.28-3.242-.46-4.67.668-1.158 2.476-1.601 3.65-.685 1.756 1.369 2.289 4.064 1.412 4.855-.732.659-3.55 1.023-4.602.5"/>
            <path fill="#395663" d="M201.124 58.263c.219 1.132 1.23 1.888 2.262 1.688 1.03-.2 1.688-1.278 1.469-2.41-.22-1.131-1.231-1.887-2.262-1.688-1.03.199-1.688 1.278-1.47 2.41"/>
            <path fill="#FEFEFE" d="M203.031 57.09a.606.606 0 1 0 1.191-.231.606.606 0 0 0-1.19.23"/>
            <path fill="#36ADD3" d="M210.407 56.27c.131 2.257.369 4.081.532 4.071.163-.009.189-1.848.059-4.106-.131-2.259-.428-4.107-.591-4.098-.163.01-.131 1.874 0 4.132M186.1 60.968c.72 2.145 1.178 3.925 1.023 3.977-.155.053-.864-1.643-1.585-3.788-.72-2.144-1.134-3.97-.979-4.022.155-.052.82 1.69 1.54 3.834"/>
            <path fill="#B7C1C5" d="M192.404 50.055c1.488-.774 1.559-2.106 1.27-3.809-1.311.48-2.345 1.128-3.195 1.904.26 1.514.649 2.57 1.925 1.905M200.485 48.493c-1.669-.163-2.23-1.373-2.598-3.061 1.396-.044 2.596.173 3.674.576.323 1.502.356 2.625-1.076 2.485"/>
            <path fill="#355360" d="M199.471 65.666a2.24 2.24 0 0 1-1.745-.39l-.195-.143a.411.411 0 0 1-.09-.575c.134-.184 3.27-.796 3.47-.685.198.11.27.361.16.56l-.068.122a2.237 2.237 0 0 1-1.476 1.1l-.056.011"/>
            <path fill="#4DA1B7" d="M202.23 166.71h-8.156a6.563 6.563 0 1 0-.614 13.097c-.857 1.382-2.36 4.563-2.36 4.563l7.552-4.532h3.577a6.564 6.564 0 0 0 0-13.128"/>
            <path fill="#FEFEFE" d="M201.652 165.701h-8.155a6.563 6.563 0 1 0-.614 13.097c-.857 1.382-2.36 4.563-2.36 4.563l7.552-4.532h3.577a6.564 6.564 0 0 0 0-13.128"/>
            <path fill="#1A6A8C" d="M51.165 213.372a2.909 2.909 0 0 1-2.796-2.128h-2.994a5.838 5.838 0 0 0 5.79 5.06 5.846 5.846 0 0 0 5.789-5.06h-2.995a2.908 2.908 0 0 1-2.794 2.128"/>
            <path fill="#FEFEFE" d="M51.165 213.372a2.907 2.907 0 0 0 2.794-2.128h-5.59a2.909 2.909 0 0 0 2.796 2.128"/>
            <path fill="#A8DBD6" d="M51.63 215.597"/>
            <path fill="#FEFEFE" d="M51.163 226.64v.003l.114.192 1.724-3.008 5.106-8.91c.413-.641.74-1.342.964-2.088l.003-.01a8.12 8.12 0 0 0 .303-1.575h-1.4a6.86 6.86 0 0 1-6.813 6.074 6.861 6.861 0 0 1-6.815-6.074H42.95a8.19 8.19 0 0 0 1.27 3.672l6.943 11.725z"/>
            <path fill="#A8DBD6" d="M52.199 214.968"/>
            <path fill="#4DA1B7" d="M51.165 216.304a5.825 5.825 0 0 1-3.721-1.336 5.838 5.838 0 0 1-2.07-3.724H44.35a6.862 6.862 0 0 0 6.815 6.074 6.86 6.86 0 0 0 6.813-6.074h-1.024a5.846 5.846 0 0 1-5.79 5.06"/>
        </g>
        <g mask="url(#b)">
            <path fill="#E6E9E9" d="M182.775 157.68a48.38 48.38 0 0 0 1.414-.851c7.059-4.417 11.693-9.823 12.198-10.425L183.456 135.6c-.103.12-12.45 14.144-22.507 9.126-9.728-4.852-11.022-22.037-10.707-27.676l-16.84-.932c-.075 1.338-1.576 32.895 20.004 43.66 9.068 4.523 19.194 3.79 29.37-2.099"/>
            <path fill="#B7C1C5" d="M154.295 137.682c1.263 2.413 2.888 4.531 4.974 6.028-5.226 2.849-8.562 8.626-8.598 14.496-3.742-2.394-6.67-5.47-8.977-8.86 1.602-5.883 5.655-10.667 12.6-11.664M170.677 144.83c6.891-2.54 12.708-9.147 12.779-9.229l12.931 10.802c-.505.603-5.139 6.01-12.198 10.426-.471.295-.942.578-1.414.851-2.68 1.552-5.357 2.735-8.013 3.569-3.706-4.936-6.026-10.733-4.085-16.42"/>
            <path fill="#D6D3D3" d="M135.688 135.954c1.942 3.74 4.292 7.25 6.996 10.31 1.496 2.237 3.245 4.298 5.499 6.009 14.673 12.543 35.266 5.276 46.025-7.69l2.18 1.82c-.505.602-5.14 6.01-12.199 10.425-.471.295-.942.58-1.413.852-10.176 5.889-20.302 6.621-29.37 2.099-10.205-5.09-15.245-14.83-17.718-23.825"/>
            <path fill="#898C8E" d="M141.693 149.345c.28-1.026.64-2.016 1.07-2.962 1.48 2.193 3.207 4.21 5.42 5.89a28.344 28.344 0 0 0 2.961 2.214 16.075 16.075 0 0 0-.472 3.72c-3.744-2.395-6.671-5.471-8.979-8.862M194.208 144.583l2.18 1.82c-.506.603-5.14 6.01-12.199 10.426a48.38 48.38 0 0 1-1.413.851c-2.682 1.552-5.358 2.735-8.014 3.569a30.471 30.471 0 0 1-2.138-3.256c8.343-1.86 16.196-6.917 21.584-13.41"/>
            <path fill="#E6E9E9" d="M187.343 147.5c5.336 4.448 16.055.15 22.14-8.19 3.241-4.444.261-7.684.029-8.874-.44-2.254-2.977-3.597-5.792-.825-3.477 3.423-9.64 5.25-10.336 4.163-.696-1.087 3.915-7.26 1.5-8.878-3.369-2.258-4.312 1.594-8.66 6.484-5.095 5.733-4.384 11.534 1.119 16.12"/>
            <path fill="#D6D3D3" d="M210.382 137.783c-.224.492-.515 1-.9 1.528-4.917 6.739-13.405 11.38-19.466 9.599 7.006-3.457 22.479-9.456 19.642-18.06.492.048 2.318 4.267.724 6.933"/>
            <path fill="#E6E9E9" d="M38.848 157.68a48.38 48.38 0 0 1-1.414-.851c-7.058-4.417-11.693-9.823-12.198-10.425L38.167 135.6c.104.12 12.45 14.144 22.509 9.126 9.726-4.852 11.02-22.037 10.706-27.676l16.84-.932c.074 1.338 1.575 32.895-20.004 43.66-9.069 4.523-19.194 3.79-29.37-2.099"/>
            <path fill="#B7C1C5" d="M67.329 137.682c-1.263 2.413-2.889 4.531-4.974 6.028 5.226 2.849 8.562 8.626 8.597 14.496 3.743-2.394 6.671-5.47 8.978-8.86-1.602-5.883-5.655-10.667-12.601-11.664M50.946 144.83c-6.89-2.54-12.708-9.147-12.779-9.229l-12.93 10.802c.504.603 5.139 6.01 12.197 10.426.472.295.943.578 1.414.851 2.681 1.552 5.358 2.735 8.013 3.569 3.706-4.936 6.027-10.733 4.085-16.42"/>
            <path fill="#D6D3D3" d="M85.936 135.954c-1.942 3.74-4.292 7.25-6.996 10.31-1.496 2.237-3.246 4.298-5.5 6.009-14.673 12.543-35.265 5.276-46.025-7.69l-2.179 1.82c.505.602 5.14 6.01 12.198 10.425.472.295.942.58 1.414.852 10.175 5.889 20.301 6.621 29.37 2.099 10.204-5.09 15.244-14.83 17.718-23.825"/>
            <path fill="#898C8E" d="M79.93 149.345a19.552 19.552 0 0 0-1.07-2.962c-1.479 2.193-3.206 4.21-5.42 5.89a28.244 28.244 0 0 1-2.96 2.214c.296 1.218.465 2.465.472 3.72 3.743-2.395 6.671-5.471 8.978-8.862M27.415 144.583l-2.179 1.82c.505.603 5.14 6.01 12.198 10.426.472.295.942.578 1.414.851 2.681 1.552 5.358 2.735 8.013 3.569A30.471 30.471 0 0 0 49 157.993c-8.343-1.86-16.196-6.917-21.585-13.41"/>
            <path fill="#E6E9E9" d="M34.28 147.5c-5.335 4.448-16.055.15-22.139-8.19-3.241-4.444-.261-7.684-.03-8.874.44-2.254 2.978-3.597 5.793-.825 3.476 3.423 9.64 5.25 10.336 4.163.695-1.087-3.915-7.26-1.501-8.878 3.37-2.258 4.313 1.594 8.66 6.484 5.096 5.733 4.385 11.534-1.118 16.12"/>
            <path fill="#D6D3D3" d="M11.241 137.783c.225.492.516 1 .9 1.528 4.917 6.739 13.405 11.38 19.466 9.599-7.006-3.457-22.478-9.456-19.641-18.06-.493.048-2.319 4.267-.725 6.933"/>
            <path fill="#E6E9E9" d="M145.639 284.37c-18.772-13.863-11.66-40.794-9.826-53.473 1.718-11.867 3.581-23.71 4.085-32.73a29.4 29.4 0 0 0 .347-4.51c0-16.17-13.137-29.278-29.344-29.278-13.497 0-24.86 9.096-28.283 21.477-.006.018-.015.034-.021.052-.25.766-.441 1.65-.585 2.629a29.385 29.385 0 0 0-.456 5.12c0 1.16.076 2.304.207 3.43.408 9.141 2.354 21.464 4.141 33.81 1.835 12.679 8.945 39.61-9.825 53.472-15.562 11.492-20.108 21.369-13.652 28.824 7.206 8.32 29.512.036 47.906.552v.032c.175-.008.351-.01.526-.016.174.006.351.008.525.016v-.032c18.394-.516 40.7 7.767 47.906-.552 6.456-7.455 1.91-17.332-13.651-28.824"/>
            <path fill="#B7C1C5" d="M111.259 196.247c13.062.187 20.126-11.246 23.537-19.574-5.322-7.44-14.038-12.294-23.895-12.294-9.557 0-18.038 4.563-23.394 11.62 3.324 8.238 10.408 20.057 23.752 20.248"/>
            <path fill="#E6E9E9" d="M137.497 150.72c0 13.079-11.748 23.68-26.239 23.68-14.49 0-26.237-10.601-26.237-23.68 0-13.08 11.747-23.682 26.237-23.682 14.491 0 26.239 10.603 26.239 23.682"/>
            <path fill="#D6D4D3" d="M111.384 158.958c10.358.25 17.786 2.26 22.344 3.994 2.392-3.57 3.77-7.756 3.77-12.232 0-13.08-11.748-23.682-26.24-23.682-14.49 0-26.238 10.603-26.238 23.682 0 4.232 1.237 8.203 3.393 11.64 3.892-1.596 11.288-3.685 22.97-3.402"/>
            <path fill="#B4B3B4" d="M99.49 105.649h23.788V92.832H99.49z"/>
            <path fill="#E6E9E9" d="M154.606 47.959c-.603-3.404-8.368-6.103-12.144-11.397-7.283-10.212-14.754-18.463-31.712-18.463-16.956 0-24.429 8.25-31.71 18.463-3.777 5.294-11.542 7.993-12.145 11.397-.602 3.405 1.161 23.008 3.513 26.45 3.01 4.405 6.125.873 14.652 12.216 6.623 8.81 14.852 11.814 25.69 11.814 10.839 0 19.067-3.004 25.69-11.814 8.527-11.343 11.641-7.81 14.652-12.216 2.353-3.442 4.116-23.045 3.514-26.45"/>
            <path fill="#D6D3D3" d="M142.312 75.36c-5.87 4.206-12.344 18.158-29.655 18.158-18.966 0-26.944-13.427-32.816-18.007-2.414-1.885-7.234-3.375-10.608-4.249.367 1.429.762 2.542 1.176 3.147 3.01 4.406 6.125.873 14.65 12.215 6.624 8.812 14.854 11.815 25.691 11.815 10.838 0 19.068-3.003 25.691-11.815 8.526-11.342 11.64-7.81 14.651-12.215.376-.549.734-1.51 1.072-2.748-3.549.748-7.354 1.91-9.852 3.7"/>
            <path fill="#36ADD3" d="M150.612 60.466c-.968 7.207-1.328 13.106-.807 13.176.522.07 1.73-5.716 2.697-12.924.967-7.207 1.157-13.223.636-13.292-.522-.071-1.558 5.832-2.526 13.04M70.852 60.466c.968 7.207 1.328 13.106.807 13.176-.522.07-1.73-5.716-2.697-12.924-.967-7.207-1.157-13.223-.636-13.292.522-.071 1.558 5.832 2.526 13.04"/>
            <path fill="#395663" d="M141.315 154.806H80.487c-5.918 0-10.717-4.787-10.717-10.692V111.03c0-5.905 4.799-10.693 10.717-10.693h60.828c5.92 0 10.717 4.788 10.717 10.693v33.084c0 5.905-4.798 10.692-10.717 10.692"/>
            <path fill="#A8DBD6" d="M142.506 148.89h-63.21a3.213 3.213 0 0 1-3.217-3.209v-36.218c0-1.773 1.44-3.21 3.217-3.21h63.21a3.213 3.213 0 0 1 3.217 3.21v36.218c0 1.772-1.44 3.21-3.217 3.21"/>
            <path fill="#B7C1C5" d="M98.173 35.464c5.18-1.534 5.512-11.289 5.64-16.839-4.442.715-8.107 2.129-11.271 4.059-.102 4.938 1.188 14.096 5.63 12.78M123.278 35.335c-5.18-1.534-5.512-11.16-5.64-16.71 4.441.715 8.107 2.13 11.271 4.059.101 4.938-1.188 13.966-5.63 12.651"/>
            <path fill="#A8DBD6" d="M103.324 73.811c3.05-2.319 2.065-11.013-1.405-15.019-2.816-3.25-8.806-3.544-11.96.062-4.717 5.393-4.754 14.223-1.496 16.182 2.717 1.635 11.85 1.064 14.861-1.225"/>
            <path fill="#395663" d="M101.518 64.832c0 3.705-2.74 6.709-6.121 6.709-3.381 0-6.122-3.004-6.122-6.709 0-3.704 2.74-6.708 6.122-6.708 3.38 0 6.121 3.004 6.121 6.708"/>
            <path fill="#FEFEFE" d="M94.766 62.292c0 1.077-.875 1.95-1.954 1.95a1.951 1.951 0 0 1-1.954-1.95c0-1.077.874-1.95 1.954-1.95 1.079 0 1.954.873 1.954 1.95"/>
            <path fill="#395663" d="M112.657 46.527c0 .967-.786 1.752-1.756 1.752s-1.757-.785-1.757-1.752c0-.968.787-1.753 1.757-1.753.97 0 1.756.785 1.756 1.753"/>
            <path fill="#355360" d="M107.214 85.875h7.287c.557 0 .84.662.458 1.067-.765.81-2.095 1.786-4.058 1.786-2.145 0-3.45-.989-4.16-1.802a.631.631 0 0 1 .473-1.05"/>
            <path fill="#A8DBD6" d="M118.223 73.811c-3.05-2.319-2.065-11.013 1.405-15.019 2.816-3.25 8.806-3.544 11.96.062 4.717 5.393 4.754 14.223 1.496 16.182-2.717 1.635-11.85 1.064-14.861-1.225"/>
            <path fill="#395663" d="M120.029 64.832c0 3.705 2.74 6.709 6.122 6.709 3.38 0 6.121-3.004 6.121-6.709 0-3.704-2.74-6.708-6.121-6.708-3.381 0-6.122 3.004-6.122 6.708"/>
            <path fill="#FEFEFE" d="M126.781 62.292c0 1.077.875 1.95 1.954 1.95 1.08 0 1.954-.873 1.954-1.95s-.874-1.95-1.954-1.95-1.954.873-1.954 1.95"/>
            <path fill="#F26D21" d="M111.918 116.15c0-.65.23-1.167.691-1.549.46-.38 1.051-.571 1.771-.571.764 0 1.366.19 1.805.571.438.382.658.898.658 1.549 0 .651-.22 1.166-.658 1.548-.439.381-1.041.573-1.805.573-.72 0-1.31-.192-1.77-.573-.462-.382-.692-.897-.692-1.548zm6.78 23.12h-8.534v-1.682h2.496v-14.303h-2.496v-1.683h6.037v15.986h2.496v1.683z"/>
            <path fill="#395663" d="M109.107 116.15c0-.65.23-1.167.691-1.549.46-.38 1.051-.571 1.77-.571.765 0 1.367.19 1.806.571.438.382.658.898.658 1.549 0 .651-.22 1.166-.658 1.548-.44.381-1.041.573-1.805.573-.72 0-1.31-.192-1.77-.573-.462-.382-.692-.897-.692-1.548zm6.78 23.12h-8.534v-1.682h2.496v-14.303h-2.496v-1.683h6.037v15.986h2.497v1.683z"/>
            <path fill="#395663" d="M111.57 114.705c-.563 0-1.001.137-1.338.416-.306.254-.447.58-.447 1.028 0 .45.141.776.447 1.03.693.575 2.094.534 2.697.01.29-.253.426-.585.426-1.04 0-.455-.136-.785-.428-1.039-.308-.268-.765-.405-1.358-.405zm0 4.241c-.88 0-1.62-.244-2.203-.727-.622-.515-.937-1.212-.937-2.07 0-.845.324-1.56.937-2.067.583-.484 1.324-.728 2.202-.728.929 0 1.685.248 2.249.738.593.516.892 1.208.892 2.057 0 .852-.3 1.543-.891 2.06-.565.489-1.321.737-2.25.737zm-3.54 19.649h7.18v-.33h-2.496v-15.988h-4.684v.333h2.496v15.654h-2.496v.331zm8.534 1.351h-9.889v-3.034h2.496v-12.95h-2.496v-3.037h7.393v15.987h2.496v3.034z"/>
        </g>
    </g>
</svg>
