<svg xmlns="http://www.w3.org/2000/svg" xmlns:xlink="http://www.w3.org/1999/xlink" width="220" height="220" viewBox="0 0 220 220">
    <defs>
        <path id="a" d="M220 110c0 60.752-49.248 110-110 110C49.25 220 0 170.752 0 110S49.25 0 110 0c60.752 0 110 49.248 110 110"/>
    </defs>
    <g fill="none" fill-rule="evenodd">
        <mask id="b" fill="#fff">
            <use xlink:href="#a"/>
        </mask>
        <use fill="#5873BB" xlink:href="#a"/>
        <g mask="url(#b)" opacity=".2">
            <path fill="#E6E9E9" d="M103.033 135.642c.286-1.037-1.53-2.83-1.882-4.821-.678-3.84-1.67-7.154-6.425-9.413-4.753-2.26-7.95-.937-11.356.962-1.765.985-4.303.708-4.926 1.584-.624.877-2.748 6.62-2.548 7.901.256 1.639 1.601 1.061 2.476 5.384.68 3.358 2.586 5.299 5.625 6.743 3.038 1.444 5.746 1.697 8.78.104 3.905-2.051 4.306-.643 5.738-1.48 1.12-.654 4.232-5.927 4.518-6.964"/>
            <path fill="#A8DBD6" d="M85.953 134.496c1.165-.245 2.05-2.82 1.612-4.407-.355-1.289-1.996-2.169-3.36-1.576-2.044.886-3.233 3.362-2.582 4.347.544.822 3.18 1.878 4.33 1.636"/>
            <path fill="#395663" d="M86.396 132.258c-.495 1.041-1.664 1.52-2.612 1.07-.948-.45-1.315-1.66-.82-2.702.494-1.04 1.664-1.519 2.612-1.069.948.451 1.315 1.66.82 2.701"/>
            <path fill="#FEFEFE" d="M84.843 130.645a.606.606 0 1 1-1.095-.52.606.606 0 0 1 1.095.52"/>
            <path fill="#395663" d="M92.214 128.074a.545.545 0 1 1-.258-.726.545.545 0 0 1 .258.726"/>
            <path fill="#A8DBD6" d="M90.13 136.482c-.545-1.058.892-3.37 2.4-4.033 1.224-.538 2.942.178 3.344 1.61.602 2.145-.566 4.63-1.741 4.748-.98.097-3.465-1.281-4.003-2.325"/>
            <path fill="#395663" d="M91.586 134.725c-.495 1.04-.128 2.25.82 2.7.948.45 2.118-.028 2.612-1.07.495-1.04.128-2.25-.82-2.7-.948-.45-2.117.029-2.612 1.07"/>
            <path fill="#FEFEFE" d="M93.818 134.91a.606.606 0 1 0 1.095.522.606.606 0 0 0-1.095-.521"/>
            <path fill="#36ADD3" d="M100.243 138.624c-1.234 1.896-2.123 3.506-1.986 3.595.137.089 1.248-1.376 2.482-3.272 1.234-1.896 2.091-3.561 1.954-3.65-.137-.09-1.216 1.43-2.45 3.327M77.883 127.996c-.691 2.154-1.378 3.86-1.533 3.81-.156-.05.278-1.837.969-3.991.692-2.154 1.442-3.87 1.598-3.82.155.05-.343 1.847-1.034 4"/>
            <path fill="#B7C1C5" d="M89.43 122.946c1.658.258 2.505-.773 3.282-2.315-1.34-.39-2.557-.482-3.702-.362-.688 1.374-1 2.454.42 2.677M96.864 126.479c-1.246-1.121-.982-2.43-.276-4.005 1.149.792 1.988 1.678 2.617 2.642-.63 1.4-1.27 2.325-2.34 1.363"/>
            <path fill="#355360" d="M85.866 139.707a2.237 2.237 0 0 1-1.174-1.348l-.073-.231a.413.413 0 0 1 .269-.517c.217-.068 3.106 1.299 3.2 1.506a.41.41 0 0 1-.203.545l-.127.059a2.24 2.24 0 0 1-1.84.01l-.052-.024"/>
            <path fill="#FEFEFE" d="M24.625 67.106a.942.942 0 0 0-.922-.922h-.922a.933.933 0 0 0-.922.922v.334h2.766v-.334zm14.413.668a1.56 1.56 0 0 1-.748-.749l-.254-.334c-.33-.507-1.012-.92-1.587-.92h-3.687c-.588 0-1.35.413-1.684.92l-.253.334c-.16.335-.508.59-.829.75h-8.23c-.669 0-1.256.587-1.256 1.35v10.634c0 .668.587 1.256 1.256 1.256h18.702c.668 0 1.35-.588 1.35-1.256V69.124c0-.762-.682-1.35-1.35-1.35h-1.43zm-3.256 6.614c0-2.592-2.098-4.597-4.624-4.597-2.592 0-4.689 2.005-4.689 4.597a4.69 4.69 0 0 0 4.69 4.703c2.525 0 4.623-2.098 4.623-4.703zm.668-4.008h2.682v-1.256H36.45v1.256z"/>
            <path fill="#4DA1B7" d="M90.3 25.508a6.836 6.836 0 0 1-2.777-.578l.886-2.015c2.233.982 4.436-.211 4.458-.223l1.082 1.918c-.09.05-1.616.898-3.65.898M86.028 23.864c-2.421-2.618-1.816-6.036-1.789-6.18l2.165.398c-.005.025-.416 2.496 1.241 4.287l-1.617 1.495z"/>
            <path fill="#4DA1B7" d="M91.16 18.39l.07-.097-.16-.04-.09-.138-.069.098-5.469-1.371 1.98 4.979-7.857 11.265a.517.517 0 0 0 .124.717l.384.274a.517.517 0 0 0 .718-.116l8.093-11.096 5.352.25-3.077-4.725z"/>
            <path fill="#FEFEFE" d="M102.79 19.466c2.871-5.506-1.519-10.34-3.55-12.05l.02-.026-.586-.418-.019.027c-2.277-1.363-8.277-3.94-12.548.568-3.58 3.778-2.014 9.037-2.014 9.037s3.717.434 6.542 2.259c2.644 2.076 4.265 5.449 4.265 5.449s5.483-.232 7.89-4.846"/>
            <path fill="#1A6A8C" d="M31.165 164.609a5.828 5.828 0 0 0-3.721 1.335 5.837 5.837 0 0 0-2.13 4.513c0 .268.026.529.06.787h2.994a2.882 2.882 0 0 1-.121-.787 2.918 2.918 0 0 1 5.834 0c0 .275-.05.535-.121.787h2.994a5.83 5.83 0 0 0 .059-.787 5.848 5.848 0 0 0-5.848-5.848"/>
            <path fill="#FEFEFE" d="M34.081 170.457a2.917 2.917 0 0 0-5.834 0c0 .274.05.535.121.787h5.592c.071-.252.121-.513.121-.787"/>
            <path fill="#A8DBD6" d="M30.698 165.944"/>
            <path fill="#FEFEFE" d="M31.164 162.201a8.256 8.256 0 0 0-8.256 8.256c0 .266.017.527.042.786h1.399a6.797 6.797 0 0 1-.049-.786 6.862 6.862 0 0 1 6.864-6.862 6.861 6.861 0 0 1 6.862 6.862c0 .266-.019.528-.048.786h1.4c.025-.259.042-.52.042-.786a8.257 8.257 0 0 0-8.256-8.256"/>
            <path fill="#A8DBD6" d="M30.1 170.457a5.843 5.843 0 0 1 0 0"/>
            <path fill="#4DA1B7" d="M25.315 170.457a5.837 5.837 0 0 1 3.062-5.143 5.821 5.821 0 0 1 2.788-.705 5.848 5.848 0 0 1 5.848 5.848c0 .267-.024.53-.059.787h1.025a7.06 7.06 0 0 0 .048-.787 6.862 6.862 0 0 0-6.862-6.862 6.862 6.862 0 0 0-6.864 6.862c0 .266.019.528.048.787h1.025a5.843 5.843 0 0 1-.059-.787M34.43 74.418a3.285 3.285 0 1 1-6.57-.001 3.285 3.285 0 0 1 6.57 0"/>
            <path fill="#E6E9E9" d="M190.886 12.214c-.385-1.004-2.911-1.37-4.374-2.766-2.823-2.69-5.587-4.77-10.755-3.77-5.167.998-6.957 3.958-8.574 7.507-.838 1.84-3.045 3.121-3.028 4.196.018 1.076 1.713 6.96 2.633 7.873 1.178 1.168 1.918-.095 5.186 2.868 2.539 2.301 5.224 2.733 8.527 2.095 3.304-.639 5.634-2.04 7.132-5.123 1.929-3.966 3.087-3.07 3.744-4.594.514-1.19-.107-7.282-.491-8.286"/>
            <path fill="#A8DBD6" d="M176.452 21.418c.793-.888-.02-3.486-1.315-4.505-1.05-.827-2.893-.563-3.64.724-1.12 1.925-.61 4.624.498 5.031.925.34 3.675-.374 4.457-1.25"/>
            <path fill="#395663" d="M175.482 19.353c.22 1.132-.439 2.211-1.469 2.41-1.03.2-2.043-.557-2.262-1.689-.219-1.13.44-2.21 1.47-2.409 1.03-.2 2.042.556 2.261 1.688"/>
            <path fill="#FEFEFE" d="M173.274 18.975a.607.607 0 1 1-1.192.23.607.607 0 0 1 1.192-.23"/>
            <path fill="#395663" d="M177.685 12.535a.545.545 0 1 1-1.07.207.545.545 0 0 1 1.07-.207"/>
            <path fill="#A8DBD6" d="M180.993 20.54c-1.066-.528-1.28-3.242-.46-4.67.668-1.158 2.476-1.601 3.65-.685 1.756 1.369 2.289 4.064 1.412 4.855-.732.659-3.55 1.023-4.602.5"/>
            <path fill="#395663" d="M181.124 18.263c.219 1.132 1.23 1.888 2.262 1.688 1.03-.2 1.688-1.278 1.469-2.41-.22-1.131-1.231-1.887-2.262-1.688-1.03.199-1.688 1.278-1.47 2.41"/>
            <path fill="#FEFEFE" d="M183.031 17.09a.606.606 0 1 0 1.191-.231.606.606 0 0 0-1.19.23"/>
            <path fill="#36ADD3" d="M190.407 16.27c.131 2.257.369 4.081.532 4.071.163-.009.189-1.848.059-4.106-.131-2.259-.428-4.107-.591-4.098-.163.01-.131 1.874 0 4.132M166.1 20.968c.72 2.146 1.178 3.926 1.023 3.978-.155.052-.864-1.645-1.585-3.79-.72-2.143-1.134-3.97-.979-4.021.155-.052.82 1.69 1.54 3.833"/>
            <path fill="#B7C1C5" d="M172.404 10.055c1.488-.774 1.559-2.106 1.27-3.809-1.311.48-2.345 1.128-3.195 1.904.26 1.514.649 2.57 1.925 1.905M180.485 8.493c-1.669-.163-2.23-1.373-2.598-3.061 1.396-.044 2.596.173 3.674.576.323 1.502.356 2.625-1.076 2.485"/>
            <path fill="#355360" d="M179.471 25.666a2.24 2.24 0 0 1-1.745-.39l-.195-.143a.411.411 0 0 1-.09-.575c.134-.184 3.27-.796 3.47-.685.198.11.27.361.16.56l-.068.122a2.237 2.237 0 0 1-1.476 1.1l-.056.011"/>
            <path fill="#4DA1B7" d="M182.23 126.71h-8.156a6.563 6.563 0 1 0-.614 13.097c-.857 1.382-2.36 4.563-2.36 4.563l7.552-4.532h3.577a6.564 6.564 0 0 0 0-13.128"/>
            <path fill="#FEFEFE" d="M181.652 125.701h-8.155a6.563 6.563 0 1 0-.614 13.097c-.857 1.382-2.36 4.563-2.36 4.563l7.552-4.532h3.577a6.564 6.564 0 0 0 0-13.128"/>
            <path fill="#1A6A8C" d="M31.165 173.372a2.909 2.909 0 0 1-2.796-2.128h-2.994a5.838 5.838 0 0 0 5.79 5.06 5.846 5.846 0 0 0 5.789-5.06h-2.995a2.908 2.908 0 0 1-2.794 2.128"/>
            <path fill="#FEFEFE" d="M31.165 173.372a2.907 2.907 0 0 0 2.794-2.128h-5.59a2.909 2.909 0 0 0 2.796 2.128"/>
            <path fill="#A8DBD6" d="M31.63 175.597"/>
            <path fill="#FEFEFE" d="M31.163 186.64v.003l.114.192 1.724-3.008 5.106-8.91c.413-.641.74-1.342.964-2.088l.003-.01a8.12 8.12 0 0 0 .303-1.575h-1.4a6.86 6.86 0 0 1-6.813 6.074 6.861 6.861 0 0 1-6.815-6.074H22.95a8.19 8.19 0 0 0 1.27 3.672l6.943 11.725z"/>
            <path fill="#A8DBD6" d="M32.199 174.968"/>
            <path fill="#4DA1B7" d="M31.165 176.304a5.825 5.825 0 0 1-3.721-1.336 5.838 5.838 0 0 1-2.07-3.724H24.35a6.862 6.862 0 0 0 6.815 6.074 6.86 6.86 0 0 0 6.813-6.074h-1.024a5.846 5.846 0 0 1-5.79 5.06"/>
        </g>
        <g mask="url(#b)">
            <path fill="#E6E9E9" d="M199.519 96.996a51.506 51.506 0 0 0-.494-1.658c-2.631-8.323-6.907-14.45-7.386-15.12l-14.382 10.264c.095.136 11.1 16.356 3.353 25.233-7.49 8.584-25.3 5.364-30.946 3.56l-5.38 16.83c1.342.429 33.02 10.274 49.64-8.772 6.984-8.004 8.904-18.465 5.595-30.337"/>
            <path fill="#B7C1C5" d="M171.699 120.604c2.785-.644 5.366-1.734 7.436-3.454 1.52 6.05 6.514 10.957 12.472 12.54-3.418 3.166-7.315 5.324-11.37 6.769-5.557-3.176-9.352-8.548-8.538-15.855M183.274 105.875c-.768-7.658-5.953-15.299-6.018-15.393l14.382-10.265c.48.671 4.756 6.797 7.387 15.12.177.556.34 1.108.493 1.658.873 3.128 1.371 6.155 1.52 9.068-5.993 2.456-12.495 3.281-17.764-.188"/>
            <path fill="#D6D3D3" d="M165.047 139.018c4.312-.983 8.497-2.44 12.319-4.376 2.669-.926 5.224-2.158 7.555-3.992 16.609-11.572 14.642-34.372 4.294-48.702l2.424-1.73c.479.67 4.755 6.797 7.386 15.119.176.557.34 1.108.494 1.659 3.309 11.872 1.389 22.334-5.595 30.337-7.86 9.006-19.083 11.549-28.877 11.685"/>
            <path fill="#898C8E" d="M180.238 136.459a20.52 20.52 0 0 1-2.729-1.866c2.617-.921 5.122-2.142 7.412-3.943a29.802 29.802 0 0 0 3.03-2.42 16.971 16.971 0 0 0 3.655 1.46c-3.417 3.166-7.315 5.324-11.368 6.769M189.215 81.948l2.424-1.73c.479.67 4.755 6.797 7.386 15.119.176.557.34 1.108.494 1.659.872 3.128 1.37 6.154 1.519 9.067a32.005 32.005 0 0 1-3.871 1.31c.303-8.951-2.77-18.248-7.952-25.425"/>
            <path fill="#E6E9E9" d="M155.41 306.445c-19.665-14.556-12.215-42.837-10.293-56.15 1.799-12.46 3.752-24.896 4.28-34.368.239-1.544.364-3.125.364-4.737 0-16.978-13.765-30.744-30.744-30.744-14.141 0-26.045 9.553-29.632 22.554-.006.018-.015.036-.022.054-.261.804-.462 1.732-.612 2.76a30.923 30.923 0 0 0-.478 5.376c0 1.22.079 2.42.217 3.602.427 9.6 2.467 22.54 4.338 35.502 1.922 13.314 9.372 41.595-10.294 56.15-16.303 12.067-21.066 22.438-14.302 30.267 7.549 8.736 30.919.037 50.19.58v.034c.182-.008.368-.01.55-.017.184.007.369.009.55.017v-.034c19.272-.543 42.642 8.156 50.19-.58 6.765-7.829 2.002-18.2-14.301-30.267"/>
            <path fill="#B7C1C5" d="M119.392 213.91c13.685.196 21.087-11.808 24.659-20.554-5.575-7.81-14.706-12.909-25.034-12.909-10.012 0-18.898 4.791-24.51 12.201 3.482 8.651 10.905 21.062 24.885 21.262"/>
            <path fill="#E6E9E9" d="M146.881 166.104c0 13.734-12.307 24.867-27.489 24.867s-27.489-11.133-27.489-24.867c0-13.734 12.307-24.867 27.49-24.867 15.181 0 27.488 11.133 27.488 24.867"/>
            <path fill="#D6D4D3" d="M119.523 174.755c10.852.263 18.634 2.373 23.41 4.194 2.505-3.75 3.948-8.145 3.948-12.846 0-13.733-12.307-24.867-27.489-24.867s-27.489 11.135-27.489 24.868c0 4.444 1.295 8.613 3.553 12.223 4.079-1.677 11.828-3.87 24.067-3.572"/>
            <path fill="#B4B3B4" d="M107.061 118.776h24.923v-13.458h-24.923z"/>
            <path fill="#E6E9E9" d="M69.096 60.61c1.151-3.443 8.313-6.987 11.884-12.802 6.886-11.215 19.035-21.17 36.8-20.944 14.203.181 21.156 6.264 29.494 16.447 4.324 5.28 7.736 7.888 8.607 11.411.871 3.524 1.401 24.12-.813 27.894-2.834 4.83-3.917 5.29-10.529 13.57-7.216 9.04-13.397 12.59-19.158 13.735-12.96 2.576-25.085-1.52-34.549-10.09-11.036-9.995-11.738-8.355-16.184-11.76-3.972-3.042-7.865-20.542-5.552-27.46"/>
            <path fill="#A8DBD6" d="M133.245 77.774c-3.423-2.103-3.31-11.29-.113-15.839 2.595-3.69 8.049-4.58 11.317-.763 3.425 3.998 4.21 12.655 2.367 14.815-2.59 3.034-10.192 3.863-13.571 1.787"/>
            <path fill="#395663" d="M132.458 70.443c.389 3.87 3.56 6.722 7.086 6.368 3.524-.355 6.066-3.78 5.677-7.651-.39-3.871-3.562-6.722-7.086-6.367-3.525.354-6.066 3.779-5.677 7.65M120.956 51.525a1.84 1.84 0 1 0 3.672-.25 1.84 1.84 0 0 0-3.672.25"/>
            <path fill="#A8DBD6" d="M115.425 78.772c3.023-2.646 1.376-11.685-2.536-15.635-3.175-3.206-9.457-3.088-12.497.913-4.547 5.984-3.958 15.237-.415 17.06 2.957 1.52 12.464.273 15.448-2.338"/>
            <path fill="#395663" d="M113.032 71.453c.263 3.881-2.388 7.221-5.922 7.461-3.534.24-6.612-2.711-6.875-6.593-.264-3.881 2.388-7.222 5.921-7.462 3.534-.24 6.613 2.712 6.876 6.594"/>
            <path fill="#FEFEFE" d="M105.793 69.27a2.047 2.047 0 1 1-4.085.277 2.047 2.047 0 0 1 4.085-.277M138.596 66.027a2.047 2.047 0 1 1-4.074.41 2.047 2.047 0 0 1 4.075-.41"/>
            <path fill="#D6D3D3" d="M83.895 88.445c6.435 3.99 22.065 16.127 40.476 13.402 15.049-2.227 19.022-12.459 24.833-17.674 2.39-2.146 3.405-3.784 6.87-4.938-.283 1.523-.616 2.717-1.006 3.381-2.834 4.828-4.136 4.79-10.53 13.57-6.806 9.35-13.366 12.75-19.156 13.735-11.802 2.006-22.594.032-34.55-10.09-8.935-7.566-12.723-7.358-16.183-11.76-.431-.548-.875-1.529-1.316-2.802 3.763.53 7.824 1.478 10.562 3.176"/>
            <path fill="#36ADD3" d="M78.946 72.854c2.434 11.193-.538 13.953-1.286 14.105-.748.153-3.934-5.65-5.458-13.131-1.524-7.482-.564-13.961.184-14.113.748-.152 4.113 1.885 6.56 13.139"/>
            <path fill="#B7C1C5" d="M132.791 38.205c-3.353-.844-4.594-3.823-6.228-10.29 4.402 1.424 6.246 2.061 9.752 4.69 1.033 4.348-.978 6.241-3.524 5.6M109.885 38.628c-3.82 1.334-8.342-1.964-10.787-7.697 3.745-1.83 7.922-3.135 12.54-3.721 1.828 5.84 1.953 10.124-1.753 11.418"/>
            <path fill="#E6E9E9" d="M173.82 73.314c2.415-7.392 7.145-17.304 9.077-16.967 4.408.766-.785 12.89-.785 12.89s.078-.002.209 0c-.112.181.113-.182 0 0-2.918.988-6.208 2.141-8.501 4.077M182.883 69.169s2.621-8.376 5.885-9.918c2.293-1.085 4.862-1.458 5.988-.29 4.833 5.01-6.219 19.133-6.219 19.133l-5.654-8.925z"/>
            <path fill="#E6E9E9" d="M191.311 80.632s12.091-7.723 10.62-11.407c-1.474-3.684-12.027 5.921-12.027 5.921l1.407 5.486zM174.523 77.76c.03-1.281-2.632-9.194-5.862-7.174-4.523 2.829 4.665 16.176 4.665 16.176l1.197-9.001z"/>
            <path fill="#D6D3D3" d="M182.321 69.238c-.112.18-6.355.564-8.5 4.077-.7 2.142-1.207 4.07-1.39 5.464a18.031 18.031 0 0 0-.082 3.83c.377 4.369 2.32 10.399 9.357 10.594 5.403.149 8.68-2.72 10.34-5.58.826-1.42 1.302-3.075 1.53-4.834a20.19 20.19 0 0 0 .159-1.94c.378-10.983-9.84-11.584-11.414-11.611"/>
            <path fill="#E6E9E9" d="M173.448 74.508c-.503 1.657-.869 3.143-1.017 4.27a18.026 18.026 0 0 0-.082 3.832c.377 4.368 2.321 10.398 9.356 10.593 1.98.055 3.67-.298 5.103-.904.277-.42.447-.92.447-1.563.884-7.953-10.16-9.545-13.807-16.228"/>
            <path fill="#355360" d="M124.304 94.344c-2.14 0-4.295-.617-6.186-1.897l-.725-.49a1.28 1.28 0 0 1 1.435-2.119l.725.491c3.713 2.515 8.766 1.702 11.5-1.854l.37-.48a1.278 1.278 0 1 1 2.029 1.558l-.37.482a11.059 11.059 0 0 1-8.778 4.31"/>
            <path fill="#898C8E" d="M51.17 138.752c1.115.085 2.206.26 3.266.517-1.97 1.954-3.71 4.13-5.007 6.738a29.815 29.815 0 0 0-1.702 3.485 17.008 17.008 0 0 0-3.928.246c1.732-4.323 4.329-7.943 7.372-10.986"/>
            <path fill="#E6E9E9" d="M34.092 118.254s-5.154 20.616 2.44 29.025c7.597 8.41 22.245 6.24 40.69-3.526 18.447-9.766 3.528-21.973 3.528-21.973s-.535-1.32-.863-1.166c-8.494 3.99-28.548 12.798-28.548 12.798l-.68-16.788-8.7-5.423-7.867 7.053z"/>
            <path fill="#BEC7C9" d="M50.849 122.875l-.188-6.251-8.702-5.423-7.867 7.053s-.693 3.641-1.041 5.57c6.216 4.193 14.377 2.837 17.798-.949"/>
            <path fill="#898C8E" d="M56.438 131.126l-4.571 2.05c-1.555 7.947-7.343 16.572-15.291 14.145 4.332 4.76 10.947 6.091 19.235 4.565 3.063-6.17 3.279-14.029.627-20.76"/>
            <path fill="#D6D4D3" d="M50.588 105.592s6.677 9.236-3.798 15.191c-9.57 5.44-22.573-8.017-21.91-19.12.401-6.734 9.236-12.798 13.563-6.51 0 0-1.427-5.426 2.135-6.24 3.562-.814 7.569 8.812 10.01 16.68"/>
            <path fill="#D3D2D3" d="M45.66 146.124l-5.245 4.196c8.19 4.523 21.116 1.74 36.808-6.567 7.128-3.773 9.264-7.91 9.214-11.566-3.496 5.325-29.556 24.585-40.777 13.937"/>
            <path fill="#898C8E" d="M45.178 145.47c-2.402 1.95-5.313 2.855-8.602 1.85 4.332 4.76 10.947 6.092 19.235 4.566.411-.828.762-1.69 1.07-2.573-4.683 1-8.855.261-11.703-3.843"/>
            <path fill="#BEC7C9" d="M56.438 131.126l-4.571 2.05c-.912 4.658-3.286 9.532-6.69 12.294 2.849 4.105 7.022 4.843 11.704 3.843 1.99-5.69 1.853-12.359-.443-18.187"/>
            <path fill="#395663" d="M150.882 170.395h-63.73c-6.2 0-11.227-5.026-11.227-11.227v-34.741c0-6.201 5.026-11.227 11.227-11.227h63.73c6.2 0 11.227 5.026 11.227 11.227v34.74c0 6.202-5.027 11.228-11.227 11.228"/>
            <path fill="#A8DBD6" d="M152.13 164.183H85.905a3.37 3.37 0 0 1-3.371-3.37v-38.032a3.37 3.37 0 0 1 3.37-3.37h66.226a3.37 3.37 0 0 1 3.37 3.37v38.032a3.37 3.37 0 0 1-3.37 3.37"/>
            <path fill="#395663" d="M108.126 130.369c0-.875-.757-1.632-1.632-1.632h-1.63a1.65 1.65 0 0 0-1.633 1.632v.591h4.895v-.591zm25.51 1.182a2.773 2.773 0 0 1-1.325-1.325l-.449-.591c-.586-.898-1.79-1.631-2.808-1.631h-6.527c-1.04 0-2.388.733-2.98 1.631l-.449.591c-.283.592-.898 1.041-1.466 1.325h-14.567c-1.182 0-2.223 1.041-2.223 2.389v18.823c0 1.183 1.041 2.223 2.223 2.223h33.101c1.182 0 2.39-1.04 2.39-2.223V133.94c0-1.348-1.208-2.389-2.39-2.389h-2.53zm-8.153 11.706c0 3.287-2.672 5.935-5.794 5.935a5.939 5.939 0 0 1-5.935-5.935c0-3.24 2.672-5.913 5.935-5.913 3.122 0 5.794 2.673 5.794 5.913zm2.39 0c0-4.588-3.714-8.135-8.184-8.135-4.587 0-8.3 3.547-8.3 8.135 0 4.611 3.713 8.323 8.3 8.323 4.47 0 8.183-3.712 8.183-8.323zm1.181-7.094h4.747v-2.223h-4.747v2.223z"/>
            <path fill="#E6E9E9" d="M48.124 98.62c-2.26-5.59-5.015-10.285-7.546-9.707-3.562.815-2.135 6.24-2.135 6.24-4.204-6.379-13.565-1.146-13.563 6.51 0 2.983.82 6.13 2.297 9.037.023-.11.04-.22.068-.332 1.84-8.278 12.3-15.695 20.879-11.748M45.88 118.898c-2.239-.867-3.988-5.131-1.552-9.473 2.436-4.342 5.773-13.914 9.258-13.914 3.486 0 .877 26.713-7.707 23.387"/>
            <path fill="#E6E9E9" d="M28.307 107.348s6.463 2.409 10.463-2.03c2.575-2.858 4.142-8.303 3.18-9.807-.963-1.503-10.125.884-11.434 4.272-1.309 3.387-2.209 7.565-2.209 7.565"/>
        </g>
    </g>
</svg>
