<?xml version="1.0" encoding="UTF-8" standalone="no"?>
<svg width="33px" height="33px" viewBox="0 0 33 33" version="1.1" xmlns="http://www.w3.org/2000/svg" xmlns:xlink="http://www.w3.org/1999/xlink">
    <!-- Generator: Sketch 45.2 (43514) - http://www.bohemiancoding.com/sketch -->
    <title>Twitter-hover</title>
    <desc>Created with Sketch.</desc>
    <defs></defs>
    <g id="Symbols" stroke="none" stroke-width="1" fill="none" fill-rule="evenodd">
        <g id="Footer" transform="translate(-993.000000, -384.000000)">
            <g id="Social-Icons">
                <g transform="translate(993.000000, 384.000000)">
                    <g id="Icons">
                        <g id="Twitter-hover">
                            <circle id="Oval-2-Copy-3" fill="#FFD25D" cx="16.5" cy="16.5" r="16.5"></circle>
                            <path d="M23.0927245,13.0490994 C22.6023482,13.2665797 22.0711944,13.417143 21.5159923,13.4830144 C22.0837413,13.1432014 22.5166108,12.6047286 22.7246809,11.9627434 C22.1935271,12.2774625 21.605912,12.5064442 20.9764738,12.6287769 C20.4787785,12.097623 19.7636029,11.763038 18.9752368,11.763038 C17.4601937,11.763038 16.2305935,12.9926381 16.2305935,14.5076812 C16.2305935,14.724116 16.2556874,14.9321861 16.3006473,15.1329371 C14.0171041,15.0179235 11.996001,13.9273852 10.6398859,12.2649156 C10.4025396,12.6695544 10.26766,13.1432014 10.26766,13.6461246 C10.26766,14.597601 10.7538539,15.4392916 11.4888955,15.9286223 C11.0392968,15.9171209 10.6189743,15.7906059 10.247794,15.5856725 L10.247794,15.6191311 C10.247794,16.9501523 11.195088,18.0605566 12.4487365,18.3146321 C12.2197548,18.3752757 11.9750895,18.4076886 11.7262418,18.4076886 C11.5505847,18.4076886 11.3791098,18.3920049 11.2076349,18.359592 C11.5589493,19.4501303 12.5710692,20.2416331 13.7724387,20.266727 C12.8324638,21.0017686 11.6478234,21.4388204 10.361762,21.4388204 C10.141145,21.4388204 9.92471026,21.4262734 9.70827553,21.4022251 C10.9253288,22.1822266 12.3671814,22.634962 13.9188197,22.634962 C18.9668722,22.634962 21.7282447,18.4526485 21.7282447,14.8265826 L21.71988,14.471086 C22.2593985,14.0831764 22.7246809,13.6011648 23.0927245,13.0490994" id="Page-1" fill="#232E48"></path>
                        </g>
                    </g>
                </g>
            </g>
        </g>
    </g>
</svg>