<svg xmlns="http://www.w3.org/2000/svg" xmlns:xlink="http://www.w3.org/1999/xlink" width="176" height="682" viewBox="0 0 176 682"><svg width="16" height="10" viewBox="0 0 16 10" id="HongKong-Flag-icon" y="0"><title>HongKong-Flag-icon</title><defs><path id="a" d="M2.978.001v1.804H.002V0h2.976z"></path><path id="c" d="M2.052 2.842H.005V.015h2.047z"></path></defs><g fill="none" fill-rule="evenodd"><path fill="#E54C3C" d="M0 10h16V0H0z"></path><g transform="translate(5 2)"><path d="M2.208 2.174a2.22 2.22 0 0 1-.146-.56c-.011-.156-.01-.313-.012-.408a1.714 1.714 0 0 1 .08-.453c.096-.356.447-.663.735-.73a.904.904 0 0 1 .646.1c.178.095.331.27.343.314.003.011-.05-.018-.07-.03-.023-.012-.031-.01-.075-.032C3.658.348 3.57.342 3.532.363c-.053.029-.07.065-.085.092-.02.033-.029.041-.03.112 0 .06 0 .154.047.237.012.022.024.057.046.088.043.06.097.14.131.22a.62.62 0 0 1 .057.252l.007.106c.008.143-.084.496-.358.675-.06.04-.125.092-.195.13a.564.564 0 0 0-.247.225c-.036.066-.03.138-.028.211.002.131.039.258.07.324l.022.05c-.016.004-.024-.005-.03-.011l-.037-.042c-.054-.057-.109-.199-.152-.323a1.202 1.202 0 0 1-.063-.36c.005-.182.046-.33.072-.428.038-.144.048-.162.064-.203l.003-.006c0-.007.001-.012-.004-.017a.024.024 0 0 0-.034 0l-.003.007c-.026.038-.049.12-.089.263-.033.118-.06.24-.048.422.007.104.023.263.063.36.056.14.114.26.159.315l.027.044c.002.008.006.014.011.017l.005.002c-.005.025-.157-.084-.347-.34-.151-.204-.306-.453-.353-.613" fill="#FEFEFE"></path><path fill="#E63C29" d="M2.927 1.243l.017.21.198.058-.19.081.01.212-.135-.16-.193.074.106-.181-.128-.166.2.048z"></path><path d="M1.842 3.663c-.22.027-.459.016-.564-.006-.15-.031-.297-.074-.386-.098a1.614 1.614 0 0 1-.404-.202C.18 3.166-.013 2.737 0 2.434a.96.96 0 0 1 .269-.612c.136-.15.343-.254.386-.254.012 0-.03.044-.046.061-.018.02-.018.029-.051.065-.04.044-.069.129-.06.172.014.06.043.087.064.11.026.028.032.039.097.058a.435.435 0 0 0 .235.019c.024-.007.06-.009.096-.022.068-.027.156-.06.24-.07a.576.576 0 0 1 .253.011l.102.022a.843.843 0 0 1 .536.535c.021.07.053.149.07.228a.58.58 0 0 0 .144.305c.052.053.122.067.19.085a.793.793 0 0 0 .324.017l.052-.008c0 .017-.01.023-.019.028l-.048.024c-.069.039-.216.055-.345.064a1.115 1.115 0 0 1-.355-.036c-.169-.053-.297-.134-.381-.185-.126-.077-.14-.092-.174-.119l-.005-.005c-.006-.001-.01-.004-.016 0a.025.025 0 0 0-.01.033l.006.005c.028.037.1.081.223.16.102.063.21.123.383.16.099.022.253.049.355.036.146-.018.275-.043.338-.073l.049-.014c.008 0 .014-.003.018-.007l.004-.004c.022.011-.121.132-.414.251-.231.094-.506.18-.67.183" fill="#FEFEFE"></path><path fill="#E63C29" d="M1.163 2.702l.202.04.107-.181.025.21.201.048-.186.09.017.21-.141-.154-.19.082.1-.185z"></path><g transform="translate(3.011 1.562)"><mask id="b" fill="#fff"><use xlink:href="#a"></use></mask><path d="M.65.547c.166-.151.368-.282.466-.326.14-.062.285-.114.372-.146.125-.048.275-.06.444-.072.358-.024.756.215.914.47a.97.97 0 0 1 .12.66c-.028.203-.14.41-.175.436-.01.007 0-.054.003-.078.004-.026 0-.033.006-.083.008-.059-.015-.145-.047-.176-.044-.042-.083-.046-.113-.052-.037-.008-.048-.014-.113.009a.444.444 0 0 0-.203.123c-.016.019-.044.042-.065.074-.042.062-.096.14-.159.2a.588.588 0 0 1-.213.138l-.096.041a.817.817 0 0 1-.739-.123C.996 1.596.926 1.55.868 1.496A.555.555 0 0 0 .58 1.33c-.072-.013-.137.017-.204.043a.81.81 0 0 0-.274.175l-.039.037c-.009-.014-.003-.024 0-.034l.026-.048c.035-.072.148-.171.247-.254.08-.067.215-.148.311-.18.17-.055.32-.064.417-.071.146-.011.165-.007.208-.005h.007c.006-.002.011-.002.014-.008A.025.025 0 0 0 1.28.952L1.274.95c-.043-.013-.126-.008-.27 0-.12.008-.242.022-.405.093a1.27 1.27 0 0 0-.31.18c-.11.1-.202.196-.238.258l-.031.04c-.007.005-.01.011-.012.017v.005c-.025.003.025-.18.199-.449C.344.882.522.65.653.552" fill="#FEFEFE" mask="url(#b)"></path></g><path fill="#E63C29" d="M4.754 2.499l-.188.086.013.21-.138-.156-.191.078.103-.183-.132-.163.202.044.11-.179.021.21z"></path><path d="M3.096 4.433a2.217 2.217 0 0 1-.177.55c-.074.137-.158.268-.208.349a1.657 1.657 0 0 1-.31.333c-.27.244-.727.302-1.004.197a.933.933 0 0 1-.487-.448C.813 5.235.778 5.002.791 4.96c.004-.011.033.043.044.064.012.023.02.026.044.07.029.051.099.105.142.11.06.005.093-.016.12-.03.035-.017.047-.018.085-.077a.464.464 0 0 0 .088-.224c.001-.025.01-.061.008-.1a1.216 1.216 0 0 1 .008-.257.616.616 0 0 1 .087-.243l.051-.093c.07-.124.336-.368.66-.363.071 0 .154-.006.233 0 .114.01.218.01.327-.048.064-.035.098-.099.136-.16a.848.848 0 0 0 .114-.311l.008-.054c.016.006.018.017.02.027l.008.055c.015.078-.015.228-.045.356a1.19 1.19 0 0 1-.14.336c-.101.15-.216.25-.289.317-.109.1-.127.108-.162.134l-.006.004c-.003.005-.007.009-.006.016a.024.024 0 0 0 .029.018l.006-.003c.042-.017.105-.073.215-.17.09-.08.179-.168.266-.326.05-.09.121-.233.14-.336a1.48 1.48 0 0 0 .035-.353l.001-.052c.002-.008.002-.015 0-.02l-.003-.005c.017-.018.086.159.108.48.017.256.014.55-.033.71" fill="#FEFEFE"></path><path fill="#E63C29" d="M1.998 4.807l.098-.186-.136-.16.203.04.105-.182.027.21.201.046-.186.091.02.21-.143-.152z"></path><g transform="translate(3.055 3.141)"><mask id="d" fill="#fff"><use xlink:href="#c"></use></mask><path d="M1.14.388c.187.122.365.285.433.37.097.121.185.25.24.326.079.111.131.255.189.418.122.348.007.806-.19 1.032a.916.916 0 0 1-.584.3c-.198.028-.423-.025-.456-.053-.01-.007.05-.015.073-.018.026-.003.032-.01.08-.017.057-.008.132-.055.151-.095.027-.055.02-.095.018-.126-.003-.039 0-.05-.04-.108a.452.452 0 0 0-.17-.167c-.022-.01-.052-.032-.088-.044a1.14 1.14 0 0 1-.23-.102.596.596 0 0 1-.188-.172l-.066-.083a.875.875 0 0 1-.087-.763c.027-.068.05-.15.086-.222a.585.585 0 0 0 .076-.33C.379.459.333.404.29.344A.82.82 0 0 0 .05.123L.005.095C.016.082.027.085.037.085L.09.098c.076.014.2.098.306.173C.48.332.593.443.65.53.748.68.798.826.83.92c.05.14.052.161.062.204l.001.007c.004.005.006.01.013.012a.024.024 0 0 0 .027-.02l-.001-.008c0-.046-.027-.127-.075-.268A1.15 1.15 0 0 0 .66.474 1.297 1.297 0 0 0 .406.217 1.392 1.392 0 0 0 .1.054L.053.034C.046.03.04.027.033.028H.03C.019.005.204.004.504.1c.238.077.503.188.632.291" fill="#FEFEFE" mask="url(#d)"></path></g><path fill="#E63C29" d="M4.13 4.714l-.132-.161-.194.07.11-.179-.127-.167.2.051.116-.174.015.21.197.06-.19.08z"></path></g></g></svg><svg width="16" height="10" viewBox="0 0 16 10" id="Taiwan-Flag-icon" y="10"><title>Taiwan-Flag-icon</title><g fill="none" fill-rule="evenodd"><path fill="#E54C3C" d="M0 10h16V0H0z"></path><path fill="#3B96D2" d="M0 5h6V0H0z"></path><path d="M3.014 3.713a1.127 1.127 0 1 1 0-2.255 1.127 1.127 0 0 1 0 2.255m0-2.468a1.34 1.34 0 1 1 0 2.68 1.34 1.34 0 0 1 0-2.68zm.914 1.34a.914.914 0 1 0-1.827 0 .914.914 0 0 0 1.827 0z" fill="#ECEFF0"></path></g></svg><svg width="10" height="10" viewBox="0 0 10 10" id="add-room" y="20"><title>11DDB6DA-9F43-4C07-9CD2-194B8898AC6E</title><path d="M5.357 5.358v4.286a.357.357 0 0 1-.714 0V5.358H.357a.357.357 0 0 1 0-.715h4.286V.357a.358.358 0 0 1 .714 0v4.286h4.286a.358.358 0 0 1 0 .715H5.357z" fill="#232E48" fill-rule="evenodd"></path></svg><svg width="20" height="19" viewBox="0 0 20 19" id="amazing-campaigns" y="30"><title>0D6A1DC8-7CCD-4F91-AEE5-2C9FD8A002C1</title><path d="M10 1a.371.371 0 0 0-.333.2L7.07 6.18l-5.756.916a.368.368 0 0 0-.192.638l4.367 3.86-1.198 5.961a.372.372 0 0 0 .54.4l5.148-2.617 5.149 2.62a.372.372 0 0 0 .54-.398l-1.164-5.97 4.372-3.856a.368.368 0 0 0-.192-.638l-5.755-.915-2.596-4.98A.371.371 0 0 0 10.001 1m0 1.178l2.262 4.34.174.333.374.06 4.978.791-3.784 3.336-.317.28.08.41 1.019 5.224-4.463-2.27-.344-.175-.344.175-4.457 2.265 1.047-5.21.082-.413-.318-.281-3.78-3.34 4.98-.793.375-.059.173-.333L10 2.178" stroke="#232E48" stroke-width=".2" fill="#232E48" fill-rule="evenodd" opacity=".7"></path></svg><svg width="20" height="20" viewBox="0 0 20 20" id="arrow-right" y="49"><title>Arrow-right-icon</title><g stroke="#232E48" fill="none" fill-rule="evenodd"><circle stroke-width="1.2" cx="10" cy="10" r="9.4"></circle><path d="M8.58 6.975L11.814 10 8.58 13.025a.283.283 0 0 0 0 .393c.106.11.28.11.386 0l3.41-3.19c.015-.01.033-.007.046-.02A.277.277 0 0 0 12.5 10a.275.275 0 0 0-.078-.209c-.012-.013-.031-.01-.046-.02l-3.411-3.19a.268.268 0 0 0-.385 0 .282.282 0 0 0 0 .393z" stroke-width=".9" fill="#232E48"></path></g></svg><svg width="20" height="20" viewBox="0 0 20 20" id="book-campaign" y="69"><title>F10F52BD-EC17-43E5-9900-80E01D5B55EC</title><g stroke="#232E48" fill="none" fill-rule="evenodd"><circle stroke-width="1.2" cx="10" cy="10" r="9.4"></circle><path d="M8.58 6.975L11.814 10 8.58 13.025a.283.283 0 0 0 0 .393c.106.11.28.11.386 0l3.41-3.19c.015-.01.033-.007.046-.02A.277.277 0 0 0 12.5 10a.275.275 0 0 0-.078-.209c-.012-.013-.031-.01-.046-.02l-3.411-3.19a.268.268 0 0 0-.385 0 .282.282 0 0 0 0 .393z" stroke-width=".9" fill="#232E48"></path></g></svg><svg width="17" height="14" viewBox="0 0 17 14" id="chat-icon" y="89"><title>9E724262-EC4F-4C16-9AAB-AA9F2B81AFF5</title><path d="M1.83.317h13.167a.82.82 0 0 1 .83.808v9.618a.82.82 0 0 1-.83.808h-1.382v1.615a.535.535 0 0 1-.308.483.561.561 0 0 1-.58-.054l-2.725-1.988a.285.285 0 0 0-.169-.056H1.83a.82.82 0 0 1-.83-.808V1.125a.82.82 0 0 1 .83-.808zm13.444 10.426V1.125a.273.273 0 0 0-.277-.27H1.83a.274.274 0 0 0-.277.27v9.618c0 .149.124.27.277.27h8.003a.85.85 0 0 1 .503.164l2.724 1.988.001-1.776c0-.208.174-.377.388-.377h1.548c.152 0 .277-.12.277-.27zm-9.948-6.12h6.92c.19 0 .345.15.345.337a.341.341 0 0 1-.346.337H5.326a.342.342 0 0 1-.346-.337c0-.186.155-.337.346-.337zm0 2.695h4.966c.191 0 .346.151.346.337a.341.341 0 0 1-.346.337H5.326a.342.342 0 0 1-.346-.337c0-.186.155-.337.346-.337z" stroke="#232E48" stroke-width=".4" fill="#232E48" fill-rule="evenodd"></path></svg><svg width="12" height="16" viewBox="0 0 12 16" id="city-guide" y="103"><title>26F57857-049C-4E05-8787-9D8FD9042570</title><path d="M6 4a2 2 0 1 0-.001 3.999A2 2 0 0 0 6 4m0 5a3 3 0 1 1 0-6 3 3 0 0 1 0 6m0-8a5 5 0 0 0-5 5c0 2.761 5 8.499 5 8.499S11 8.761 11 6a5 5 0 0 0-5-5m0 15S0 9.313 0 6a6 6 0 1 1 12 0c0 3.313-6 10-6 10" fill="#232E48" fill-rule="evenodd" opacity=".7"></path></svg><svg width="28" height="28" viewBox="0 0 28 28" id="close-btn" y="119"><title>8BAC9CFA-8559-4646-A2CD-190D39E56BB0</title><defs><rect id="a" width="28" height="28" rx="3"></rect></defs><g fill="none" fill-rule="evenodd"><use fill="#FFF" xlink:href="#a"></use><rect stroke="#DDDEE0" x=".5" y=".5" width="27" height="27" rx="3"></rect><path d="M14.496 14l4.401 4.4a.352.352 0 0 1-.497.497l-4.4-4.4-4.4 4.4a.352.352 0 0 1-.497-.497l4.4-4.4-4.4-4.4a.352.352 0 0 1 .497-.497l4.4 4.4 4.4-4.4a.352.352 0 0 1 .497.497l-4.4 4.4z" stroke="#232E48" stroke-width=".3" fill="#232E48"></path></g></svg><svg width="16" height="11" viewBox="0 0 16 11" id="cn-flag" y="147"><title>CN-flag</title><g fill="none" fill-rule="evenodd"><path fill="#E54C3C" d="M0 11h16V0H0z"></path><path fill="#EFC319" d="M2.467 1.454l.328 1.03h1.062l-.86.635.329 1.03-.86-.636-.858.636.328-1.03-.859-.636h1.062zM5.196 1.015l.127.399h.411l-.333.246.128.4-.333-.247-.333.246.127-.399-.333-.246h.411zM5.367 2.676l.127.4h.412l-.333.246.127.4-.333-.247-.333.246.127-.399-.333-.246h.412zM4.65 4.436l.127.4h.412l-.334.246.128.4-.333-.247-.333.246.127-.399-.333-.247h.411zM3.122 5.452l.128.399h.411l-.333.246.127.4-.333-.247-.333.246.128-.399-.333-.246h.411z"></path></g></svg><svg width="50" height="50" viewBox="0 0 50 50" id="cn-flag-icon" y="158"><title>510C2F25-57C5-4993-8A99-C702DA8CD7D6</title><g fill="none" fill-rule="evenodd"><circle fill="#AAABAE" opacity=".15" cx="25" cy="25" r="25"></circle><g transform="translate(15 18)"><path fill="#E54C3C" d="M0 13.926h20.765V.24H0z"></path><path fill="#FFCB03" d="M3.238 1.85l.43 1.31h1.394l-1.127.81.43 1.31-1.127-.81-1.128.81.431-1.31-1.127-.81h1.393zM6.82 1.291l.166.508h.54l-.437.314.167.508-.437-.314-.437.314.167-.508-.437-.314h.54zM7.044 3.406l.167.508h.54l-.437.314.167.508-.437-.314-.437.314.167-.508-.437-.314h.54zM6.103 5.646l.167.508h.54l-.437.314.167.508-.437-.314-.437.314.167-.508-.437-.314h.54zM4.098 6.938l.167.508h.54l-.437.314.167.508-.437-.314-.437.314.167-.508-.437-.314h.54z"></path></g></g></svg><svg width="15" height="16" viewBox="0 0 15 16" id="company-icon" y="208"><title>D2C2A767-0411-4580-88C6-A2F025C7E016</title><path d="M1 1h13.001V0H1v1zm1 2v12H0v1h15v-1h-2V3H2zm1 1h9v11h-2v-4H5v4H3V4zm3 11h3v-3H6v3zM10 6h1V5h-1v.999zm-3 0h1V5H7v.999zm-3 0h1V5H4v.999zm6 2h1v-.998h-1V8zM7 8h1v-.998H7V8zM4 8h1V7H4v.999zm6 2h1v-.998h-1v.998zm-3 0h1v-.998H7v.998zm-3 0h1V9H4v.999z" fill="#232E48" fill-rule="evenodd"></path></svg><svg width="14" height="10" viewBox="0 0 14 10" id="confirm-room" y="224"><title>1FABEA4D-8BB6-4348-80CA-9F4E6CF5EDB5</title><path d="M12.891 1.615L5.37 8.895a.381.381 0 0 1-.526 0c-.001-.001 0-.004-.002-.005l-.011-.008-3.72-3.6a.356.356 0 0 1 0-.515.384.384 0 0 1 .53 0l3.472 3.359 7.252-7.02a.38.38 0 0 1 .527 0 .352.352 0 0 1 0 .51" stroke="#232E48" stroke-width=".526" fill="#232E48" fill-rule="evenodd"></path></svg><svg width="16" height="16" viewBox="0 0 16 16" id="contact-icon" y="234"><title>36BCA6EA-E2D9-4DCB-BE9F-0A179759D9A3</title><path d="M5.501 8.001H10.5a.501.501 0 0 1 0 1.001H5.501a.501.501 0 0 1 0-1.001m6-2H4.5a.5.5 0 0 1 0-1h7.001a.5.5 0 0 1 0 1M8 1C4.135 1 1.001 3.687 1.001 7.001c0 2.032 1.193 3.809 3 4.891V14.5l3-1.498s-.148-.001.999-.001c3.866 0 7.001-2.686 7.001-6S11.866 1 8 1m0 13.001c-.306 0-.606-.018-.903-.048l-4.096 2.049v-3.541C1.173 11.178 0 9.211 0 7.001 0 3.135 3.582 0 8 0c4.419 0 8.001 3.135 8.001 7.001 0 3.866-3.582 7-8.001 7" fill="#232E48" fill-rule="evenodd"></path></svg><svg width="21" height="24" viewBox="0 0 21 24" id="delete-icon" y="250"><title>E3B10C93-63D3-4090-82A8-CE7AC8189A58</title><path d="M17.074 22.523a.501.501 0 0 1-.5.477H4.476a.501.501 0 0 1-.5-.475L3.051 4h14.95l-.927 18.523zM6.686 1.378A.5.5 0 0 1 7.171 1h6.658c.23 0 .43.156.484.378L14.72 3H6.281l.405-1.622zM20.5 3a.5.5 0 1 1 0 1h-1.499l-.929 18.574A1.5 1.5 0 0 1 16.574 24H4.476a1.5 1.5 0 0 1-1.498-1.424L2.05 4H.5a.5.5 0 1 1 0-1h4.75l.466-1.864A1.499 1.499 0 0 1 7.171 0h6.658a1.5 1.5 0 0 1 1.455 1.136L15.75 3h4.75zm-13 6a.5.5 0 0 0-.5.5v8a.5.5 0 0 0 1 0v-8a.5.5 0 0 0-.5-.5zm6 0a.5.5 0 0 0-.5.5v8a.5.5 0 0 0 1 0v-8a.5.5 0 0 0-.5-.5zm-3-1a.5.5 0 0 0-.5.5v10a.5.5 0 0 0 1 0v-10a.5.5 0 0 0-.5-.5z" fill="#AAABAE" fill-rule="evenodd"></path></svg><svg width="50" height="50" viewBox="0 0 50 50" id="en-flag-icon" y="274"><title>537E9218-F488-4F8E-898B-0F70EFF6E29B</title><g fill="none" fill-rule="evenodd"><circle fill="#AAABAE" opacity=".15" cx="25" cy="25" r="25"></circle><g transform="translate(15 18)"><path fill="#3B96D2" d="M0 13.926h20.766V.241H0z"></path><path fill="#ECEFF0" d="M18.167.241l-5.41 3.56V.242H7.994v3.707L2.275.24H0v1.85l4.101 2.672h-4.1v4.74h4.067L0 12.194v1.733h2.691l5.302-3.502v3.502h4.765v-3.563l5.477 3.563h2.53v-1.713l-4.167-2.71h4.168v-4.74h-4.147l4.147-2.737V.24z"></path><path fill="#E54C3C" d="M0 .241v1.194l4.994 3.328h1.69zM14.09 9.504l6.675 4.422v-1.11l-4.984-3.312zM6.618 9.504L0 13.926h1.585L7.993 9.72v-.217zM19.251.241l-6.493 4.243v.279h1.28l6.728-4.41V.24z"></path><path fill="#E54C3C" d="M9.014.241V5.77H0v2.729h9.014v5.428h2.722V8.498h9.03v-2.73h-9.03V.242z"></path></g></g></svg><svg width="14" height="14" viewBox="0 0 14 14" id="footer-plus" y="324"><title>283390D1-EB92-41D3-A6C3-6757EBA14048</title><path d="M13.5 7.501h-6v6a.5.5 0 0 1-1 0v-6h-6A.5.5 0 0 1 .5 6.5h6v-6a.5.5 0 0 1 1 0v6h6a.501.501 0 0 1 0 1.001" fill="#232E48" fill-rule="evenodd"></path></svg><svg width="19" height="18" viewBox="0 0 19 18" id="fun-selfies" y="338"><title>0F9D3238-B665-469F-80A0-F546FEFCA879</title><path d="M17.524 9.409c-.188 1.417-.414 2.335-.537 2.62-.86.034-1.918 1.117-3.037 2.262-.548.561-1.116 1.142-1.6 1.521a4.022 4.022 0 0 1-1.3.653l-.007.002-.008.003a3.87 3.87 0 0 1-.917.202 5.712 5.712 0 0 1-1.237 0 3.874 3.874 0 0 1-.916-.202l-.008-.003-.008-.002a4.026 4.026 0 0 1-1.3-.653c-.483-.379-1.05-.96-1.6-1.521-1.118-1.145-2.176-2.227-3.036-2.262-.123-.285-.35-1.203-.538-2.62-.19-1.44-.21-2.392-.163-2.685.41-.163 1.594-.798 3.42-3.13C5.98 2 7.683 1.49 8.891 1.343a7.04 7.04 0 0 1 .608-.048c.198.007.402.023.607.048 1.21.146 2.912.656 4.161 2.251 1.825 2.331 3.009 2.967 3.42 3.13.047.293.028 1.245-.164 2.685m.376-2.92c.161.065.124 1.372-.087 2.96-.207 1.557-.505 2.809-.68 2.874v.006h-.017-.001-.002a.692.692 0 0 0-.084-.006c-1.15 0-3.077 2.608-4.501 3.723a4.32 4.32 0 0 1-1.392.7c-.27.102-.608.178-.986.219a5.977 5.977 0 0 1-1.3 0 4.152 4.152 0 0 1-.986-.218 4.31 4.31 0 0 1-1.392-.701c-1.425-1.115-3.351-3.723-4.5-3.723a.692.692 0 0 0-.086.005h-.002l-.017.001v-.006c-.175-.065-.473-1.317-.68-2.875C.976 7.861.939 6.554 1.1 6.488v-.003l.008-.002c.106-.03 1.324-.427 3.395-3.072C5.833 1.713 7.65 1.197 8.858 1.05c.241-.03.458-.044.642-.05.184.006.4.02.642.05 1.208.147 3.025.663 4.355 2.361 2.07 2.645 3.289 3.041 3.395 3.072a.115.115 0 0 0 .008.002v.003zm-11.379 3.9a1.32 1.32 0 0 1-1.31-1.328 1.32 1.32 0 0 1 1.31-1.326c.723 0 1.31.595 1.31 1.326a1.32 1.32 0 0 1-1.31 1.327zm0-2.95c-.885 0-1.602.727-1.602 1.622 0 .896.717 1.622 1.602 1.622.885 0 1.602-.726 1.602-1.622 0-.895-.717-1.621-1.602-1.621zm5.934 2.95a1.32 1.32 0 0 1-1.31-1.328 1.32 1.32 0 0 1 1.31-1.326c.723 0 1.311.595 1.311 1.326a1.32 1.32 0 0 1-1.31 1.327zm0-2.95c-.884 0-1.602.727-1.602 1.622 0 .896.718 1.622 1.602 1.622.885 0 1.602-.726 1.602-1.622 0-.895-.717-1.621-1.602-1.621zM9.488 6.187c.292 0 .528-.239.528-.534a.531.531 0 0 0-.528-.535.531.531 0 0 0-.528.535c0 .295.237.534.528.534zm1.389 6.319a1.79 1.79 0 0 1-1.377.648 1.79 1.79 0 0 1-1.376-.648.145.145 0 0 0-.205-.018.149.149 0 0 0-.017.208c.4.478.982.753 1.598.753.617 0 1.2-.275 1.6-.753a.15.15 0 0 0-.018-.208.145.145 0 0 0-.205.018z" stroke="#232E48" stroke-width=".6" fill="#232E48" fill-rule="evenodd" opacity=".7"></path></svg><svg width="21" height="20" viewBox="0 0 21 20" id="get-help" y="356"><title>814A5F46-EA30-4A02-BE5A-396D69B84E7C</title><path d="M10.92 0C4.701 0 0 3.98 0 9.167c0 2.734 1.79 5.365 4.2 7.5V20l5.04-2.5c-.24.28-.462.28 1.68 0C16.297 17.78 21 13.799 21 9.167 21 3.98 16.297 0 10.92 0" fill="#FFF" fill-rule="evenodd"></path></svg><svg width="18" height="18" viewBox="0 0 18 18" id="hamburguer-icon" y="376"><title>75D4B9BB-B755-4C16-A2A7-7DB9B330E7EF</title><path d="M0 0h18v2H0V0zm0 8h18v2H0V8zm0 8h18v2H0v-2z" fill="#FFF" fill-rule="evenodd"></path></svg><svg width="16" height="10" viewBox="0 0 16 10" id="jp-flag" y="394"><title>JP-flag</title><g fill="none" fill-rule="evenodd"><path fill="#FFF" d="M0 0h16v10H0z"></path><circle fill="#E53C53" cx="8" cy="5" r="3"></circle></g></svg><svg width="50" height="50" viewBox="0 0 50 50" id="jp-flag-icon" y="404"><title>43CE1EB6-1123-4B19-86CE-206BA5A29503</title><g fill="none" fill-rule="evenodd"><circle fill="#AAABAE" opacity=".15" cx="25" cy="25" r="25"></circle><g transform="translate(12 16)"><path fill="#FFF" d="M0 18h26V0H0z"></path><path d="M18 9A5 5 0 1 0 8 9a5 5 0 0 0 10 0" fill="#E54C3C"></path></g></g></svg><svg width="16" height="11" viewBox="0 0 16 11" id="kr-flag" y="454"><title>KR-flag</title><g fill="none" fill-rule="evenodd"><path fill="#FFF" d="M0 10.94h15.821V0H0z"></path><g transform="translate(1.86 1.291)"><path d="M8.697 4.882c.221-.91-.63-1.658-1.333-1.658-.407 0-.777.216-.999.531-.148.19-.666.994-.777 1.134-.222.21-.518.356-.851.356-.703 0-1.37-.622-1.37-1.615 0 0-.037.384-.037.51 0 1.644 1.222 2.882 2.739 2.868C7.4 7 8.399 6 8.697 4.882" fill="#3B96D2"></path><path d="M3.368 3.637c.259-1.3 1.368-2.287 2.7-2.287 1.48 0 2.702 1.266 2.702 2.833 0 .244-.037.474-.073.706v-.007c.221-.91-.63-1.658-1.333-1.658-.407 0-.777.216-.999.531-.148.19-.666.994-.777 1.134-.222.21-.518.356-.852.356-.702 0-1.368-.622-1.368-1.615v.007" fill="#E54C3C"></path><path fill="#2C3E50" d="M1.74.533L.472 1.85.135 1.5 1.404.184zM2.305 1.12L1.037 2.435l-.336-.348L1.969.77zM10.36.533L11.63 1.85l.336-.349L10.697.184zM9.795 1.12l1.268 1.315.337-.348L10.13.77zM10.36 7.824L11.63 6.51l.336.348-1.268 1.316zM9.795 7.238l1.268-1.316.337.349-1.269 1.316zM1.74 7.824L.47 6.51l-.336.348 1.269 1.316zM2.305 7.238L1.037 5.922.7 6.271l1.268 1.316z"></path></g></g></svg><svg width="15" height="15" viewBox="0 0 15 15" id="link-plus-icon" y="465"><path fill="#232E48" fill-rule="evenodd" d="M8.143 6.857V3.643a.643.643 0 0 0-1.286 0v3.214H3.643a.643.643 0 0 0 0 1.286h3.214v3.214a.643.643 0 0 0 1.286 0V8.143h3.214a.643.643 0 0 0 0-1.286H8.143zM7.5 15a7.5 7.5 0 1 1 0-15 7.5 7.5 0 0 1 0 15z"></path></svg><svg width="176" height="26" viewBox="0 0 176 26" id="ms-logo" y="480"><title>6DDF3DE6-C58E-481D-BCB5-B1DDAAE9F1A4</title><path d="M48.627 11.62V5.982h1.75v13.983h-1.75v-6.713H41.94v6.713h-1.75V5.982h1.75v5.638h6.686zm18.009 1.353c0 4.155-3.297 7.29-7.356 7.29-4.06 0-7.357-3.135-7.357-7.29 0-4.006 3.333-7.288 7.357-7.288 4.023 0 7.356 3.282 7.356 7.288zm-1.75 0c0-3.078-2.31-5.656-5.606-5.656-3.298 0-5.607 2.578-5.607 5.656 0 3.19 2.57 5.657 5.607 5.657 3.035 0 5.606-2.467 5.606-5.657zm6.853 6.992h-1.751V7.576h-3.334V5.982h8.419v1.594h-3.334v12.389zM76.45 5.982h7.544v1.595h-5.793v3.913h5.625v1.595H78.2v5.284h5.793v1.596H76.45V5.982zM87.904 18.37h4.266v1.595h-6.016V5.982h1.75V18.37zm14.303-7.64h-.037l-1.64 9.235h-1.805l2.866-14.577 4.825 11.016 4.824-11.016 2.868 14.577H112.3l-1.638-9.235h-.037l-4.209 9.532-4.209-9.532zm12.199-4.748h2.01l3.447 5.971 3.446-5.971h2.01l-4.58 7.9v6.083h-1.752v-6.083l-4.581-7.9zm18.364 2.652c-.523-.872-1.193-1.316-2.255-1.316-1.117 0-2.346.76-2.346 1.983 0 1.094 1.08 1.67 1.956 2.003l1.004.39c1.994.778 3.484 1.872 3.484 4.21 0 2.54-1.975 4.358-4.488 4.358-2.272 0-4.042-1.669-4.34-3.914l1.77-.37c-.02 1.54 1.21 2.652 2.719 2.652 1.507 0 2.588-1.262 2.588-2.727 0-1.502-1.21-2.15-2.421-2.652l-.969-.408c-1.601-.685-3.053-1.595-3.053-3.542 0-2.262 2.01-3.616 4.134-3.616 1.564 0 2.849.76 3.612 2.114l-1.395.835zm7.542 11.331h-1.75V7.576h-3.334V5.982h8.417v1.594h-3.333v12.389zm6.332-3.505l-1.6 3.505h-1.882l6.704-14.576 6.705 14.576h-1.882l-1.6-3.505h-6.445zm3.222-7.251l-2.495 5.656h4.991l-2.496-5.656zm5.308-3.227h2.011l3.446 5.971 3.444-5.971h2.012l-4.581 7.9v6.083h-1.75v-6.083l-4.582-7.9zm18.363 2.652c-.522-.872-1.192-1.316-2.254-1.316-1.117 0-2.346.76-2.346 1.983 0 1.094 1.08 1.67 1.955 2.003l1.006.39c1.992.778 3.483 1.872 3.483 4.21 0 2.54-1.974 4.358-4.49 4.358-2.27 0-4.04-1.669-4.337-3.914l1.767-.37c-.017 1.54 1.211 2.652 2.72 2.652 1.508 0 2.59-1.262 2.59-2.727 0-1.502-1.211-2.15-2.422-2.652l-.969-.408c-1.6-.685-3.054-1.595-3.054-3.542 0-2.262 2.01-3.616 4.135-3.616 1.564 0 2.849.76 3.613 2.114l-1.397.835zM13.052 26l-2.089-2.078 2.09-2.08 2.088 2.079L13.052 26zm2.089-10.396l4.177 4.159-2.09 2.079-2.087-2.08-2.089 2.08-2.088-2.08-2.087 2.08-2.09-2.08 4.177-4.158 2.088 2.079 2.089-2.08zm-2.082 1.031L4.707 8.317 13.059 0l8.354 8.317-8.354 8.318zm6.787 2.6l-4.176-4.16 6.264-6.237 4.176 4.159-6.264 6.238zm-9.404-4.153l-4.177 4.16L0 13.004l4.178-4.159 6.264 6.237z" fill="#FFF" fill-rule="evenodd"></path></svg><svg width="20" height="23" viewBox="0 0 20 23" id="newsletter-icon" y="506"><title>16701502-7717-4384-AAE7-113644A8F9F8</title><path d="M0 0v23h1.501l2.639-2.875L7.096 23l2.84-2.875L12.883 23l2.747-2.875L18.43 23H20V0H0zm1.429 1.438H18.57v19.654l-1.92-1.973-1.03-1.057L14.6 19.13l-1.753 1.835-1.916-1.871-1.012-.988-.996 1.007-1.847 1.87-1.942-1.89-1.053-1.024-.988 1.082-1.664 1.81V1.437zm2.857 4.31h6.834V4.31H4.286v1.436zm0 5.75h11.428V10.06H4.286v1.437zm0 2.876h11.428v-1.438H4.286v1.438z" fill="#7B7D86" fill-rule="evenodd"></path></svg><svg width="18" height="18" viewBox="0 0 18 18" id="offers-icon" y="529"><title>Check-icon-2</title><path d="M7.498 12.837a.632.632 0 0 1-.847 0c-.009-.008-.005-.022-.013-.029-.005-.006-.013-.004-.018-.008L4.19 10.54a.573.573 0 0 1 0-.855.686.686 0 0 1 .92 0l2.04 1.9 5.828-5.421a.628.628 0 0 1 .846 0 .53.53 0 0 1 0 .788l-6.327 5.885zM9 0a9 9 0 0 0-9 9c0 4.968 4.03 9 9 9s9-4.032 9-9a9 9 0 0 0-9-9z" fill="#232E48" fill-rule="evenodd"></path></svg><svg width="115" height="24" viewBox="0 0 115 24" id="pepper-logo" y="547"><title>Pepper-Logo</title><g fill="none" fill-rule="evenodd"><path d="M114.994 3.595a.39.39 0 0 1-.032.235l-.727 1.158a.305.305 0 0 1-.252.14c-.048 0-.08 0-.127-.03-.253-.11-.458-.157-.616-.157-.395 0-.759.156-1.138.485-.38.329-.68.877-.885 1.612-.158.58-.253 1.8-.253 3.616v3.615a.299.299 0 0 1-.3.298h-1.422c-.174 0-.3-.14-.3-.297V8.118c0-2.551 1.374-4.132 2.544-4.711a4.043 4.043 0 0 1 1.69-.407h.19c.458 0 1.043.157 1.486.407a.28.28 0 0 1 .142.188zM70.748 3c1.612 0 3.003.58 4.156 1.737 1.138 1.143 1.723 2.552 1.723 4.164 0 1.643-.57 3.068-1.707 4.21-1.138 1.159-2.528 1.738-4.124 1.738-.9 0-1.738-.188-2.497-.564-.442-.219-.869-.5-1.264-.845-.032-.031-.063-.031-.095-.031-.015 0-.047 0-.063.015-.047.031-.095.078-.095.141v7.137a.299.299 0 0 1-.3.298h-1.407c-.173 0-.3-.14-.3-.297V9.042c0-1.675.585-3.115 1.723-4.258C67.667 3.61 69.089 3 70.748 3zm3.414 7.967c.363-.642.553-1.315.553-2.003 0-.705-.19-1.378-.538-2.004-.363-.626-.837-1.127-1.453-1.471a3.65 3.65 0 0 0-1.976-.548c-1.121 0-2.038.376-2.812 1.158-.775.783-1.138 1.722-1.138 2.896 0 .751.174 1.44.506 2.035a3.62 3.62 0 0 0 1.453 1.424c.632.36 1.312.532 2.007.532.68 0 1.343-.172 1.944-.532.6-.36 1.09-.86 1.454-1.487zM41.973 3c1.612 0 3.002.58 4.156 1.737 1.138 1.143 1.723 2.552 1.723 4.164 0 1.643-.57 3.068-1.707 4.21-1.138 1.159-2.528 1.738-4.124 1.738-.901 0-1.738-.188-2.497-.564-.442-.219-.87-.5-1.264-.845-.032-.031-.063-.031-.095-.031-.016 0-.047 0-.063.015-.047.031-.095.078-.095.141v7.137a.299.299 0 0 1-.3.298H36.3c-.173 0-.3-.14-.3-.297V9.042c0-1.675.585-3.115 1.722-4.258C38.892 3.61 40.33 3 41.973 3zm3.413 7.967a4.016 4.016 0 0 0 .538-2.003 3.93 3.93 0 0 0-.538-2.004c-.363-.626-.837-1.127-1.438-1.471a3.65 3.65 0 0 0-1.975-.548c-1.122 0-2.038.376-2.813 1.158-.774.783-1.137 1.722-1.137 2.896 0 .751.173 1.44.505 2.035.332.594.822 1.08 1.454 1.424.632.36 1.312.532 2.007.532.68 0 1.343-.172 1.944-.532.6-.36 1.09-.86 1.453-1.487zM85.191 3c1.612 0 3.003.58 4.156 1.737C90.485 5.88 91.07 7.29 91.07 8.901c0 1.643-.57 3.068-1.707 4.21-1.138 1.159-2.528 1.738-4.124 1.738-.901 0-1.738-.188-2.497-.564-.442-.219-.869-.5-1.264-.845-.032-.031-.063-.031-.095-.031-.016 0-.047 0-.063.015-.047.031-.095.078-.095.141v7.137a.299.299 0 0 1-.3.298h-1.407c-.173 0-.3-.14-.3-.297V9.042c0-1.675.585-3.115 1.723-4.258C82.11 3.61 83.548 3 85.19 3zm3.414 7.967c.363-.642.553-1.315.553-2.003a3.93 3.93 0 0 0-.538-2.004c-.363-.626-.837-1.127-1.454-1.471a3.65 3.65 0 0 0-1.975-.548c-1.122 0-2.038.376-2.812 1.158-.775.783-1.138 1.722-1.138 2.896 0 .751.174 1.44.505 2.035.332.594.822 1.08 1.454 1.424.632.36 1.312.532 2.007.532.68 0 1.343-.172 1.944-.532.6-.36 1.09-.86 1.454-1.487zM56.037 3c1.928 0 3.492.736 4.646 2.191.821 1.033 1.248 2.317 1.264 3.835a.308.308 0 0 1-.095.22.313.313 0 0 1-.221.093h-9.229a.144.144 0 0 0-.11.047c-.032.031-.048.078-.032.125.11.94.474 1.738 1.09 2.38.727.735 1.596 1.095 2.655 1.095.506 0 1.012-.094 1.501-.266.49-.172.901-.407 1.233-.704a3.76 3.76 0 0 0 .632-.72.308.308 0 0 1 .253-.126c.047 0 .094.016.142.032l1.2.657a.28.28 0 0 1 .143.188.306.306 0 0 1-.047.235 6.137 6.137 0 0 1-.917 1.064 5.492 5.492 0 0 1-1.801 1.111c-.648.267-1.406.392-2.228.392-1.85 0-3.319-.61-4.361-1.816-1.043-1.19-1.565-2.567-1.565-4.07 0-1.424.442-2.692 1.327-3.803C52.64 3.72 54.157 3 56.037 3zm3.587 4.477a.15.15 0 0 0 .016-.141 3.985 3.985 0 0 0-.57-1.065 3.43 3.43 0 0 0-1.295-.97 4.112 4.112 0 0 0-1.722-.376c-.98 0-1.833.313-2.529.94-.395.344-.726.845-.964 1.47a.151.151 0 0 0 .016.142.144.144 0 0 0 .127.062h6.794c.048 0 .095-.031.127-.062zM99.366 3c1.927 0 3.492.736 4.645 2.191.822 1.018 1.249 2.317 1.265 3.835a.308.308 0 0 1-.095.22.313.313 0 0 1-.222.093h-9.228a.144.144 0 0 0-.11.047c-.032.031-.048.078-.032.125.11.94.474 1.738 1.09 2.38.727.735 1.596 1.095 2.655 1.095.506 0 1.011-.094 1.501-.266.49-.172.9-.407 1.233-.704a3.76 3.76 0 0 0 .632-.72.308.308 0 0 1 .252-.126c.048 0 .095.016.143.032l1.2.657a.28.28 0 0 1 .143.188.306.306 0 0 1-.047.235 6.137 6.137 0 0 1-.917 1.064 5.492 5.492 0 0 1-1.801 1.111c-.648.267-1.39.392-2.228.392-1.85 0-3.319-.61-4.362-1.816-1.043-1.19-1.564-2.567-1.564-4.07 0-1.424.442-2.692 1.327-3.803C95.968 3.72 97.486 3 99.366 3zm3.602 4.477a.15.15 0 0 0 .016-.141 3.985 3.985 0 0 0-.569-1.065 3.43 3.43 0 0 0-1.295-.97 4.165 4.165 0 0 0-1.723-.376c-.995 0-1.817.313-2.528.94-.395.344-.727.845-.964 1.47a.151.151 0 0 0 .016.142.144.144 0 0 0 .126.062h6.795c.047 0 .095-.031.126-.062zM25.846 8.232c.248.098.191 2.059-.132 4.44-.317 2.337-.772 4.214-1.04 4.312v.01l-.026-.001h-.002-.002c-1.74-.206-4.78 3.862-7.013 5.575-.652.5-1.398.83-2.129 1.052-.413.152-.93.265-1.509.327a9.387 9.387 0 0 1-1.987 0 6.464 6.464 0 0 1-1.508-.327c-.731-.222-1.477-.552-2.129-1.052-2.233-1.713-5.273-5.78-7.013-5.576l-.002.001H1.326v-.009c-.268-.098-.724-1.975-1.04-4.312-.323-2.381-.38-4.342-.132-4.44l-.001-.004.013-.004c.161-.045 2.025-.64 5.192-4.608C7.39 1.07 10.17.295 12.018.075c.37-.044.7-.066.982-.075.282.009.613.031.982.075 1.848.22 4.627.995 6.66 3.541 3.167 3.968 5.03 4.563 5.192 4.608a.73.73 0 0 0 .013.004v.004zm-8.326 6.293a2.441 2.441 0 0 0 2.45-2.433 2.441 2.441 0 0 0-2.45-2.433 2.441 2.441 0 0 0-2.45 2.433 2.441 2.441 0 0 0 2.45 2.433zM17 10a1.001 1.001 0 0 1 0 2 1.001 1.001 0 0 1 0-2zm-8.556 4.525a2.441 2.441 0 0 0 2.45-2.433 2.441 2.441 0 0 0-2.45-2.433 2.441 2.441 0 0 0-2.45 2.433 2.441 2.441 0 0 0 2.45 2.433zM8 10a1.001 1.001 0 0 1 0 2 1.001 1.001 0 0 1 0-2zm4.982-3.824a.805.805 0 0 0-.807.802c0 .442.361.801.807.801.446 0 .807-.359.807-.801a.805.805 0 0 0-.807-.802z" fill="#FFF"></path><path d="M15.446 17.543A3.207 3.207 0 0 1 13 18.672a3.206 3.206 0 0 1-2.444-1.13.22.22 0 0 1 .026-.311.225.225 0 0 1 .314.026A2.76 2.76 0 0 0 13 18.23a2.76 2.76 0 0 0 2.106-.972.225.225 0 0 1 .314-.026.22.22 0 0 1 .026.312" stroke="#232E48" stroke-width=".4" fill="#232E48"></path></g></svg><svg width="16" height="16" viewBox="0 0 16 16" id="plus-icon" y="571"><title>1EA53830-7B94-442D-920B-FB49E3B81F91</title><path d="M9.93 7.851l4.992-4.991a1.47 1.47 0 0 0-2.08-2.08l-4.99 4.991L2.86.781A1.47 1.47 0 1 0 .78 2.86L5.771 7.85l-4.99 4.991a1.47 1.47 0 1 0 2.08 2.08h-.001L7.85 9.931l4.991 4.991a1.47 1.47 0 0 0 2.08-2.08l-4.991-4.99z" fill="#FFD25D" fill-rule="evenodd"></path></svg><svg width="16" height="16" viewBox="0 0 16 16" id="policies" y="587"><title>E35B65F7-2D4F-4809-9E36-EA9610E3B05D</title><path d="M5 4.999h9V4H5v.999zM5 8h9V7H5v1zm0 3h9v-1H5v1zm10-9.501A.5.5 0 0 0 14.5 1h-10a.5.5 0 0 0-.5.499v12.5H3v-9H1.5A.5.5 0 0 0 1 5.5v8.999a.5.5 0 0 0 .5.5h13a.5.5 0 0 0 .5-.5v-13zm-.5 14.5h-13a1.5 1.5 0 0 1-1.5-1.5V5.5C0 4.67.671 4 1.5 4H3V1.499A1.5 1.5 0 0 1 4.5 0h10A1.5 1.5 0 0 1 16 1.499v13a1.5 1.5 0 0 1-1.5 1.5z" fill="#232E48" fill-rule="evenodd"></path></svg><svg width="19" height="20" viewBox="0 0 19 20" id="press-release" y="603"><title>9A467554-A78C-4D73-985E-A7BAE9A98B3F</title><path d="M17.76 0C18.446 0 19 .56 19 1.25v17.5c0 .69-.555 1.25-1.24 1.25H1.24C.554 20 0 19.44 0 18.75V1.25C0 .56.555 0 1.24 0h16.52zm.414 18.75V1.25a.415.415 0 0 0-.413-.417H1.239a.415.415 0 0 0-.413.417v17.5c0 .23.185.417.413.417h16.522a.415.415 0 0 0 .413-.417zM3.304 9.167a.83.83 0 0 1-.826-.834V4.167c0-.46.37-.834.826-.834h4.957a.83.83 0 0 1 .826.834v4.166a.83.83 0 0 1-.826.834H3.304zm0-.834h4.957V4.167H3.304v4.166zm12.805-5c.228 0 .413.187.413.417 0 .23-.185.417-.413.417h-4.957a.415.415 0 0 1-.413-.417c0-.23.185-.417.413-.417h4.957zm0 2.5c.228 0 .413.187.413.417 0 .23-.185.417-.413.417h-4.957a.415.415 0 0 1-.413-.417c0-.23.185-.417.413-.417h4.957zm0 2.5c.228 0 .413.187.413.417 0 .23-.185.417-.413.417h-4.957a.415.415 0 0 1-.413-.417c0-.23.185-.417.413-.417h4.957zm0 2.5c.228 0 .413.187.413.417 0 .23-.185.417-.413.417H2.89a.415.415 0 0 1-.413-.417c0-.23.185-.417.413-.417H16.11zm0 2.5c.228 0 .413.187.413.417 0 .23-.185.417-.413.417H2.89a.415.415 0 0 1-.413-.417c0-.23.185-.417.413-.417H16.11zm0 2.5c.228 0 .413.187.413.417 0 .23-.185.417-.413.417H2.89a.415.415 0 0 1-.413-.417c0-.23.185-.417.413-.417H16.11z" fill="#FFF" fill-rule="evenodd"></path></svg><svg width="18" height="21" viewBox="0 0 18 21" id="terms-conditions" y="623"><title>T-and-C-icon</title><path d="M17.143 19.74c0 .232-.192.42-.429.42H1.286a.425.425 0 0 1-.429-.42V1.26c0-.232.192-.42.429-.42h9.835l.018 4.625c.003.692.58 1.255 1.286 1.255h4.718v13.02zM16.51 5.88h-4.086a.425.425 0 0 1-.428-.418l-.016-4.024 4.53 4.442zm1.113-.097c.24.236.376.556.376.89V19.74c0 .696-.576 1.26-1.286 1.26H1.286C.576 21 0 20.436 0 19.74V1.26C0 .564.576 0 1.286 0h9.907a1.3 1.3 0 0 1 .909.369l5.522 5.414zM4.286 12.02c0 .232.192.42.428.42h8.572a.425.425 0 0 0 .428-.42.425.425 0 0 0-.428-.42H4.714a.425.425 0 0 0-.428.42zm.428-2.94h5.143a.425.425 0 0 0 .429-.42.425.425 0 0 0-.429-.42H4.714a.425.425 0 0 0-.428.42c0 .232.192.42.428.42zm8.572 5.88H4.714a.425.425 0 0 0-.428.42c0 .232.192.42.428.42h8.572a.425.425 0 0 0 .428-.42.425.425 0 0 0-.428-.42z" fill="#FFF" fill-rule="evenodd"></path></svg><svg width="15" height="15" viewBox="0 0 15 15" id="website-icon" y="644"><title>2F8E29A1-9756-4156-A363-AEC009C5E953</title><path d="M6 3h1V2H6v1zM4 3h1V2H4v1zM2 3h1V2H2v1zm12 2H1v8.5c0 .275.224.5.5.5h12c.276 0 .5-.225.5-.5V5zm0-3.5a.5.5 0 0 0-.5-.5h-12a.5.5 0 0 0-.5.5V4h13V1.5zm.5 13.5H.5a.5.5 0 0 1-.5-.5V.5A.5.5 0 0 1 .5 0h14a.5.5 0 0 1 .5.5v14a.5.5 0 0 1-.5.5z" fill="#232E48" fill-rule="evenodd"></path></svg><svg width="24" height="23" viewBox="0 0 24 23" id="x-icon" y="659"><title>X-icon</title><path d="M12 9.586L2.984.57a1.25 1.25 0 1 0-1.767 1.768l9.015 9.016-8.662 8.662a1.25 1.25 0 1 0 1.768 1.768L12 13.12l8.662 8.662a1.25 1.25 0 1 0 1.768-1.768l-8.662-8.661 9.015-9.016A1.25 1.25 0 1 0 21.016.57L12 9.586z" fill="#FFD25D" fill-rule="evenodd"></path></svg></svg>