<svg xmlns="http://www.w3.org/2000/svg" xmlns:xlink="http://www.w3.org/1999/xlink" width="115" height="455" viewBox="0 0 115 455"><svg width="20" height="20" viewBox="0 0 20 20" id="arrow-right" y="0"><title>Arrow-right-icon</title><g stroke="#232E48" fill="none" fill-rule="evenodd"><circle stroke-width="1.2" cx="10" cy="10" r="9.4"></circle><path d="M8.58 6.975L11.814 10 8.58 13.025a.283.283 0 0 0 0 .393c.106.11.28.11.386 0l3.41-3.19c.015-.01.033-.007.046-.02A.277.277 0 0 0 12.5 10a.275.275 0 0 0-.078-.209c-.012-.013-.031-.01-.046-.02l-3.411-3.19a.268.268 0 0 0-.385 0 .282.282 0 0 0 0 .393z" stroke-width=".9" fill="#232E48"></path></g></svg><svg width="20" height="20" viewBox="0 0 20 20" id="check-button" y="20"><title>Check button</title><rect transform="matrix(-1 0 0 1 20 0)" x=".5" y=".5" width="19" height="19" rx="2" stroke="#FFF" fill="none" fill-rule="evenodd"></rect></svg><svg width="20" height="20" viewBox="0 0 20 20" id="check-icon" y="40"><title>Check-icon</title><g fill="none" fill-rule="evenodd"><rect stroke="#FFF" transform="matrix(-1 0 0 1 20 0)" x=".5" y=".5" width="19" height="19" rx="2"></rect><path d="M8.847 13.814a.676.676 0 0 1-.931 0c-.01-.01-.006-.026-.014-.033-.005-.007-.015-.004-.02-.01L5.21 11.188a.672.672 0 0 1 0-.976.733.733 0 0 1 1.012 0l2.245 2.17 6.41-6.195a.671.671 0 0 1 .93 0 .622.622 0 0 1 0 .9l-6.96 6.727z" fill="#FFF"></path></g></svg><svg width="16" height="11" viewBox="0 0 16 11" id="cn-flag" y="60"><title>CN-flag</title><g fill="none" fill-rule="evenodd"><path fill="#E54C3C" d="M0 11h16V0H0z"></path><path fill="#EFC319" d="M2.467 1.454l.328 1.03h1.062l-.86.635.329 1.03-.86-.636-.858.636.328-1.03-.859-.636h1.062zM5.196 1.015l.127.399h.411l-.333.246.128.4-.333-.247-.333.246.127-.399-.333-.246h.411zM5.367 2.676l.127.4h.412l-.333.246.127.4-.333-.247-.333.246.127-.399-.333-.246h.412zM4.65 4.436l.127.4h.412l-.334.246.128.4-.333-.247-.333.246.127-.399-.333-.247h.411zM3.122 5.452l.128.399h.411l-.333.246.127.4-.333-.247-.333.246.128-.399-.333-.246h.411z"></path></g></svg><svg width="16" height="10" viewBox="0 0 16 10" id="en-Flag" y="71"><title>EN-Flag</title><defs><path id="a" d="M0 10h16V0H0z"></path></defs><g fill="none" fill-rule="evenodd"><mask id="b" fill="#fff"><use xlink:href="#a"></use></mask><use fill="#4A90E2" xlink:href="#a"></use><path fill="#FFF" mask="url(#b)" d="M13.998 0L9.83 2.602V0H6.159v2.709L1.753 0H0v1.352l3.16 1.952H0v3.464h3.134L0 8.734V10h2.073L6.16 7.441V10h3.67V7.396L14.05 10H16V8.749l-3.211-1.98H16V3.303h-3.195l3.195-2V0z"></path><path fill="#E53C53" mask="url(#b)" d="M0 0v.96l3.984 2.676h1.35zM10.667 7.273L16 10.909v-.913l-3.982-2.723zM5.152 7.273L0 10.909h1.234l4.988-3.458v-.178zM14.823 0L9.778 3.412v.224h.995L16 .09V0z"></path><path fill="#E53C53" mask="url(#b)" d="M6.945 0v4.04H0v1.993h6.945V10h2.098V6.033H16V4.04H9.043V0z"></path></g></svg><svg width="33" height="33" viewBox="0 0 33 33" id="facebook-hover" y="81"><title>Facebook-hover</title><g fill="none" fill-rule="evenodd"><circle fill="#FFD25D" cx="16.5" cy="16.5" r="16.5"></circle><path d="M17.291 25h-3.175v-8H12v-2.757l2.116-.002-.003-1.624c0-2.249.646-3.617 3.452-3.617H19.9v2.757h-1.46c-1.092 0-1.144.386-1.144 1.104l-.005 1.38h2.626L19.607 17 17.293 17l-.002 8z" fill="#232E48"></path></g></svg><svg width="33" height="33" viewBox="0 0 33 33" id="instagram-hover" y="114"><title>Instagram-hover</title><g fill="none" fill-rule="evenodd"><circle fill="#FFD25D" cx="16.5" cy="16.5" r="16.5"></circle><path d="M22.669 19.86a2.812 2.812 0 0 1-2.809 2.809h-6.721a2.812 2.812 0 0 1-2.809-2.809v-6.721a2.812 2.812 0 0 1 2.809-2.809h6.721a2.812 2.812 0 0 1 2.809 2.809v6.721zM19.86 9A4.144 4.144 0 0 1 24 13.139v6.721A4.145 4.145 0 0 1 19.86 24h-6.721A4.144 4.144 0 0 1 9 19.86v-6.721A4.143 4.143 0 0 1 13.139 9h6.721zM16.5 19.034a2.537 2.537 0 0 1-2.535-2.534 2.538 2.538 0 0 1 2.535-2.535 2.538 2.538 0 0 1 2.535 2.535 2.537 2.537 0 0 1-2.535 2.534zm0-6.4a3.87 3.87 0 0 0-3.865 3.866 3.87 3.87 0 0 0 3.865 3.865 3.87 3.87 0 0 0 3.865-3.865 3.87 3.87 0 0 0-3.865-3.865zm4.027-1.128a.979.979 0 0 0-.976.976.979.979 0 0 0 1.666.69.98.98 0 0 0 0-1.381.982.982 0 0 0-.69-.285z" fill="#232E48"></path></g></svg><svg width="33" height="33" viewBox="0 0 33 33" id="instagram-icon" y="147"><title>Instagram-icon</title><g fill="none" fill-rule="evenodd"><circle fill="#455070" cx="16.5" cy="16.5" r="16.5"></circle><path d="M22.669 19.86a2.812 2.812 0 0 1-2.809 2.809h-6.721a2.812 2.812 0 0 1-2.809-2.809v-6.721a2.812 2.812 0 0 1 2.809-2.809h6.721a2.812 2.812 0 0 1 2.809 2.809v6.721zM19.86 9A4.144 4.144 0 0 1 24 13.139v6.721A4.145 4.145 0 0 1 19.86 24h-6.721A4.144 4.144 0 0 1 9 19.86v-6.721A4.143 4.143 0 0 1 13.139 9h6.721zM16.5 19.034a2.537 2.537 0 0 1-2.535-2.534 2.538 2.538 0 0 1 2.535-2.535 2.538 2.538 0 0 1 2.535 2.535 2.537 2.537 0 0 1-2.535 2.534zm0-6.4a3.87 3.87 0 0 0-3.865 3.866 3.87 3.87 0 0 0 3.865 3.865 3.87 3.87 0 0 0 3.865-3.865 3.87 3.87 0 0 0-3.865-3.865zm4.027-1.128a.979.979 0 0 0-.976.976.979.979 0 0 0 1.666.69.98.98 0 0 0 0-1.381.982.982 0 0 0-.69-.285z" fill="#FFF"></path></g></svg><svg width="16" height="10" viewBox="0 0 16 10" id="jp-flag" y="180"><title>JP-flag</title><g fill="none" fill-rule="evenodd"><path fill="#FFF" d="M0 0h16v10H0z"></path><circle fill="#E53C53" cx="8" cy="5" r="3"></circle></g></svg><svg width="16" height="11" viewBox="0 0 16 11" id="kr-flag" y="190"><title>KR-flag</title><g fill="none" fill-rule="evenodd"><path fill="#FFF" d="M0 10.94h15.821V0H0z"></path><g transform="translate(1.86 1.291)"><path d="M8.697 4.882c.221-.91-.63-1.658-1.333-1.658-.407 0-.777.216-.999.531-.148.19-.666.994-.777 1.134-.222.21-.518.356-.851.356-.703 0-1.37-.622-1.37-1.615 0 0-.037.384-.037.51 0 1.644 1.222 2.882 2.739 2.868C7.4 7 8.399 6 8.697 4.882" fill="#3B96D2"></path><path d="M3.368 3.637c.259-1.3 1.368-2.287 2.7-2.287 1.48 0 2.702 1.266 2.702 2.833 0 .244-.037.474-.073.706v-.007c.221-.91-.63-1.658-1.333-1.658-.407 0-.777.216-.999.531-.148.19-.666.994-.777 1.134-.222.21-.518.356-.852.356-.702 0-1.368-.622-1.368-1.615v.007" fill="#E54C3C"></path><path fill="#2C3E50" d="M1.74.533L.472 1.85.135 1.5 1.404.184zM2.305 1.12L1.037 2.435l-.336-.348L1.969.77zM10.36.533L11.63 1.85l.336-.349L10.697.184zM9.795 1.12l1.268 1.315.337-.348L10.13.77zM10.36 7.824L11.63 6.51l.336.348-1.268 1.316zM9.795 7.238l1.268-1.316.337.349-1.269 1.316zM1.74 7.824L.47 6.51l-.336.348 1.269 1.316zM2.305 7.238L1.037 5.922.7 6.271l1.268 1.316z"></path></g></g></svg><svg width="22" height="22" viewBox="0 0 22 22" id="location-icon" y="201"><title>Location-icon</title><path d="M11.672 6.968a.671.671 0 1 1-1.343 0V2.334a8.685 8.685 0 0 0-7.996 7.993h4.638a.673.673 0 0 1 0 1.345H2.333a8.685 8.685 0 0 0 7.996 7.995V15.03c0-.37.3-.673.672-.673.37 0 .671.302.671.673v4.636a8.685 8.685 0 0 0 7.995-7.995H15.03a.671.671 0 1 1 0-1.345h4.636a8.685 8.685 0 0 0-7.995-7.993v4.634zM11 21C5.476 21 1 16.523 1 10.999 1 5.479 5.476 1 11 1s10 4.479 10 9.999C21 16.523 16.524 21 11 21" stroke-width=".4" stroke="#FFF" fill="#232E48" fill-rule="evenodd"></path></svg><svg width="18" height="18" viewBox="0 0 18 18" id="offers-icon" y="223"><title>Check-icon-2</title><path d="M7.498 12.837a.632.632 0 0 1-.847 0c-.009-.008-.005-.022-.013-.029-.005-.006-.013-.004-.018-.008L4.19 10.54a.573.573 0 0 1 0-.855.686.686 0 0 1 .92 0l2.04 1.9 5.828-5.421a.628.628 0 0 1 .846 0 .53.53 0 0 1 0 .788l-6.327 5.885zM9 0a9 9 0 0 0-9 9c0 4.968 4.03 9 9 9s9-4.032 9-9a9 9 0 0 0-9-9z" fill="#232E48" fill-rule="evenodd"></path></svg><svg width="115" height="24" viewBox="0 0 115 24" id="pepper-Logo" y="241"><title>Pepper-Logo</title><g fill="none" fill-rule="evenodd"><path d="M114.994 3.595a.39.39 0 0 1-.032.235l-.727 1.158a.305.305 0 0 1-.252.14c-.048 0-.08 0-.127-.03-.253-.11-.458-.157-.616-.157-.395 0-.759.156-1.138.485-.38.329-.68.877-.885 1.612-.158.58-.253 1.8-.253 3.616v3.615a.299.299 0 0 1-.3.298h-1.422c-.174 0-.3-.14-.3-.297V8.118c0-2.551 1.374-4.132 2.544-4.711a4.043 4.043 0 0 1 1.69-.407h.19c.458 0 1.043.157 1.486.407a.28.28 0 0 1 .142.188zM70.748 3c1.612 0 3.003.58 4.156 1.737 1.138 1.143 1.723 2.552 1.723 4.164 0 1.643-.57 3.068-1.707 4.21-1.138 1.159-2.528 1.738-4.124 1.738-.9 0-1.738-.188-2.497-.564-.442-.219-.869-.5-1.264-.845-.032-.031-.063-.031-.095-.031-.015 0-.047 0-.063.015-.047.031-.095.078-.095.141v7.137a.299.299 0 0 1-.3.298h-1.407c-.173 0-.3-.14-.3-.297V9.042c0-1.675.585-3.115 1.723-4.258C67.667 3.61 69.089 3 70.748 3zm3.414 7.967c.363-.642.553-1.315.553-2.003 0-.705-.19-1.378-.538-2.004-.363-.626-.837-1.127-1.453-1.471a3.65 3.65 0 0 0-1.976-.548c-1.121 0-2.038.376-2.812 1.158-.775.783-1.138 1.722-1.138 2.896 0 .751.174 1.44.506 2.035a3.62 3.62 0 0 0 1.453 1.424c.632.36 1.312.532 2.007.532.68 0 1.343-.172 1.944-.532.6-.36 1.09-.86 1.454-1.487zM41.973 3c1.612 0 3.002.58 4.156 1.737 1.138 1.143 1.723 2.552 1.723 4.164 0 1.643-.57 3.068-1.707 4.21-1.138 1.159-2.528 1.738-4.124 1.738-.901 0-1.738-.188-2.497-.564-.442-.219-.87-.5-1.264-.845-.032-.031-.063-.031-.095-.031-.016 0-.047 0-.063.015-.047.031-.095.078-.095.141v7.137a.299.299 0 0 1-.3.298H36.3c-.173 0-.3-.14-.3-.297V9.042c0-1.675.585-3.115 1.722-4.258C38.892 3.61 40.33 3 41.973 3zm3.413 7.967a4.016 4.016 0 0 0 .538-2.003 3.93 3.93 0 0 0-.538-2.004c-.363-.626-.837-1.127-1.438-1.471a3.65 3.65 0 0 0-1.975-.548c-1.122 0-2.038.376-2.813 1.158-.774.783-1.137 1.722-1.137 2.896 0 .751.173 1.44.505 2.035.332.594.822 1.08 1.454 1.424.632.36 1.312.532 2.007.532.68 0 1.343-.172 1.944-.532.6-.36 1.09-.86 1.453-1.487zM85.191 3c1.612 0 3.003.58 4.156 1.737C90.485 5.88 91.07 7.29 91.07 8.901c0 1.643-.57 3.068-1.707 4.21-1.138 1.159-2.528 1.738-4.124 1.738-.901 0-1.738-.188-2.497-.564-.442-.219-.869-.5-1.264-.845-.032-.031-.063-.031-.095-.031-.016 0-.047 0-.063.015-.047.031-.095.078-.095.141v7.137a.299.299 0 0 1-.3.298h-1.407c-.173 0-.3-.14-.3-.297V9.042c0-1.675.585-3.115 1.723-4.258C82.11 3.61 83.548 3 85.19 3zm3.414 7.967c.363-.642.553-1.315.553-2.003a3.93 3.93 0 0 0-.538-2.004c-.363-.626-.837-1.127-1.454-1.471a3.65 3.65 0 0 0-1.975-.548c-1.122 0-2.038.376-2.812 1.158-.775.783-1.138 1.722-1.138 2.896 0 .751.174 1.44.505 2.035.332.594.822 1.08 1.454 1.424.632.36 1.312.532 2.007.532.68 0 1.343-.172 1.944-.532.6-.36 1.09-.86 1.454-1.487zM56.037 3c1.928 0 3.492.736 4.646 2.191.821 1.033 1.248 2.317 1.264 3.835a.308.308 0 0 1-.095.22.313.313 0 0 1-.221.093h-9.229a.144.144 0 0 0-.11.047c-.032.031-.048.078-.032.125.11.94.474 1.738 1.09 2.38.727.735 1.596 1.095 2.655 1.095.506 0 1.012-.094 1.501-.266.49-.172.901-.407 1.233-.704a3.76 3.76 0 0 0 .632-.72.308.308 0 0 1 .253-.126c.047 0 .094.016.142.032l1.2.657a.28.28 0 0 1 .143.188.306.306 0 0 1-.047.235 6.137 6.137 0 0 1-.917 1.064 5.492 5.492 0 0 1-1.801 1.111c-.648.267-1.406.392-2.228.392-1.85 0-3.319-.61-4.361-1.816-1.043-1.19-1.565-2.567-1.565-4.07 0-1.424.442-2.692 1.327-3.803C52.64 3.72 54.157 3 56.037 3zm3.587 4.477a.15.15 0 0 0 .016-.141 3.985 3.985 0 0 0-.57-1.065 3.43 3.43 0 0 0-1.295-.97 4.112 4.112 0 0 0-1.722-.376c-.98 0-1.833.313-2.529.94-.395.344-.726.845-.964 1.47a.151.151 0 0 0 .016.142.144.144 0 0 0 .127.062h6.794c.048 0 .095-.031.127-.062zM99.366 3c1.927 0 3.492.736 4.645 2.191.822 1.018 1.249 2.317 1.265 3.835a.308.308 0 0 1-.095.22.313.313 0 0 1-.222.093h-9.228a.144.144 0 0 0-.11.047c-.032.031-.048.078-.032.125.11.94.474 1.738 1.09 2.38.727.735 1.596 1.095 2.655 1.095.506 0 1.011-.094 1.501-.266.49-.172.9-.407 1.233-.704a3.76 3.76 0 0 0 .632-.72.308.308 0 0 1 .252-.126c.048 0 .095.016.143.032l1.2.657a.28.28 0 0 1 .143.188.306.306 0 0 1-.047.235 6.137 6.137 0 0 1-.917 1.064 5.492 5.492 0 0 1-1.801 1.111c-.648.267-1.39.392-2.228.392-1.85 0-3.319-.61-4.362-1.816-1.043-1.19-1.564-2.567-1.564-4.07 0-1.424.442-2.692 1.327-3.803C95.968 3.72 97.486 3 99.366 3zm3.602 4.477a.15.15 0 0 0 .016-.141 3.985 3.985 0 0 0-.569-1.065 3.43 3.43 0 0 0-1.295-.97 4.165 4.165 0 0 0-1.723-.376c-.995 0-1.817.313-2.528.94-.395.344-.727.845-.964 1.47a.151.151 0 0 0 .016.142.144.144 0 0 0 .126.062h6.795c.047 0 .095-.031.126-.062zM25.846 8.232c.248.098.191 2.059-.132 4.44-.317 2.337-.772 4.214-1.04 4.312v.01l-.026-.001h-.002-.002c-1.74-.206-4.78 3.862-7.013 5.575-.652.5-1.398.83-2.129 1.052-.413.152-.93.265-1.509.327a9.387 9.387 0 0 1-1.987 0 6.464 6.464 0 0 1-1.508-.327c-.731-.222-1.477-.552-2.129-1.052-2.233-1.713-5.273-5.78-7.013-5.576l-.002.001H1.326v-.009c-.268-.098-.724-1.975-1.04-4.312-.323-2.381-.38-4.342-.132-4.44l-.001-.004.013-.004c.161-.045 2.025-.64 5.192-4.608C7.39 1.07 10.17.295 12.018.075c.37-.044.7-.066.982-.075.282.009.613.031.982.075 1.848.22 4.627.995 6.66 3.541 3.167 3.968 5.03 4.563 5.192 4.608a.73.73 0 0 0 .013.004v.004zm-8.326 6.293a2.441 2.441 0 0 0 2.45-2.433 2.441 2.441 0 0 0-2.45-2.433 2.441 2.441 0 0 0-2.45 2.433 2.441 2.441 0 0 0 2.45 2.433zM17 10a1.001 1.001 0 0 1 0 2 1.001 1.001 0 0 1 0-2zm-8.556 4.525a2.441 2.441 0 0 0 2.45-2.433 2.441 2.441 0 0 0-2.45-2.433 2.441 2.441 0 0 0-2.45 2.433 2.441 2.441 0 0 0 2.45 2.433zM8 10a1.001 1.001 0 0 1 0 2 1.001 1.001 0 0 1 0-2zm4.982-3.824a.805.805 0 0 0-.807.802c0 .442.361.801.807.801.446 0 .807-.359.807-.801a.805.805 0 0 0-.807-.802z" fill="#FFF"></path><path d="M15.446 17.543A3.207 3.207 0 0 1 13 18.672a3.206 3.206 0 0 1-2.444-1.13.22.22 0 0 1 .026-.311.225.225 0 0 1 .314.026A2.76 2.76 0 0 0 13 18.23a2.76 2.76 0 0 0 2.106-.972.225.225 0 0 1 .314-.026.22.22 0 0 1 .026.312" stroke="#232E48" stroke-width=".4" fill="#232E48"></path></g></svg><svg width="19" height="20" viewBox="0 0 19 20" id="press-Release-icon" y="265"><title>Press-Release-icon</title><path d="M17.76 0C18.446 0 19 .56 19 1.25v17.5c0 .69-.555 1.25-1.24 1.25H1.24C.554 20 0 19.44 0 18.75V1.25C0 .56.555 0 1.24 0h16.52zm.414 18.75V1.25a.415.415 0 0 0-.413-.417H1.239a.415.415 0 0 0-.413.417v17.5c0 .23.185.417.413.417h16.522a.415.415 0 0 0 .413-.417zM3.304 9.167a.83.83 0 0 1-.826-.834V4.167c0-.46.37-.834.826-.834h4.957a.83.83 0 0 1 .826.834v4.166a.83.83 0 0 1-.826.834H3.304zm0-.834h4.957V4.167H3.304v4.166zm12.805-5c.228 0 .413.187.413.417 0 .23-.185.417-.413.417h-4.957a.415.415 0 0 1-.413-.417c0-.23.185-.417.413-.417h4.957zm0 2.5c.228 0 .413.187.413.417 0 .23-.185.417-.413.417h-4.957a.415.415 0 0 1-.413-.417c0-.23.185-.417.413-.417h4.957zm0 2.5c.228 0 .413.187.413.417 0 .23-.185.417-.413.417h-4.957a.415.415 0 0 1-.413-.417c0-.23.185-.417.413-.417h4.957zm0 2.5c.228 0 .413.187.413.417 0 .23-.185.417-.413.417H2.89a.415.415 0 0 1-.413-.417c0-.23.185-.417.413-.417H16.11zm0 2.5c.228 0 .413.187.413.417 0 .23-.185.417-.413.417H2.89a.415.415 0 0 1-.413-.417c0-.23.185-.417.413-.417H16.11zm0 2.5c.228 0 .413.187.413.417 0 .23-.185.417-.413.417H2.89a.415.415 0 0 1-.413-.417c0-.23.185-.417.413-.417H16.11z" fill="#FFF" fill-rule="evenodd"></path></svg><svg width="30" height="30" viewBox="0 0 30 30" id="select-City-Arrow" y="285"><title>Select-City-Arrow</title><g fill="none" fill-rule="evenodd"><circle fill="#232E48" cx="15" cy="15" r="15"></circle><path d="M19.322 13.12L15 17.97l-4.321-4.85a.39.39 0 0 0-.562 0 .415.415 0 0 0 0 .578l4.558 5.117c.015.021.01.049.028.067.08.084.189.122.295.118a.382.382 0 0 0 .299-.118c.019-.017.014-.046.028-.068l4.558-5.116a.416.416 0 0 0 0-.578.389.389 0 0 0-.561 0z" stroke="#FFF" stroke-width="1.5" fill="#FFF"></path></g></svg><svg width="30" height="30" viewBox="0 0 30 30" id="select-City-Arrow-Hover" y="315"><title>Select-City-Arrow-Hover</title><g fill="none" fill-rule="evenodd"><circle fill="#5873BB" cx="15" cy="15" r="15"></circle><path d="M19.322 13.12L15 17.97l-4.321-4.85a.39.39 0 0 0-.562 0 .415.415 0 0 0 0 .578l4.558 5.117c.015.021.01.049.028.067.08.084.189.122.295.118a.382.382 0 0 0 .299-.118c.019-.017.014-.046.028-.068l4.558-5.116a.416.416 0 0 0 0-.578.389.389 0 0 0-.561 0z" stroke="#FFF" stroke-width="1.5" fill="#FFF"></path></g></svg><svg width="18" height="21" viewBox="0 0 18 21" id="terms-conditions" y="345"><title>T-and-C-icon</title><path d="M17.143 19.74c0 .232-.192.42-.429.42H1.286a.425.425 0 0 1-.429-.42V1.26c0-.232.192-.42.429-.42h9.835l.018 4.625c.003.692.58 1.255 1.286 1.255h4.718v13.02zM16.51 5.88h-4.086a.425.425 0 0 1-.428-.418l-.016-4.024 4.53 4.442zm1.113-.097c.24.236.376.556.376.89V19.74c0 .696-.576 1.26-1.286 1.26H1.286C.576 21 0 20.436 0 19.74V1.26C0 .564.576 0 1.286 0h9.907a1.3 1.3 0 0 1 .909.369l5.522 5.414zM4.286 12.02c0 .232.192.42.428.42h8.572a.425.425 0 0 0 .428-.42.425.425 0 0 0-.428-.42H4.714a.425.425 0 0 0-.428.42zm.428-2.94h5.143a.425.425 0 0 0 .429-.42.425.425 0 0 0-.429-.42H4.714a.425.425 0 0 0-.428.42c0 .232.192.42.428.42zm8.572 5.88H4.714a.425.425 0 0 0-.428.42c0 .232.192.42.428.42h8.572a.425.425 0 0 0 .428-.42.425.425 0 0 0-.428-.42z" fill="#FFF" fill-rule="evenodd"></path></svg><svg width="33" height="33" viewBox="0 0 33 33" id="twitter-hover" y="366"><title>Twitter-hover</title><g fill="none" fill-rule="evenodd"><circle fill="#FFD25D" cx="16.5" cy="16.5" r="16.5"></circle><path d="M23.093 13.05a5.487 5.487 0 0 1-1.577.433c.568-.34 1-.878 1.209-1.52a5.472 5.472 0 0 1-1.749.666 2.746 2.746 0 0 0-4.676 2.504 7.795 7.795 0 0 1-5.66-2.868 2.74 2.74 0 0 0 .849 3.664 2.704 2.704 0 0 1-1.241-.343v.033c0 1.331.947 2.442 2.2 2.696a2.833 2.833 0 0 1-1.24.045 2.755 2.755 0 0 0 2.564 1.907 5.518 5.518 0 0 1-3.41 1.172c-.22 0-.437-.013-.654-.037a7.77 7.77 0 0 0 4.21 1.233c5.049 0 7.81-4.182 7.81-7.808l-.008-.356a5.53 5.53 0 0 0 1.373-1.422" fill="#232E48"></path></g></svg><svg width="24" height="23" viewBox="0 0 24 23" id="x-icon" y="399"><title>X-icon</title><path d="M12 9.586L2.984.57a1.25 1.25 0 1 0-1.767 1.768l9.015 9.016-8.662 8.662a1.25 1.25 0 1 0 1.768 1.768L12 13.12l8.662 8.662a1.25 1.25 0 1 0 1.768-1.768l-8.662-8.661 9.015-9.016A1.25 1.25 0 1 0 21.016.57L12 9.586z" fill="#FFD25D" fill-rule="evenodd"></path></svg><svg width="33" height="33" viewBox="0 0 33 33" id="youtube-hover" y="422"><title>YouTube-hover</title><g fill="none" fill-rule="evenodd"><circle fill="#FFD25D" cx="16.5" cy="16.5" r="16.5"></circle><path d="M13.4 14.464h.974l.001-3.37 1.152-2.888H14.46l-.614 2.144-.62-2.15h-1.055l1.226 2.895.001 3.37zm2.858-1.181c0 .249.186.452.412.452.226 0 .41-.203.41-.452v-2.34c0-.248-.184-.451-.41-.451-.226 0-.412.203-.412.451v2.34zm-.809-1.746c0-.422.036-.751.105-.989.071-.236.198-.426.381-.57.182-.144.416-.216.7-.216.24 0 .443.046.615.139.172.091.304.212.397.36.093.148.156.302.191.457.034.16.052.398.052.72v1.112c0 .407-.017.707-.048.897-.031.191-.099.369-.204.535a.953.953 0 0 1-.398.365c-.162.08-.35.118-.56.118-.236 0-.435-.033-.598-.1a.815.815 0 0 1-.381-.306c-.091-.135-.155-.3-.194-.491-.04-.193-.058-.482-.058-.867v-1.164zm3.133 2.483c.047.115.121.21.222.28.1.072.227.106.38.106a.592.592 0 0 0 .355-.11.853.853 0 0 0 .26-.333l-.018.364h1.034V9.932h-.813v3.42a.34.34 0 0 1-.679 0v-3.42h-.848v2.965c0 .377.007.629.018.756s.04.249.089.367zm3.566 7.15l-.696.005-.002.094v.388a.379.379 0 0 1-.38.375h-.136a.38.38 0 0 1-.38-.375v-1.021h1.592v-.6c0-.437-.012-.874-.048-1.125-.114-.792-1.225-.918-1.786-.512-.177.127-.311.296-.39.524-.079.228-.118.539-.118.935v1.316c0 2.19 2.66 1.88 2.344-.003zm-2.903.294v-2.21c-.002-.841-.633-1.346-1.488-.665l.005-1.642-.926.001-.004 5.67.76-.011.07-.354c.973.894 1.585.281 1.583-.789zm-2.966-3.04h-.927v2.654c0 .384.024.576 0 .644-.076.205-.415.425-.548.022-.021-.07-.002-.282-.002-.647l-.004-2.673h-.921l.002 2.63c.001.404-.009.704.004.842.022.24.014.522.238.682.417.301 1.216-.045 1.416-.475l-.002.55h.745v-4.229zm-3.333 4.23v-4.97h1.112v-.736l-2.965-.005v.724l.926.003v4.984h.927zm10.554-5.23v4.718c0 1.132-.982 2.058-2.182 2.058h-8.97c-1.2 0-2.181-.926-2.181-2.058v-4.719c0-1.131.98-2.058 2.18-2.058h8.971c1.2 0 2.182.927 2.182 2.058zm-5.35 1.386c-.222 0-.403.15-.403.333v2.48c0 .184.181.333.404.333.224 0 .407-.15.407-.333v-2.48c0-.182-.183-.333-.407-.333zm3.295 1.093h-.878l.004-.51c0-.226.186-.411.413-.411h.057c.227 0 .414.186.414.411l-.01.51z" fill="#232E48"></path></g></svg></svg>