<svg xmlns="http://www.w3.org/2000/svg" xmlns:xlink="http://www.w3.org/1999/xlink" width="176" height="507" viewBox="0 0 176 507"><svg width="10" height="10" viewBox="0 0 10 10" id="add-room" y="0"><title>11DDB6DA-9F43-4C07-9CD2-194B8898AC6E</title><path d="M5.357 5.358v4.286a.357.357 0 0 1-.714 0V5.358H.357a.357.357 0 0 1 0-.715h4.286V.357a.358.358 0 0 1 .714 0v4.286h4.286a.358.358 0 0 1 0 .715H5.357z" fill="#232E48" fill-rule="evenodd"></path></svg><svg width="20" height="19" viewBox="0 0 20 19" id="amazing-campaigns" y="10"><title>0D6A1DC8-7CCD-4F91-AEE5-2C9FD8A002C1</title><path d="M10 1a.371.371 0 0 0-.333.2L7.07 6.18l-5.756.916a.368.368 0 0 0-.192.638l4.367 3.86-1.198 5.961a.372.372 0 0 0 .54.4l5.148-2.617 5.149 2.62a.372.372 0 0 0 .54-.398l-1.164-5.97 4.372-3.856a.368.368 0 0 0-.192-.638l-5.755-.915-2.596-4.98A.371.371 0 0 0 10.001 1m0 1.178l2.262 4.34.174.333.374.06 4.978.791-3.784 3.336-.317.28.08.41 1.019 5.224-4.463-2.27-.344-.175-.344.175-4.457 2.265 1.047-5.21.082-.413-.318-.281-3.78-3.34 4.98-.793.375-.059.173-.333L10 2.178" stroke="#232E48" stroke-width=".2" fill="#232E48" fill-rule="evenodd" opacity=".7"></path></svg><svg width="20" height="20" viewBox="0 0 20 20" id="arrow-right" y="29"><title>Arrow-right-icon</title><g stroke="#232E48" fill="none" fill-rule="evenodd"><circle stroke-width="1.2" cx="10" cy="10" r="9.4"></circle><path d="M8.58 6.975L11.814 10 8.58 13.025a.283.283 0 0 0 0 .393c.106.11.28.11.386 0l3.41-3.19c.015-.01.033-.007.046-.02A.277.277 0 0 0 12.5 10a.275.275 0 0 0-.078-.209c-.012-.013-.031-.01-.046-.02l-3.411-3.19a.268.268 0 0 0-.385 0 .282.282 0 0 0 0 .393z" stroke-width=".9" fill="#232E48"></path></g></svg><svg width="20" height="20" viewBox="0 0 20 20" id="book-campaign" y="49"><title>F10F52BD-EC17-43E5-9900-80E01D5B55EC</title><g stroke="#232E48" fill="none" fill-rule="evenodd"><circle stroke-width="1.2" cx="10" cy="10" r="9.4"></circle><path d="M8.58 6.975L11.814 10 8.58 13.025a.283.283 0 0 0 0 .393c.106.11.28.11.386 0l3.41-3.19c.015-.01.033-.007.046-.02A.277.277 0 0 0 12.5 10a.275.275 0 0 0-.078-.209c-.012-.013-.031-.01-.046-.02l-3.411-3.19a.268.268 0 0 0-.385 0 .282.282 0 0 0 0 .393z" stroke-width=".9" fill="#232E48"></path></g></svg><svg width="17" height="14" viewBox="0 0 17 14" id="chat-icon" y="69"><title>9E724262-EC4F-4C16-9AAB-AA9F2B81AFF5</title><path d="M1.83.317h13.167a.82.82 0 0 1 .83.808v9.618a.82.82 0 0 1-.83.808h-1.382v1.615a.535.535 0 0 1-.308.483.561.561 0 0 1-.58-.054l-2.725-1.988a.285.285 0 0 0-.169-.056H1.83a.82.82 0 0 1-.83-.808V1.125a.82.82 0 0 1 .83-.808zm13.444 10.426V1.125a.273.273 0 0 0-.277-.27H1.83a.274.274 0 0 0-.277.27v9.618c0 .149.124.27.277.27h8.003a.85.85 0 0 1 .503.164l2.724 1.988.001-1.776c0-.208.174-.377.388-.377h1.548c.152 0 .277-.12.277-.27zm-9.948-6.12h6.92c.19 0 .345.15.345.337a.341.341 0 0 1-.346.337H5.326a.342.342 0 0 1-.346-.337c0-.186.155-.337.346-.337zm0 2.695h4.966c.191 0 .346.151.346.337a.341.341 0 0 1-.346.337H5.326a.342.342 0 0 1-.346-.337c0-.186.155-.337.346-.337z" stroke="#232E48" stroke-width=".4" fill="#232E48" fill-rule="evenodd"></path></svg><svg width="12" height="16" viewBox="0 0 12 16" id="city-guide" y="83"><title>26F57857-049C-4E05-8787-9D8FD9042570</title><path d="M6 4a2 2 0 1 0-.001 3.999A2 2 0 0 0 6 4m0 5a3 3 0 1 1 0-6 3 3 0 0 1 0 6m0-8a5 5 0 0 0-5 5c0 2.761 5 8.499 5 8.499S11 8.761 11 6a5 5 0 0 0-5-5m0 15S0 9.313 0 6a6 6 0 1 1 12 0c0 3.313-6 10-6 10" fill="#232E48" fill-rule="evenodd" opacity=".7"></path></svg><svg width="28" height="28" viewBox="0 0 28 28" id="close-btn" y="99"><title>8BAC9CFA-8559-4646-A2CD-190D39E56BB0</title><defs><rect id="a" width="28" height="28" rx="3"></rect></defs><g fill="none" fill-rule="evenodd"><use fill="#FFF" xlink:href="#a"></use><rect stroke="#DDDEE0" x=".5" y=".5" width="27" height="27" rx="3"></rect><path d="M14.496 14l4.401 4.4a.352.352 0 0 1-.497.497l-4.4-4.4-4.4 4.4a.352.352 0 0 1-.497-.497l4.4-4.4-4.4-4.4a.352.352 0 0 1 .497-.497l4.4 4.4 4.4-4.4a.352.352 0 0 1 .497.497l-4.4 4.4z" stroke="#232E48" stroke-width=".3" fill="#232E48"></path></g></svg><svg width="16" height="11" viewBox="0 0 16 11" id="cn-flag" y="127"><title>CN-flag</title><g fill="none" fill-rule="evenodd"><path fill="#E54C3C" d="M0 11h16V0H0z"></path><path fill="#EFC319" d="M2.467 1.454l.328 1.03h1.062l-.86.635.329 1.03-.86-.636-.858.636.328-1.03-.859-.636h1.062zM5.196 1.015l.127.399h.411l-.333.246.128.4-.333-.247-.333.246.127-.399-.333-.246h.411zM5.367 2.676l.127.4h.412l-.333.246.127.4-.333-.247-.333.246.127-.399-.333-.246h.412zM4.65 4.436l.127.4h.412l-.334.246.128.4-.333-.247-.333.246.127-.399-.333-.247h.411zM3.122 5.452l.128.399h.411l-.333.246.127.4-.333-.247-.333.246.128-.399-.333-.246h.411z"></path></g></svg><svg width="15" height="16" viewBox="0 0 15 16" id="company-icon" y="138"><title>D2C2A767-0411-4580-88C6-A2F025C7E016</title><path d="M1 1h13.001V0H1v1zm1 2v12H0v1h15v-1h-2V3H2zm1 1h9v11h-2v-4H5v4H3V4zm3 11h3v-3H6v3zM10 6h1V5h-1v.999zm-3 0h1V5H7v.999zm-3 0h1V5H4v.999zm6 2h1v-.998h-1V8zM7 8h1v-.998H7V8zM4 8h1V7H4v.999zm6 2h1v-.998h-1v.998zm-3 0h1v-.998H7v.998zm-3 0h1V9H4v.999z" fill="#232E48" fill-rule="evenodd"></path></svg><svg width="14" height="10" viewBox="0 0 14 10" id="confirm-room" y="154"><title>1FABEA4D-8BB6-4348-80CA-9F4E6CF5EDB5</title><path d="M12.891 1.615L5.37 8.895a.381.381 0 0 1-.526 0c-.001-.001 0-.004-.002-.005l-.011-.008-3.72-3.6a.356.356 0 0 1 0-.515.384.384 0 0 1 .53 0l3.472 3.359 7.252-7.02a.38.38 0 0 1 .527 0 .352.352 0 0 1 0 .51" stroke="#232E48" stroke-width=".526" fill="#232E48" fill-rule="evenodd"></path></svg><svg width="16" height="16" viewBox="0 0 16 16" id="contact-icon" y="164"><title>36BCA6EA-E2D9-4DCB-BE9F-0A179759D9A3</title><path d="M5.501 8.001H10.5a.501.501 0 0 1 0 1.001H5.501a.501.501 0 0 1 0-1.001m6-2H4.5a.5.5 0 0 1 0-1h7.001a.5.5 0 0 1 0 1M8 1C4.135 1 1.001 3.687 1.001 7.001c0 2.032 1.193 3.809 3 4.891V14.5l3-1.498s-.148-.001.999-.001c3.866 0 7.001-2.686 7.001-6S11.866 1 8 1m0 13.001c-.306 0-.606-.018-.903-.048l-4.096 2.049v-3.541C1.173 11.178 0 9.211 0 7.001 0 3.135 3.582 0 8 0c4.419 0 8.001 3.135 8.001 7.001 0 3.866-3.582 7-8.001 7" fill="#232E48" fill-rule="evenodd"></path></svg><svg width="21" height="24" viewBox="0 0 21 24" id="delete-icon" y="180"><title>E3B10C93-63D3-4090-82A8-CE7AC8189A58</title><path d="M17.074 22.523a.501.501 0 0 1-.5.477H4.476a.501.501 0 0 1-.5-.475L3.051 4h14.95l-.927 18.523zM6.686 1.378A.5.5 0 0 1 7.171 1h6.658c.23 0 .43.156.484.378L14.72 3H6.281l.405-1.622zM20.5 3a.5.5 0 1 1 0 1h-1.499l-.929 18.574A1.5 1.5 0 0 1 16.574 24H4.476a1.5 1.5 0 0 1-1.498-1.424L2.05 4H.5a.5.5 0 1 1 0-1h4.75l.466-1.864A1.499 1.499 0 0 1 7.171 0h6.658a1.5 1.5 0 0 1 1.455 1.136L15.75 3h4.75zm-13 6a.5.5 0 0 0-.5.5v8a.5.5 0 0 0 1 0v-8a.5.5 0 0 0-.5-.5zm6 0a.5.5 0 0 0-.5.5v8a.5.5 0 0 0 1 0v-8a.5.5 0 0 0-.5-.5zm-3-1a.5.5 0 0 0-.5.5v10a.5.5 0 0 0 1 0v-10a.5.5 0 0 0-.5-.5z" fill="#AAABAE" fill-rule="evenodd"></path></svg><svg width="16" height="10" viewBox="0 0 16 10" id="en-flag" y="204"><title>EN-Flag</title><defs><path id="a" d="M0 10h16V0H0z"></path></defs><g fill="none" fill-rule="evenodd"><mask id="b" fill="#fff"><use xlink:href="#a"></use></mask><use fill="#4A90E2" xlink:href="#a"></use><path fill="#FFF" mask="url(#b)" d="M13.998 0L9.83 2.602V0H6.159v2.709L1.753 0H0v1.352l3.16 1.952H0v3.464h3.134L0 8.734V10h2.073L6.16 7.441V10h3.67V7.396L14.05 10H16V8.749l-3.211-1.98H16V3.303h-3.195l3.195-2V0z"></path><path fill="#E53C53" mask="url(#b)" d="M0 0v.96l3.984 2.676h1.35zM10.667 7.273L16 10.909v-.913l-3.982-2.723zM5.152 7.273L0 10.909h1.234l4.988-3.458v-.178zM14.823 0L9.778 3.412v.224h.995L16 .09V0z"></path><path fill="#E53C53" mask="url(#b)" d="M6.945 0v4.04H0v1.993h6.945V10h2.098V6.033H16V4.04H9.043V0z"></path></g></svg><svg width="14" height="14" viewBox="0 0 14 14" id="footer-plus" y="214"><title>283390D1-EB92-41D3-A6C3-6757EBA14048</title><path d="M13.5 7.501h-6v6a.5.5 0 0 1-1 0v-6h-6A.5.5 0 0 1 .5 6.5h6v-6a.5.5 0 0 1 1 0v6h6a.501.501 0 0 1 0 1.001" fill="#232E48" fill-rule="evenodd"></path></svg><svg width="19" height="18" viewBox="0 0 19 18" id="fun-selfies" y="228"><title>0F9D3238-B665-469F-80A0-F546FEFCA879</title><path d="M17.524 9.409c-.188 1.417-.414 2.335-.537 2.62-.86.034-1.918 1.117-3.037 2.262-.548.561-1.116 1.142-1.6 1.521a4.022 4.022 0 0 1-1.3.653l-.007.002-.008.003a3.87 3.87 0 0 1-.917.202 5.712 5.712 0 0 1-1.237 0 3.874 3.874 0 0 1-.916-.202l-.008-.003-.008-.002a4.026 4.026 0 0 1-1.3-.653c-.483-.379-1.05-.96-1.6-1.521-1.118-1.145-2.176-2.227-3.036-2.262-.123-.285-.35-1.203-.538-2.62-.19-1.44-.21-2.392-.163-2.685.41-.163 1.594-.798 3.42-3.13C5.98 2 7.683 1.49 8.891 1.343a7.04 7.04 0 0 1 .608-.048c.198.007.402.023.607.048 1.21.146 2.912.656 4.161 2.251 1.825 2.331 3.009 2.967 3.42 3.13.047.293.028 1.245-.164 2.685m.376-2.92c.161.065.124 1.372-.087 2.96-.207 1.557-.505 2.809-.68 2.874v.006h-.017-.001-.002a.692.692 0 0 0-.084-.006c-1.15 0-3.077 2.608-4.501 3.723a4.32 4.32 0 0 1-1.392.7c-.27.102-.608.178-.986.219a5.977 5.977 0 0 1-1.3 0 4.152 4.152 0 0 1-.986-.218 4.31 4.31 0 0 1-1.392-.701c-1.425-1.115-3.351-3.723-4.5-3.723a.692.692 0 0 0-.086.005h-.002l-.017.001v-.006c-.175-.065-.473-1.317-.68-2.875C.976 7.861.939 6.554 1.1 6.488v-.003l.008-.002c.106-.03 1.324-.427 3.395-3.072C5.833 1.713 7.65 1.197 8.858 1.05c.241-.03.458-.044.642-.05.184.006.4.02.642.05 1.208.147 3.025.663 4.355 2.361 2.07 2.645 3.289 3.041 3.395 3.072a.115.115 0 0 0 .008.002v.003zm-11.379 3.9a1.32 1.32 0 0 1-1.31-1.328 1.32 1.32 0 0 1 1.31-1.326c.723 0 1.31.595 1.31 1.326a1.32 1.32 0 0 1-1.31 1.327zm0-2.95c-.885 0-1.602.727-1.602 1.622 0 .896.717 1.622 1.602 1.622.885 0 1.602-.726 1.602-1.622 0-.895-.717-1.621-1.602-1.621zm5.934 2.95a1.32 1.32 0 0 1-1.31-1.328 1.32 1.32 0 0 1 1.31-1.326c.723 0 1.311.595 1.311 1.326a1.32 1.32 0 0 1-1.31 1.327zm0-2.95c-.884 0-1.602.727-1.602 1.622 0 .896.718 1.622 1.602 1.622.885 0 1.602-.726 1.602-1.622 0-.895-.717-1.621-1.602-1.621zM9.488 6.187c.292 0 .528-.239.528-.534a.531.531 0 0 0-.528-.535.531.531 0 0 0-.528.535c0 .295.237.534.528.534zm1.389 6.319a1.79 1.79 0 0 1-1.377.648 1.79 1.79 0 0 1-1.376-.648.145.145 0 0 0-.205-.018.149.149 0 0 0-.017.208c.4.478.982.753 1.598.753.617 0 1.2-.275 1.6-.753a.15.15 0 0 0-.018-.208.145.145 0 0 0-.205.018z" stroke="#232E48" stroke-width=".6" fill="#232E48" fill-rule="evenodd" opacity=".7"></path></svg><svg width="21" height="20" viewBox="0 0 21 20" id="get-help" y="246"><title>814A5F46-EA30-4A02-BE5A-396D69B84E7C</title><path d="M10.92 0C4.701 0 0 3.98 0 9.167c0 2.734 1.79 5.365 4.2 7.5V20l5.04-2.5c-.24.28-.462.28 1.68 0C16.297 17.78 21 13.799 21 9.167 21 3.98 16.297 0 10.92 0" fill="#FFF" fill-rule="evenodd"></path></svg><svg width="18" height="18" viewBox="0 0 18 18" id="hamburguer-icon" y="266"><title>75D4B9BB-B755-4C16-A2A7-7DB9B330E7EF</title><path d="M0 0h18v2H0V0zm0 8h18v2H0V8zm0 8h18v2H0v-2z" fill="#FFF" fill-rule="evenodd"></path></svg><svg width="16" height="10" viewBox="0 0 16 10" id="jp-flag" y="284"><title>JP-flag</title><g fill="none" fill-rule="evenodd"><path fill="#FFF" d="M0 0h16v10H0z"></path><circle fill="#E53C53" cx="8" cy="5" r="3"></circle></g></svg><svg width="16" height="11" viewBox="0 0 16 11" id="kr-flag" y="294"><title>KR-flag</title><g fill="none" fill-rule="evenodd"><path fill="#FFF" d="M0 10.94h15.821V0H0z"></path><g transform="translate(1.86 1.291)"><path d="M8.697 4.882c.221-.91-.63-1.658-1.333-1.658-.407 0-.777.216-.999.531-.148.19-.666.994-.777 1.134-.222.21-.518.356-.851.356-.703 0-1.37-.622-1.37-1.615 0 0-.037.384-.037.51 0 1.644 1.222 2.882 2.739 2.868C7.4 7 8.399 6 8.697 4.882" fill="#3B96D2"></path><path d="M3.368 3.637c.259-1.3 1.368-2.287 2.7-2.287 1.48 0 2.702 1.266 2.702 2.833 0 .244-.037.474-.073.706v-.007c.221-.91-.63-1.658-1.333-1.658-.407 0-.777.216-.999.531-.148.19-.666.994-.777 1.134-.222.21-.518.356-.852.356-.702 0-1.368-.622-1.368-1.615v.007" fill="#E54C3C"></path><path fill="#2C3E50" d="M1.74.533L.472 1.85.135 1.5 1.404.184zM2.305 1.12L1.037 2.435l-.336-.348L1.969.77zM10.36.533L11.63 1.85l.336-.349L10.697.184zM9.795 1.12l1.268 1.315.337-.348L10.13.77zM10.36 7.824L11.63 6.51l.336.348-1.268 1.316zM9.795 7.238l1.268-1.316.337.349-1.269 1.316zM1.74 7.824L.47 6.51l-.336.348 1.269 1.316zM2.305 7.238L1.037 5.922.7 6.271l1.268 1.316z"></path></g></g></svg><svg width="176" height="26" viewBox="0 0 176 26" id="ms-logo" y="305"><title>6DDF3DE6-C58E-481D-BCB5-B1DDAAE9F1A4</title><path d="M48.627 11.62V5.982h1.75v13.983h-1.75v-6.713H41.94v6.713h-1.75V5.982h1.75v5.638h6.686zm18.009 1.353c0 4.155-3.297 7.29-7.356 7.29-4.06 0-7.357-3.135-7.357-7.29 0-4.006 3.333-7.288 7.357-7.288 4.023 0 7.356 3.282 7.356 7.288zm-1.75 0c0-3.078-2.31-5.656-5.606-5.656-3.298 0-5.607 2.578-5.607 5.656 0 3.19 2.57 5.657 5.607 5.657 3.035 0 5.606-2.467 5.606-5.657zm6.853 6.992h-1.751V7.576h-3.334V5.982h8.419v1.594h-3.334v12.389zM76.45 5.982h7.544v1.595h-5.793v3.913h5.625v1.595H78.2v5.284h5.793v1.596H76.45V5.982zM87.904 18.37h4.266v1.595h-6.016V5.982h1.75V18.37zm14.303-7.64h-.037l-1.64 9.235h-1.805l2.866-14.577 4.825 11.016 4.824-11.016 2.868 14.577H112.3l-1.638-9.235h-.037l-4.209 9.532-4.209-9.532zm12.199-4.748h2.01l3.447 5.971 3.446-5.971h2.01l-4.58 7.9v6.083h-1.752v-6.083l-4.581-7.9zm18.364 2.652c-.523-.872-1.193-1.316-2.255-1.316-1.117 0-2.346.76-2.346 1.983 0 1.094 1.08 1.67 1.956 2.003l1.004.39c1.994.778 3.484 1.872 3.484 4.21 0 2.54-1.975 4.358-4.488 4.358-2.272 0-4.042-1.669-4.34-3.914l1.77-.37c-.02 1.54 1.21 2.652 2.719 2.652 1.507 0 2.588-1.262 2.588-2.727 0-1.502-1.21-2.15-2.421-2.652l-.969-.408c-1.601-.685-3.053-1.595-3.053-3.542 0-2.262 2.01-3.616 4.134-3.616 1.564 0 2.849.76 3.612 2.114l-1.395.835zm7.542 11.331h-1.75V7.576h-3.334V5.982h8.417v1.594h-3.333v12.389zm6.332-3.505l-1.6 3.505h-1.882l6.704-14.576 6.705 14.576h-1.882l-1.6-3.505h-6.445zm3.222-7.251l-2.495 5.656h4.991l-2.496-5.656zm5.308-3.227h2.011l3.446 5.971 3.444-5.971h2.012l-4.581 7.9v6.083h-1.75v-6.083l-4.582-7.9zm18.363 2.652c-.522-.872-1.192-1.316-2.254-1.316-1.117 0-2.346.76-2.346 1.983 0 1.094 1.08 1.67 1.955 2.003l1.006.39c1.992.778 3.483 1.872 3.483 4.21 0 2.54-1.974 4.358-4.49 4.358-2.27 0-4.04-1.669-4.337-3.914l1.767-.37c-.017 1.54 1.211 2.652 2.72 2.652 1.508 0 2.59-1.262 2.59-2.727 0-1.502-1.211-2.15-2.422-2.652l-.969-.408c-1.6-.685-3.054-1.595-3.054-3.542 0-2.262 2.01-3.616 4.135-3.616 1.564 0 2.849.76 3.613 2.114l-1.397.835zM13.052 26l-2.089-2.078 2.09-2.08 2.088 2.079L13.052 26zm2.089-10.396l4.177 4.159-2.09 2.079-2.087-2.08-2.089 2.08-2.088-2.08-2.087 2.08-2.09-2.08 4.177-4.158 2.088 2.079 2.089-2.08zm-2.082 1.031L4.707 8.317 13.059 0l8.354 8.317-8.354 8.318zm6.787 2.6l-4.176-4.16 6.264-6.237 4.176 4.159-6.264 6.238zm-9.404-4.153l-4.177 4.16L0 13.004l4.178-4.159 6.264 6.237z" fill="#FFF" fill-rule="evenodd"></path></svg><svg width="20" height="23" viewBox="0 0 20 23" id="newsletter-icon" y="331"><title>16701502-7717-4384-AAE7-113644A8F9F8</title><path d="M0 0v23h1.501l2.639-2.875L7.096 23l2.84-2.875L12.883 23l2.747-2.875L18.43 23H20V0H0zm1.429 1.438H18.57v19.654l-1.92-1.973-1.03-1.057L14.6 19.13l-1.753 1.835-1.916-1.871-1.012-.988-.996 1.007-1.847 1.87-1.942-1.89-1.053-1.024-.988 1.082-1.664 1.81V1.437zm2.857 4.31h6.834V4.31H4.286v1.436zm0 5.75h11.428V10.06H4.286v1.437zm0 2.876h11.428v-1.438H4.286v1.438z" fill="#7B7D86" fill-rule="evenodd"></path></svg><svg width="18" height="18" viewBox="0 0 18 18" id="offers-icon" y="354"><title>Check-icon-2</title><path d="M7.498 12.837a.632.632 0 0 1-.847 0c-.009-.008-.005-.022-.013-.029-.005-.006-.013-.004-.018-.008L4.19 10.54a.573.573 0 0 1 0-.855.686.686 0 0 1 .92 0l2.04 1.9 5.828-5.421a.628.628 0 0 1 .846 0 .53.53 0 0 1 0 .788l-6.327 5.885zM9 0a9 9 0 0 0-9 9c0 4.968 4.03 9 9 9s9-4.032 9-9a9 9 0 0 0-9-9z" fill="#232E48" fill-rule="evenodd"></path></svg><svg width="115" height="24" viewBox="0 0 115 24" id="pepper-logo" y="372"><title>Pepper-Logo</title><g fill="none" fill-rule="evenodd"><path d="M114.994 3.595a.39.39 0 0 1-.032.235l-.727 1.158a.305.305 0 0 1-.252.14c-.048 0-.08 0-.127-.03-.253-.11-.458-.157-.616-.157-.395 0-.759.156-1.138.485-.38.329-.68.877-.885 1.612-.158.58-.253 1.8-.253 3.616v3.615a.299.299 0 0 1-.3.298h-1.422c-.174 0-.3-.14-.3-.297V8.118c0-2.551 1.374-4.132 2.544-4.711a4.043 4.043 0 0 1 1.69-.407h.19c.458 0 1.043.157 1.486.407a.28.28 0 0 1 .142.188zM70.748 3c1.612 0 3.003.58 4.156 1.737 1.138 1.143 1.723 2.552 1.723 4.164 0 1.643-.57 3.068-1.707 4.21-1.138 1.159-2.528 1.738-4.124 1.738-.9 0-1.738-.188-2.497-.564-.442-.219-.869-.5-1.264-.845-.032-.031-.063-.031-.095-.031-.015 0-.047 0-.063.015-.047.031-.095.078-.095.141v7.137a.299.299 0 0 1-.3.298h-1.407c-.173 0-.3-.14-.3-.297V9.042c0-1.675.585-3.115 1.723-4.258C67.667 3.61 69.089 3 70.748 3zm3.414 7.967c.363-.642.553-1.315.553-2.003 0-.705-.19-1.378-.538-2.004-.363-.626-.837-1.127-1.453-1.471a3.65 3.65 0 0 0-1.976-.548c-1.121 0-2.038.376-2.812 1.158-.775.783-1.138 1.722-1.138 2.896 0 .751.174 1.44.506 2.035a3.62 3.62 0 0 0 1.453 1.424c.632.36 1.312.532 2.007.532.68 0 1.343-.172 1.944-.532.6-.36 1.09-.86 1.454-1.487zM41.973 3c1.612 0 3.002.58 4.156 1.737 1.138 1.143 1.723 2.552 1.723 4.164 0 1.643-.57 3.068-1.707 4.21-1.138 1.159-2.528 1.738-4.124 1.738-.901 0-1.738-.188-2.497-.564-.442-.219-.87-.5-1.264-.845-.032-.031-.063-.031-.095-.031-.016 0-.047 0-.063.015-.047.031-.095.078-.095.141v7.137a.299.299 0 0 1-.3.298H36.3c-.173 0-.3-.14-.3-.297V9.042c0-1.675.585-3.115 1.722-4.258C38.892 3.61 40.33 3 41.973 3zm3.413 7.967a4.016 4.016 0 0 0 .538-2.003 3.93 3.93 0 0 0-.538-2.004c-.363-.626-.837-1.127-1.438-1.471a3.65 3.65 0 0 0-1.975-.548c-1.122 0-2.038.376-2.813 1.158-.774.783-1.137 1.722-1.137 2.896 0 .751.173 1.44.505 2.035.332.594.822 1.08 1.454 1.424.632.36 1.312.532 2.007.532.68 0 1.343-.172 1.944-.532.6-.36 1.09-.86 1.453-1.487zM85.191 3c1.612 0 3.003.58 4.156 1.737C90.485 5.88 91.07 7.29 91.07 8.901c0 1.643-.57 3.068-1.707 4.21-1.138 1.159-2.528 1.738-4.124 1.738-.901 0-1.738-.188-2.497-.564-.442-.219-.869-.5-1.264-.845-.032-.031-.063-.031-.095-.031-.016 0-.047 0-.063.015-.047.031-.095.078-.095.141v7.137a.299.299 0 0 1-.3.298h-1.407c-.173 0-.3-.14-.3-.297V9.042c0-1.675.585-3.115 1.723-4.258C82.11 3.61 83.548 3 85.19 3zm3.414 7.967c.363-.642.553-1.315.553-2.003a3.93 3.93 0 0 0-.538-2.004c-.363-.626-.837-1.127-1.454-1.471a3.65 3.65 0 0 0-1.975-.548c-1.122 0-2.038.376-2.812 1.158-.775.783-1.138 1.722-1.138 2.896 0 .751.174 1.44.505 2.035.332.594.822 1.08 1.454 1.424.632.36 1.312.532 2.007.532.68 0 1.343-.172 1.944-.532.6-.36 1.09-.86 1.454-1.487zM56.037 3c1.928 0 3.492.736 4.646 2.191.821 1.033 1.248 2.317 1.264 3.835a.308.308 0 0 1-.095.22.313.313 0 0 1-.221.093h-9.229a.144.144 0 0 0-.11.047c-.032.031-.048.078-.032.125.11.94.474 1.738 1.09 2.38.727.735 1.596 1.095 2.655 1.095.506 0 1.012-.094 1.501-.266.49-.172.901-.407 1.233-.704a3.76 3.76 0 0 0 .632-.72.308.308 0 0 1 .253-.126c.047 0 .094.016.142.032l1.2.657a.28.28 0 0 1 .143.188.306.306 0 0 1-.047.235 6.137 6.137 0 0 1-.917 1.064 5.492 5.492 0 0 1-1.801 1.111c-.648.267-1.406.392-2.228.392-1.85 0-3.319-.61-4.361-1.816-1.043-1.19-1.565-2.567-1.565-4.07 0-1.424.442-2.692 1.327-3.803C52.64 3.72 54.157 3 56.037 3zm3.587 4.477a.15.15 0 0 0 .016-.141 3.985 3.985 0 0 0-.57-1.065 3.43 3.43 0 0 0-1.295-.97 4.112 4.112 0 0 0-1.722-.376c-.98 0-1.833.313-2.529.94-.395.344-.726.845-.964 1.47a.151.151 0 0 0 .016.142.144.144 0 0 0 .127.062h6.794c.048 0 .095-.031.127-.062zM99.366 3c1.927 0 3.492.736 4.645 2.191.822 1.018 1.249 2.317 1.265 3.835a.308.308 0 0 1-.095.22.313.313 0 0 1-.222.093h-9.228a.144.144 0 0 0-.11.047c-.032.031-.048.078-.032.125.11.94.474 1.738 1.09 2.38.727.735 1.596 1.095 2.655 1.095.506 0 1.011-.094 1.501-.266.49-.172.9-.407 1.233-.704a3.76 3.76 0 0 0 .632-.72.308.308 0 0 1 .252-.126c.048 0 .095.016.143.032l1.2.657a.28.28 0 0 1 .143.188.306.306 0 0 1-.047.235 6.137 6.137 0 0 1-.917 1.064 5.492 5.492 0 0 1-1.801 1.111c-.648.267-1.39.392-2.228.392-1.85 0-3.319-.61-4.362-1.816-1.043-1.19-1.564-2.567-1.564-4.07 0-1.424.442-2.692 1.327-3.803C95.968 3.72 97.486 3 99.366 3zm3.602 4.477a.15.15 0 0 0 .016-.141 3.985 3.985 0 0 0-.569-1.065 3.43 3.43 0 0 0-1.295-.97 4.165 4.165 0 0 0-1.723-.376c-.995 0-1.817.313-2.528.94-.395.344-.727.845-.964 1.47a.151.151 0 0 0 .016.142.144.144 0 0 0 .126.062h6.795c.047 0 .095-.031.126-.062zM25.846 8.232c.248.098.191 2.059-.132 4.44-.317 2.337-.772 4.214-1.04 4.312v.01l-.026-.001h-.002-.002c-1.74-.206-4.78 3.862-7.013 5.575-.652.5-1.398.83-2.129 1.052-.413.152-.93.265-1.509.327a9.387 9.387 0 0 1-1.987 0 6.464 6.464 0 0 1-1.508-.327c-.731-.222-1.477-.552-2.129-1.052-2.233-1.713-5.273-5.78-7.013-5.576l-.002.001H1.326v-.009c-.268-.098-.724-1.975-1.04-4.312-.323-2.381-.38-4.342-.132-4.44l-.001-.004.013-.004c.161-.045 2.025-.64 5.192-4.608C7.39 1.07 10.17.295 12.018.075c.37-.044.7-.066.982-.075.282.009.613.031.982.075 1.848.22 4.627.995 6.66 3.541 3.167 3.968 5.03 4.563 5.192 4.608a.73.73 0 0 0 .013.004v.004zm-8.326 6.293a2.441 2.441 0 0 0 2.45-2.433 2.441 2.441 0 0 0-2.45-2.433 2.441 2.441 0 0 0-2.45 2.433 2.441 2.441 0 0 0 2.45 2.433zM17 10a1.001 1.001 0 0 1 0 2 1.001 1.001 0 0 1 0-2zm-8.556 4.525a2.441 2.441 0 0 0 2.45-2.433 2.441 2.441 0 0 0-2.45-2.433 2.441 2.441 0 0 0-2.45 2.433 2.441 2.441 0 0 0 2.45 2.433zM8 10a1.001 1.001 0 0 1 0 2 1.001 1.001 0 0 1 0-2zm4.982-3.824a.805.805 0 0 0-.807.802c0 .442.361.801.807.801.446 0 .807-.359.807-.801a.805.805 0 0 0-.807-.802z" fill="#FFF"></path><path d="M15.446 17.543A3.207 3.207 0 0 1 13 18.672a3.206 3.206 0 0 1-2.444-1.13.22.22 0 0 1 .026-.311.225.225 0 0 1 .314.026A2.76 2.76 0 0 0 13 18.23a2.76 2.76 0 0 0 2.106-.972.225.225 0 0 1 .314-.026.22.22 0 0 1 .026.312" stroke="#232E48" stroke-width=".4" fill="#232E48"></path></g></svg><svg width="16" height="16" viewBox="0 0 16 16" id="plus-icon" y="396"><title>1EA53830-7B94-442D-920B-FB49E3B81F91</title><path d="M9.93 7.851l4.992-4.991a1.47 1.47 0 0 0-2.08-2.08l-4.99 4.991L2.86.781A1.47 1.47 0 1 0 .78 2.86L5.771 7.85l-4.99 4.991a1.47 1.47 0 1 0 2.08 2.08h-.001L7.85 9.931l4.991 4.991a1.47 1.47 0 0 0 2.08-2.08l-4.991-4.99z" fill="#FFD25D" fill-rule="evenodd"></path></svg><svg width="16" height="16" viewBox="0 0 16 16" id="policies" y="412"><title>E35B65F7-2D4F-4809-9E36-EA9610E3B05D</title><path d="M5 4.999h9V4H5v.999zM5 8h9V7H5v1zm0 3h9v-1H5v1zm10-9.501A.5.5 0 0 0 14.5 1h-10a.5.5 0 0 0-.5.499v12.5H3v-9H1.5A.5.5 0 0 0 1 5.5v8.999a.5.5 0 0 0 .5.5h13a.5.5 0 0 0 .5-.5v-13zm-.5 14.5h-13a1.5 1.5 0 0 1-1.5-1.5V5.5C0 4.67.671 4 1.5 4H3V1.499A1.5 1.5 0 0 1 4.5 0h10A1.5 1.5 0 0 1 16 1.499v13a1.5 1.5 0 0 1-1.5 1.5z" fill="#232E48" fill-rule="evenodd"></path></svg><svg width="19" height="20" viewBox="0 0 19 20" id="press-release" y="428"><title>9A467554-A78C-4D73-985E-A7BAE9A98B3F</title><path d="M17.76 0C18.446 0 19 .56 19 1.25v17.5c0 .69-.555 1.25-1.24 1.25H1.24C.554 20 0 19.44 0 18.75V1.25C0 .56.555 0 1.24 0h16.52zm.414 18.75V1.25a.415.415 0 0 0-.413-.417H1.239a.415.415 0 0 0-.413.417v17.5c0 .23.185.417.413.417h16.522a.415.415 0 0 0 .413-.417zM3.304 9.167a.83.83 0 0 1-.826-.834V4.167c0-.46.37-.834.826-.834h4.957a.83.83 0 0 1 .826.834v4.166a.83.83 0 0 1-.826.834H3.304zm0-.834h4.957V4.167H3.304v4.166zm12.805-5c.228 0 .413.187.413.417 0 .23-.185.417-.413.417h-4.957a.415.415 0 0 1-.413-.417c0-.23.185-.417.413-.417h4.957zm0 2.5c.228 0 .413.187.413.417 0 .23-.185.417-.413.417h-4.957a.415.415 0 0 1-.413-.417c0-.23.185-.417.413-.417h4.957zm0 2.5c.228 0 .413.187.413.417 0 .23-.185.417-.413.417h-4.957a.415.415 0 0 1-.413-.417c0-.23.185-.417.413-.417h4.957zm0 2.5c.228 0 .413.187.413.417 0 .23-.185.417-.413.417H2.89a.415.415 0 0 1-.413-.417c0-.23.185-.417.413-.417H16.11zm0 2.5c.228 0 .413.187.413.417 0 .23-.185.417-.413.417H2.89a.415.415 0 0 1-.413-.417c0-.23.185-.417.413-.417H16.11zm0 2.5c.228 0 .413.187.413.417 0 .23-.185.417-.413.417H2.89a.415.415 0 0 1-.413-.417c0-.23.185-.417.413-.417H16.11z" fill="#FFF" fill-rule="evenodd"></path></svg><svg width="18" height="21" viewBox="0 0 18 21" id="terms-conditions" y="448"><title>T-and-C-icon</title><path d="M17.143 19.74c0 .232-.192.42-.429.42H1.286a.425.425 0 0 1-.429-.42V1.26c0-.232.192-.42.429-.42h9.835l.018 4.625c.003.692.58 1.255 1.286 1.255h4.718v13.02zM16.51 5.88h-4.086a.425.425 0 0 1-.428-.418l-.016-4.024 4.53 4.442zm1.113-.097c.24.236.376.556.376.89V19.74c0 .696-.576 1.26-1.286 1.26H1.286C.576 21 0 20.436 0 19.74V1.26C0 .564.576 0 1.286 0h9.907a1.3 1.3 0 0 1 .909.369l5.522 5.414zM4.286 12.02c0 .232.192.42.428.42h8.572a.425.425 0 0 0 .428-.42.425.425 0 0 0-.428-.42H4.714a.425.425 0 0 0-.428.42zm.428-2.94h5.143a.425.425 0 0 0 .429-.42.425.425 0 0 0-.429-.42H4.714a.425.425 0 0 0-.428.42c0 .232.192.42.428.42zm8.572 5.88H4.714a.425.425 0 0 0-.428.42c0 .232.192.42.428.42h8.572a.425.425 0 0 0 .428-.42.425.425 0 0 0-.428-.42z" fill="#FFF" fill-rule="evenodd"></path></svg><svg width="15" height="15" viewBox="0 0 15 15" id="website-icon" y="469"><title>2F8E29A1-9756-4156-A363-AEC009C5E953</title><path d="M6 3h1V2H6v1zM4 3h1V2H4v1zM2 3h1V2H2v1zm12 2H1v8.5c0 .275.224.5.5.5h12c.276 0 .5-.225.5-.5V5zm0-3.5a.5.5 0 0 0-.5-.5h-12a.5.5 0 0 0-.5.5V4h13V1.5zm.5 13.5H.5a.5.5 0 0 1-.5-.5V.5A.5.5 0 0 1 .5 0h14a.5.5 0 0 1 .5.5v14a.5.5 0 0 1-.5.5z" fill="#232E48" fill-rule="evenodd"></path></svg><svg width="24" height="23" viewBox="0 0 24 23" id="x-icon" y="484"><title>X-icon</title><path d="M12 9.586L2.984.57a1.25 1.25 0 1 0-1.767 1.768l9.015 9.016-8.662 8.662a1.25 1.25 0 1 0 1.768 1.768L12 13.12l8.662 8.662a1.25 1.25 0 1 0 1.768-1.768l-8.662-8.661 9.015-9.016A1.25 1.25 0 1 0 21.016.57L12 9.586z" fill="#FFD25D" fill-rule="evenodd"></path></svg></svg>