<?xml version="1.0" encoding="UTF-8" standalone="no"?>
<svg width="17px" height="14px" viewBox="0 0 17 14" version="1.1" xmlns="http://www.w3.org/2000/svg" xmlns:xlink="http://www.w3.org/1999/xlink">
    <!-- Generator: sketchtool 45.2 (43514) - http://www.bohemiancoding.com/sketch -->
    <title>9E724262-EC4F-4C16-9AAB-AA9F2B81AFF5</title>
    <desc>Created with sketchtool.</desc>
    <defs></defs>
    <g id="Page-1" stroke="none" stroke-width="1" fill="none" fill-rule="evenodd">
        <g id="MS-Pepper-Landing-Page-Desktop-JP" transform="translate(-280.000000, -1079.000000)" stroke="#232E48" stroke-width="0.4" fill="#232E48">
            <g id="Featured-Hotels-Live-Support" transform="translate(0.000000, 925.000000)">
                <g id="Tabs" transform="translate(229.000000, 130.000000)">
                    <g id="Live-Support" transform="translate(1.000000, 0.000000)">
                        <g id="label" transform="translate(51.000000, 20.000000)">
                            <path d="M0.829744186,4.31697805 L13.9973721,4.31697805 C14.454814,4.31697805 14.8269535,4.67939268 14.8269535,5.12488049 L14.8269535,14.7429293 C14.8269535,15.1884171 14.454814,15.5508317 13.9973721,15.5508317 L12.6146279,15.5508317 L12.6146279,17.1663195 C12.6146279,17.3724171 12.4967674,17.5572707 12.3072791,17.6489049 C12.2284884,17.6866366 12.1441628,17.7053439 12.060814,17.7053439 C11.9426279,17.7053439 11.8254186,17.6679293 11.7267674,17.5950024 L9.00230233,15.6069537 C8.95248837,15.5701732 8.89323256,15.5508317 8.83332558,15.5508317 L0.829744186,15.5508317 C0.371976744,15.5508317 -0.000162790698,15.1884171 -0.000162790698,14.7429293 L-0.000162790698,5.12488049 C-0.000162790698,4.67939268 0.371976744,4.31697805 0.829744186,4.31697805 Z M14.2737907,14.7429293 L14.2737907,5.12488049 C14.2737907,4.97649024 14.1494186,4.85568537 13.9973721,4.85568537 L0.829744186,4.85568537 C0.677372093,4.85568537 0.553,4.97649024 0.553,5.12488049 L0.553,14.7429293 C0.553,14.8916366 0.677372093,15.0121244 0.829744186,15.0121244 L8.83332558,15.0121244 C9.01369767,15.0121244 9.1917907,15.0707829 9.33569767,15.1770024 L12.0598372,17.1650512 L12.0614651,15.3894415 C12.0614651,15.1814415 12.2353256,15.0121244 12.448907,15.0121244 L13.9973721,15.0121244 C14.1494186,15.0121244 14.2737907,14.8916366 14.2737907,14.7429293 Z M4.32646512,8.62284634 L11.2453953,8.62284634 C11.4365116,8.62284634 11.5911628,8.77377317 11.5911628,8.95989512 C11.5911628,9.1457 11.4365116,9.29662683 11.2453953,9.29662683 L4.32646512,9.29662683 C4.13534884,9.29662683 3.98037209,9.1457 3.98037209,8.95989512 C3.98037209,8.77377317 4.13534884,8.62284634 4.32646512,8.62284634 Z M4.32646512,11.3181585 L9.29190698,11.3181585 C9.48302326,11.3181585 9.63767442,11.4690854 9.63767442,11.6552073 C9.63767442,11.8410122 9.48302326,11.991939 9.29190698,11.991939 L4.32646512,11.991939 C4.13534884,11.991939 3.98037209,11.8410122 3.98037209,11.6552073 C3.98037209,11.4690854 4.13534884,11.3181585 4.32646512,11.3181585 Z" id="Chat-icon"></path>
                        </g>
                    </g>
                </g>
            </g>
        </g>
    </g>
</svg>