<?xml version="1.0" encoding="UTF-8" standalone="no"?>
<svg width="12px" height="16px" viewBox="0 0 12 16" version="1.1" xmlns="http://www.w3.org/2000/svg" xmlns:xlink="http://www.w3.org/1999/xlink">
    <!-- Generator: sketchtool 45.2 (43514) - http://www.bohemiancoding.com/sketch -->
    <title>26F57857-049C-4E05-8787-9D8FD9042570</title>
    <desc>Created with sketchtool.</desc>
    <defs></defs>
    <g id="Page-1" stroke="none" stroke-width="1" fill="none" fill-rule="evenodd" opacity="0.699999988">
        <g id="MS-Pepper-Landing-Page-Desktop-JP" transform="translate(-531.000000, -1077.000000)" fill="#232E48">
            <g id="Featured-Hotels-Live-Support" transform="translate(0.000000, 925.000000)">
                <g id="Tabs" transform="translate(229.000000, 130.000000)">
                    <g id="City-Guide" transform="translate(241.000000, 0.000000)">
                        <g id="label" transform="translate(61.000000, 20.000000)">
                            <path d="M6,6 C4.895,6 4,6.895 4,8 C4,9.104 4.895,10 6,10 C7.104,10 8,9.104 8,8 C8,6.895 7.104,6 6,6 M6,11 C4.343,11 3,9.656 3,8 C3,6.343 4.343,5 6,5 C7.657,5 9,6.343 9,8 C9,9.656 7.657,11 6,11 M6,3 C3.238,3 1,5.238 1,8 C1,10.761 6,16.499 6,16.499 C6,16.499 11,10.761 11,8 C11,5.238 8.762,3 6,3 M6,18 C6,18 0,11.313 0,8 C0,4.686 2.686,2 6,2 C9.313,2 12,4.686 12,8 C12,11.313 6,18 6,18" id="City-guide-icon"></path>
                        </g>
                    </g>
                </g>
            </g>
        </g>
    </g>
</svg>