<?xml version="1.0" encoding="UTF-8" standalone="no"?>
<svg width="15px" height="16px" viewBox="0 0 15 16" version="1.1" xmlns="http://www.w3.org/2000/svg" xmlns:xlink="http://www.w3.org/1999/xlink">
    <!-- Generator: sketchtool 45.2 (43514) - http://www.bohemiancoding.com/sketch -->
    <title>D2C2A767-0411-4580-88C6-A2F025C7E016</title>
    <desc>Created with sketchtool.</desc>
    <defs></defs>
    <g id="Symbols" stroke="none" stroke-width="1" fill="none" fill-rule="evenodd">
        <g id="Footer" transform="translate(-708.000000, -71.000000)" fill="#232E48">
            <g id="pre-footer">
                <g>
                    <g id="Group-28" transform="translate(708.000000, 65.000000)">
                        <path d="M1,6.9999375 L14.001,6.9999375 L14.001,6 L1,6 L1,6.9999375 Z M2,8.99987501 L2,21.0000625 L0,21.0000625 L0,22 L2,22 L13,22 L15,22 L15,21.0000625 L13,21.0000625 L13,8.99987501 L2,8.99987501 Z M3,9.99981251 L12,9.99981251 L12,21.0000625 L10,21.0000625 L10,17.0003125 L5,17.0003125 L5,21.0000625 L3,21.0000625 L3,9.99981251 Z M6,21.0000625 L9,21.0000625 L9,18.00025 L6,18.00025 L6,21.0000625 Z M10,11.9989376 L11,11.9989376 L11,11 L10,11 L10,11.9989376 Z M7,11.9989376 L8,11.9989376 L8,11 L7,11 L7,11.9989376 Z M4,11.999 L5,11.999 L5,11 L4,11 L4,11.999 Z M10,13.9995625 L11,13.9995625 L11,13.000625 L10,13.000625 L10,13.9995625 Z M7,13.9995625 L8,13.9995625 L8,13.000625 L7,13.000625 L7,13.9995625 Z M4,13.999 L5,13.999 L5,13 L4,13 L4,13.999 Z M10,15.9994375 L11,15.9994375 L11,15.0005 L10,15.0005 L10,15.9994375 Z M7,15.9994375 L8,15.9994375 L8,15.0005 L7,15.0005 L7,15.9994375 Z M4,15.999 L5,15.999 L5,15 L4,15 L4,15.999 Z" id="Company-icon"></path>
                    </g>
                </g>
            </g>
        </g>
    </g>
</svg>