<?xml version="1.0" encoding="UTF-8" standalone="no"?>
<svg width="16px" height="16px" viewBox="0 0 16 16" version="1.1" xmlns="http://www.w3.org/2000/svg" xmlns:xlink="http://www.w3.org/1999/xlink">
    <!-- Generator: sketchtool 45.2 (43514) - http://www.bohemiancoding.com/sketch -->
    <title>36BCA6EA-E2D9-4DCB-BE9F-0A179759D9A3</title>
    <desc>Created with sketchtool.</desc>
    <defs></defs>
    <g id="Symbols" stroke="none" stroke-width="1" fill="none" fill-rule="evenodd">
        <g id="Footer" transform="translate(-470.000000, -73.000000)" fill="#232E48">
            <g id="pre-footer">
                <g>
                    <g id="Group-27" transform="translate(469.000000, 65.000000)">
                        <path d="M6.501,16.001 L11.5,16.001 C11.776,16.001 12.001,16.225 12.001,16.501 C12.001,16.777 11.776,17.002 11.5,17.002 L6.501,17.002 C6.225,17.002 6.001,16.777 6.001,16.501 C6.001,16.225 6.225,16.001 6.501,16.001 M12.501,14.001 L5.5,14.001 C5.225,14.001 5.001,13.777 5.001,13.5 C5.001,13.225 5.225,13.001 5.5,13.001 L12.501,13.001 C12.776,13.001 13.001,13.225 13.001,13.5 C13.001,13.777 12.776,14.001 12.501,14.001 M9,9 C5.135,9 2.001,11.687 2.001,15.001 C2.001,17.033 3.194,18.81 5.001,19.892 L5.001,22.5 L8.001,21.002 C8.001,21.002 7.853,21.001 9,21.001 C12.866,21.001 16.001,18.315 16.001,15.001 C16.001,11.687 12.866,9 9,9 M9,22.001 C8.694,22.001 8.394,21.983 8.097,21.953 L4.001,24.002 L4.001,20.461 C2.173,19.178 1,17.211 1,15.001 C1,11.135 4.582,8 9,8 C13.419,8 17.001,11.135 17.001,15.001 C17.001,18.867 13.419,22.001 9,22.001" id="Contact-icon"></path>
                    </g>
                </g>
            </g>
        </g>
    </g>
</svg>