<?xml version="1.0" encoding="UTF-8" standalone="no"?>
<svg width="50px" height="50px" viewBox="0 0 50 50" version="1.1" xmlns="http://www.w3.org/2000/svg" xmlns:xlink="http://www.w3.org/1999/xlink">
    <!-- Generator: sketchtool 45.2 (43514) - http://www.bohemiancoding.com/sketch -->
    <title>537E9218-F488-4F8E-898B-0F70EFF6E29B</title>
    <desc>Created with sketchtool.</desc>
    <defs></defs>
    <g id="Page-1" stroke="none" stroke-width="1" fill="none" fill-rule="evenodd">
        <g id="MS-Pepper-Landing-Page-City-Dropdown-Hover-Desktop-EN" transform="translate(-597.000000, -1294.000000)">
            <g id="Featured-Hotels-Live-Support" transform="translate(0.000000, 856.000000)">
                <g id="Tabs" transform="translate(229.000000, 130.000000)">
                    <g id="En-Copy-2" transform="translate(368.000000, 308.000000)">
                        <circle id="EN" fill="#AAABAE" opacity="0.150000006" cx="25" cy="25" r="25"></circle>
                        <g id="EN-flag-icon" transform="translate(15.000000, 18.000000)">
                            <polygon id="Fill-1" fill="#3B96D2" points="0 13.925969 20.7655814 13.925969 20.7655814 0.241210345 0 0.241210345"></polygon>
                            <polygon id="Fill-2" fill="#ECEFF0" points="18.1672953 0.241282759 12.7575977 3.80162759 12.7575977 0.241282759 7.99303953 0.241282759 7.99303953 3.94790345 2.2746907 0.241282759 9.76744186e-05 0.241282759 9.76744186e-05 2.09169655 4.10120233 4.76304138 9.76744186e-05 4.76304138 9.76744186e-05 9.50373103 4.06799302 9.50373103 9.76744186e-05 12.1939034 9.76744186e-05 13.9260414 2.69102791 13.9260414 7.99303953 10.4241103 7.99303953 13.9260414 12.7575977 13.9260414 12.7575977 10.3628 18.2349349 13.9260414 20.7656791 13.9260414 20.7656791 12.2134552 16.5976674 9.50373103 20.7656791 9.50373103 20.7656791 4.76304138 16.6189116 4.76304138 20.7656791 2.0258 20.7656791 0.241282759"></polygon>
                            <polygon id="Fill-3" fill="#E54C3C" points="0 0.241282759 0 1.43490345 4.99409302 4.76304138 6.68483721 4.76304138"></polygon>
                            <polygon id="Fill-4" fill="#E54C3C" points="14.0901698 9.50380345 20.7654837 13.9258724 20.7654837 12.815769 15.780914 9.50380345"></polygon>
                            <polygon id="Fill-5" fill="#E54C3C" points="6.61807674 9.50380345 -9.76744186e-05 13.9258724 1.58491395 13.9258724 7.99284419 9.72080345 7.99284419 9.50380345"></polygon>
                            <polygon id="Fill-6" fill="#E54C3C" points="19.2514081 0.241282759 12.7575244 4.4840069 12.7575244 4.76304138 14.038036 4.76304138 20.7656058 0.352075862 20.7656058 0.241282759"></polygon>
                            <polygon id="Fill-7" fill="#E54C3C" points="9.01420116 0.241282759 9.01420116 5.76886897 7.3255814e-05 5.76886897 7.3255814e-05 8.49766207 9.01420116 8.49766207 9.01420116 13.9260414 11.7363872 13.9260414 11.7363872 8.49766207 20.7656547 8.49766207 20.7656547 5.76886897 11.7363872 5.76886897 11.7363872 0.241282759"></polygon>
                        </g>
                    </g>
                </g>
            </g>
        </g>
    </g>
</svg>