<?xml version="1.0" encoding="UTF-8"?>
<svg width="16px" height="10px" viewBox="0 0 16 10" version="1.1" xmlns="http://www.w3.org/2000/svg" xmlns:xlink="http://www.w3.org/1999/xlink">
    <!-- Generator: Sketch 45.2 (43514) - http://www.bohemiancoding.com/sketch -->
    <title>HongKong-Flag-icon</title>
    <desc>Created with Sketch.</desc>
    <defs>
        <polygon id="path-1" points="2.97837363 0.00138743865 2.97837363 1.80469436 0.00162320657 1.80469436 0.00162320657 0.00138743865 2.97837363 0.00138743865"></polygon>
        <polygon id="path-3" points="2.05188688 2.84210526 0.00548351648 2.84210526 0.00548351648 0.0153282929 2.05188688 0.0153282929"></polygon>
    </defs>
    <g id="Page-1" stroke="none" stroke-width="1" fill="none" fill-rule="evenodd">
        <g id="14-Hotel-MyStays-Attractions-Desktop" transform="translate(-855.000000, -45.000000)">
            <g id="Header" transform="translate(230.000000, 35.000000)">
                <g id="Lang" transform="translate(625.000000, 2.000000)">
                    <g id="HongKong-Flag-icon">
                        <g transform="translate(0.000000, 8.000000)">
                            <polygon id="Fill-1" fill="#E54C3C" points="0 10 16 10 16 0 0 0"></polygon>
                            <g id="Page-1" transform="translate(5.000000, 2.000000)">
                                <path d="M2.20824176,2.17379774 C2.1232967,1.96323383 2.06951648,1.72458722 2.06175824,1.61426391 C2.05074725,1.45830902 2.05118681,1.30077519 2.04962637,1.20610602 C2.04736264,1.06896316 2.08525275,0.920158647 2.13032967,0.752609774 C2.22610989,0.396782707 2.57718681,0.0903992481 2.8649011,0.0224142857 C3.10167033,-0.0335030075 3.3189011,0.0208578947 3.51136264,0.123376692 C3.68865934,0.217820301 3.84215385,0.393805263 3.854,0.436504511 C3.85723077,0.448143609 3.80430769,0.419203759 3.78391209,0.407903008 C3.76118681,0.395339098 3.75257143,0.397436842 3.70916484,0.374767669 C3.65771429,0.347880451 3.57015385,0.3417 3.53178022,0.362654887 C3.4787033,0.391549624 3.46221978,0.427955639 3.4467033,0.45457218 C3.42714286,0.488181203 3.41821978,0.496414286 3.41758242,0.5667 C3.41712088,0.626293985 3.41703297,0.720602256 3.46373626,0.803812782 C3.47604396,0.825715038 3.488,0.86094812 3.51013187,0.891963158 C3.55340659,0.952504511 3.60740659,1.03122632 3.64112088,1.11143684 C3.68606593,1.21844436 3.70384615,1.3249782 3.69797802,1.36377519 L3.70485714,1.47028647 C3.71250549,1.6131812 3.6207033,1.9664594 3.34734066,2.14515113 C3.28734066,2.18439925 3.22186813,2.23691053 3.15241758,2.27541429 C3.05162637,2.33126391 2.96443956,2.39054211 2.90494505,2.50025639 C2.86942857,2.56576015 2.87547253,2.63832406 2.87676923,2.7113391 C2.87907692,2.8420985 2.91567033,2.96931654 2.94751648,3.0351812 L2.96914286,3.08478271 C2.95316484,3.08859474 2.94549451,3.08027143 2.93806593,3.07357218 L2.90228571,3.03236165 C2.84764835,2.97506842 2.79296703,2.83312105 2.74975824,2.7090609 C2.71516484,2.60979023 2.68476923,2.45248195 2.68727473,2.34856466 C2.69169231,2.16676015 2.73342857,2.01809098 2.75887912,1.92143684 C2.79694505,1.77671504 2.80720879,1.75936917 2.82327473,1.71791053 L2.82617582,1.71161729 C2.82593407,1.7053015 2.82736264,1.6999782 2.82246154,1.69519624 C2.81272527,1.68560977 2.79749451,1.68576767 2.78843956,1.69548947 L2.78523077,1.70227895 C2.75885714,1.73956466 2.73606593,1.82212105 2.69630769,1.96501579 C2.66347253,2.08298571 2.63643956,2.20589549 2.64808791,2.38700075 C2.65472527,2.49073759 2.67114286,2.65012105 2.71052747,2.74754211 C2.76685714,2.88666992 2.82518681,3.00727895 2.86986813,3.06206842 L2.89668132,3.10605338 C2.89936264,3.11446692 2.90327473,3.11981278 2.90832967,3.12265489 L2.91254945,3.12529398 C2.90797802,3.14976767 2.75641758,3.0408203 2.56575824,2.7840609 C2.41459341,2.58051203 2.26035165,2.33218872 2.21345055,2.17199323" id="Fill-1" fill="#FEFEFE"></path>
                                <polygon id="Fill-3" fill="#E63C29" points="2.92654066 1.24321353 2.94377143 1.45391278 3.14227692 1.51057444 2.95236484 1.59247669 2.96122198 1.80373985 2.82660659 1.64365714 2.63357363 1.71757444 2.7402989 1.53673985 2.61214505 1.37117594 2.81271648 1.41944662"></polygon>
                                <g id="Group-7" transform="translate(0.000000, 1.562188)" fill="#FEFEFE">
                                    <path d="M1.84223297,2.10063835 C1.62179341,2.1278188 1.38335385,2.11656316 1.27774945,2.09452556 C1.12845275,2.06335263 0.98076044,2.02045038 0.891507692,1.99647293 C0.762189011,1.96171353 0.632804396,1.88414211 0.487793407,1.79443534 C0.179705495,1.60383383 -0.0131076923,1.17426992 0.000694505495,0.871608271 C0.0120351648,0.622472932 0.12163956,0.422465414 0.269727473,0.259878947 C0.406123077,0.110149624 0.612650549,0.00587142857 0.655881319,0.00566842105 C0.667683516,0.00562330827 0.626254945,0.0501045113 0.610145055,0.067224812 C0.592254945,0.0863075188 0.591881319,0.0953977444 0.558892308,0.132142105 C0.519793407,0.175766165 0.490408791,0.260690977 0.499705495,0.304224812 C0.512540659,0.364472932 0.542232967,0.390570677 0.563024176,0.413081955 C0.589265934,0.441480451 0.594606593,0.452555639 0.660386813,0.472066917 C0.716167033,0.488623308 0.804650549,0.514157143 0.895287912,0.490405263 C0.919178022,0.484179699 0.955441758,0.481856391 0.990562637,0.468322556 C1.05902418,0.441886466 1.14741978,0.409743609 1.23179341,0.398059398 C1.34432088,0.382495489 1.44904615,0.393638346 1.48388132,0.409878947 L1.58563956,0.431803759 C1.72181538,0.462773684 2.02856264,0.648773684 2.1224967,0.967089474 C2.14311209,1.03699173 2.17473846,1.11582632 2.19214505,1.19486391 C2.21737582,1.30956316 2.24948571,1.4116985 2.33638681,1.50007444 C2.38827692,1.55283383 2.45801319,1.56639023 2.52687033,1.5848188 C2.65018901,1.61777368 2.77937582,1.61592406 2.84981538,1.60223233 L2.90218901,1.59422481 C2.9013978,1.61102932 2.89150769,1.61635263 2.88326593,1.6219015 L2.83495824,1.64614962 C2.76647473,1.68472105 2.61856264,1.70046541 2.49047473,1.70973609 C2.38799121,1.71715714 2.23221099,1.70479624 2.1353978,1.67427744 C1.96596923,1.62088647 1.83772747,1.53959323 1.7539033,1.48836767 C1.62840879,1.41172105 1.61489231,1.39692406 1.5802989,1.36983383 L1.5752,1.36527744 C1.5692,1.36381128 1.56458462,1.36099173 1.5588044,1.36451053 C1.54717802,1.37157068 1.54322198,1.3866609 1.54988132,1.39823233 L1.5553978,1.40326241 C1.58328791,1.43937519 1.65458462,1.48412707 1.77792527,1.56194662 C1.87977143,1.62623233 1.98779341,1.68607444 2.16089231,1.72340526 C2.25999121,1.74481128 2.41399121,1.7715406 2.51599121,1.75886391 C2.66172747,1.74072857 2.79062857,1.71560075 2.85407912,1.68618722 L2.90256264,1.67157068 C2.9112,1.67116466 2.91726593,1.66877368 2.92130989,1.66453308 L2.92491429,1.6610594 C2.94662857,1.6721797 2.80357363,1.79258571 2.51122198,1.91184135 C2.27950769,2.00630752 2.00491429,2.09179624 1.84194725,2.09495414" id="Fill-5"></path>
                                </g>
                                <polygon id="Fill-8" fill="#E63C29" points="1.16276044 2.7019782 1.36511209 2.74176767 1.47177143 2.56084286 1.49744176 2.77066241 1.69801319 2.81886541 1.51155165 2.90873008 1.52884835 3.11942932 1.38796923 2.96518872 1.19805714 3.04720376 1.29744176 2.86201579"></polygon>
                                <g id="Group-12" transform="translate(3.010989, 1.562188)">
                                    <mask id="mask-2" fill="white">
                                        <use xlink:href="#path-1"></use>
                                    </mask>
                                    <g id="Clip-11"></g>
                                    <path d="M0.650098901,0.547486466 C0.815725275,0.395727068 1.01750549,0.264922556 1.11640659,0.22096015 C1.25620879,0.158862406 1.40126374,0.107298496 1.48781319,0.0745691729 C1.61324176,0.0271330827 1.76258242,0.0147496241 1.93157143,0.00313308271 C2.29049451,-0.0214533835 2.6880989,0.217576692 2.84554945,0.473907519 C2.97513187,0.684877444 2.99675824,0.913260902 2.96596703,1.13354662 C2.93759341,1.33648647 2.82636264,1.5432609 2.79102198,1.56879474 C2.78137363,1.57578722 2.79056044,1.51497519 2.79418681,1.49149398 C2.79823077,1.46530602 2.79348352,1.4576594 2.80001099,1.40814812 C2.80779121,1.34943383 2.78453846,1.26252406 2.75262637,1.23223083 C2.70851648,1.19041128 2.66961538,1.18639624 2.64001099,1.18017068 C2.60264835,1.1722985 2.59212088,1.16636617 2.52728571,1.18896767 C2.4722967,1.2081406 2.38552747,1.2391782 2.32440659,1.31187744 C2.3082967,1.33102782 2.27983516,1.35423835 2.25862637,1.38593008 C2.2171978,1.44782481 2.16262637,1.52611805 2.09996703,1.58523835 C2.01636264,1.66409549 1.92425275,1.71644887 1.88662637,1.72359925 L1.79093407,1.76537368 C1.66201099,1.81993759 1.30675824,1.84754662 1.05223077,1.64167444 C0.996340659,1.59647143 0.926450549,1.55038872 0.868142857,1.4957797 C0.783483516,1.4165391 0.700186813,1.3516218 0.579659341,1.33019323 C0.507703297,1.31740376 0.442934066,1.34720075 0.376186813,1.37255414 C0.256692308,1.41796015 0.151769231,1.49532857 0.101659341,1.54793008 L0.0631978022,1.5852609 C0.0544065934,1.57102782 0.0595494505,1.56083233 0.0632637363,1.55142632 L0.0893296703,1.5031782 C0.124010989,1.43133609 0.236538462,1.33156917 0.336384615,1.24876466 C0.416296703,1.18244887 0.550956044,1.10113308 0.647373626,1.06928346 C0.816076923,1.01356917 0.96656044,1.00493008 1.06385714,0.99771203 C1.20952747,0.986862406 1.22886813,0.991057895 1.27231868,0.992975188 L1.27904396,0.993696992 C1.2848022,0.991396241 1.29014286,0.990990226 1.29293407,0.984696992 C1.29851648,0.97208797 1.29337363,0.957381203 1.28143956,0.951809774 L1.27412088,0.950952632 C1.23113187,0.937689474 1.1477033,0.942854887 1.00313187,0.951471429 C0.883791209,0.958599248 0.761835165,0.972922556 0.599087912,1.04399774 C0.505879121,1.0846218 0.36467033,1.15312556 0.288076923,1.22343383 C0.178692308,1.3239 0.086978022,1.42019323 0.0513296703,1.48156917 L0.0197252747,1.52208045 C0.0128681319,1.52742632 0.00924175824,1.53297519 0.0082967033,1.53883985 L0.00726373626,1.54380226 C-0.0167582418,1.54743383 0.0334175824,1.36468195 0.206692308,1.09520075 C0.344054945,0.881614286 0.521571429,0.65027594 0.653461538,0.551975188" id="Fill-10" fill="#FEFEFE" mask="url(#mask-2)"></path>
                                </g>
                                <polygon id="Fill-13" fill="#E63C29" points="4.75402198 2.49859624 4.56586813 2.58482932 4.5792967 2.7958218 4.44127473 2.63885188 4.24989011 2.71712256 4.35268132 2.53387444 4.22101099 2.37124286 4.42259341 2.41500226 4.53259341 2.2362203 4.55432967 2.44646842"></polygon>
                                <path d="M3.09569011,4.43309323 C3.0541956,4.65696541 2.9716022,4.88674737 2.91918462,4.98337895 C2.84505275,5.11998045 2.7605033,5.25146165 2.71120659,5.33151429 C2.63982198,5.44745414 2.52861319,5.5505594 2.40138242,5.66525865 C2.13114066,5.90891278 1.67393187,5.96749173 1.39700879,5.86237895 C1.16911868,5.77587519 1.01654725,5.60814586 0.910393407,5.41407068 C0.812613187,5.23531128 0.778305495,5.00178496 0.791206593,4.95942406 C0.794745055,4.94787519 0.823514286,5.00185263 0.834547253,5.02278496 C0.846832967,5.04606316 0.855162637,5.04917594 0.879316484,5.09255188 C0.907975824,5.14402556 0.977931868,5.19845414 1.02118462,5.20253684 C1.08100879,5.20822105 1.11426154,5.18710827 1.14142637,5.17357444 C1.17575604,5.15647669 1.18764615,5.15460451 1.22566813,5.09618346 C1.25795385,5.04662707 1.30843736,4.96783759 1.31382198,4.87197293 C1.31522857,4.84670977 1.32408571,4.81052932 1.32215165,4.77213835 C1.31832747,4.69713835 1.31520659,4.60093534 1.32990989,4.51488271 C1.34949231,4.40011579 1.39155824,4.30104812 1.41718462,4.27188271 L1.46832747,4.17897293 C1.53830549,4.0551609 1.80386593,3.8114391 2.12790989,3.81588271 C2.19905275,3.81687519 2.28186593,3.80979248 2.3605033,3.81669474 C2.47463516,3.82673233 2.57920659,3.82621353 2.68758022,3.76799549 C2.75228352,3.73323609 2.78597582,3.66910827 2.82393187,3.60732632 C2.89186593,3.49666466 2.92922857,3.36973985 2.93782198,3.29672481 L2.94623956,3.24306316 C2.96162418,3.24890526 2.96358022,3.26018346 2.96623956,3.26995038 L2.97415165,3.32453684 C2.98920659,3.40319098 2.95905275,3.55267218 2.92892088,3.68072481 C2.90476703,3.7831985 2.84615165,3.93184511 2.7885033,4.01731128 C2.68766813,4.16688271 2.57333846,4.26770977 2.50043736,4.33418346 C2.39122857,4.43372481 2.37342637,4.44249925 2.33782198,4.46812331 L2.33201978,4.47175489 C2.32883297,4.47714586 2.32481099,4.4808 2.32634945,4.48754436 C2.32938242,4.50103308 2.34221758,4.50949173 2.35496484,4.50646917 L2.36127253,4.50258947 C2.40327253,4.48623609 2.46641538,4.43004812 2.5759978,4.33296541 C2.66652527,4.2528 2.75478901,4.16523609 2.84184396,4.00725113 C2.89171209,3.91675489 2.96318462,3.77424361 2.98223956,3.67064211 C3.00951429,3.52262707 3.02518462,3.38889023 3.01711868,3.31797293 L3.0181956,3.26611579 C3.02043736,3.25754436 3.02004176,3.25084511 3.01731648,3.24561203 L3.01520659,3.24105564 C3.03210769,3.22316842 3.10063516,3.39958195 3.12285495,3.72159699 C3.14048132,3.97684511 3.13672308,4.27129624 3.09034945,4.43164962" id="Fill-15" fill="#FEFEFE"></path>
                                <polygon id="Fill-17" fill="#E63C29" points="1.9977978 4.80690226 2.09597363 4.62101504 1.96025934 4.46194737 2.16285275 4.50031579 2.26832527 4.31869173 2.29535824 4.52830827 2.49625934 4.57515789 2.31036923 4.66633083 2.32905055 4.87687218 2.18713846 4.7236015"></polygon>
                                <g id="Group-21" transform="translate(3.054945, 3.141135)">
                                    <mask id="mask-4" fill="white">
                                        <use xlink:href="#path-3"></use>
                                    </mask>
                                    <g id="Clip-20"></g>
                                    <path d="M1.13910989,0.387940602 C1.32686813,0.509609774 1.50495604,0.672669925 1.57328571,0.75813609 C1.66996703,0.879015789 1.75818681,1.00792556 1.81267033,1.08432406 C1.89163736,1.19500827 1.94436264,1.33896316 2.00172527,1.50247444 C2.12357143,1.84984286 2.00910989,2.3079406 1.81234066,2.53384286 C1.65038462,2.71977519 1.44240659,2.8039782 1.22754945,2.83422632 C1.02968132,2.86210602 0.805395604,2.80927895 0.771703297,2.78139925 C0.762516484,2.77379774 0.822032967,2.76615113 0.845021978,2.76326391 C0.870648352,2.7600609 0.876538462,2.75322632 0.924714286,2.74607594 C0.981857143,2.73757218 1.05684615,2.69072256 1.07642857,2.65088797 C1.10348352,2.59585038 1.09651648,2.55637669 1.09420879,2.52547444 C1.09128571,2.48642932 1.09394505,2.47440677 1.05493407,2.41663985 C1.02183516,2.36769248 0.96889011,2.29061729 0.883989011,2.25030902 C0.861571429,2.23970752 0.832010989,2.21798571 0.796494505,2.20578271 C0.72710989,2.1819406 0.638758242,2.14966241 0.566120879,2.10407594 C0.469241758,2.04333158 0.394868132,1.96684286 0.377813187,1.93167744 L0.312340659,1.84880526 C0.225703297,1.73660977 0.102098901,1.39368496 0.224868132,1.08590301 C0.251835165,1.0183015 0.275769231,0.936647368 0.310824176,0.864083459 C0.361791209,0.758745113 0.399637363,0.658730075 0.38656044,0.533903008 C0.378758242,0.459376692 0.332978022,0.403684962 0.290868132,0.344812782 C0.215483516,0.239384211 0.114098901,0.157188722 0.051043956,0.122181203 L0.00548351648,0.0945045113 C0.0164285714,0.0819406015 0.0273736264,0.084218797 0.0371758242,0.085256391 L0.0895714286,0.0977300752 C0.166384615,0.112143609 0.290846154,0.195715038 0.395901099,0.271436842 C0.479967033,0.332045865 0.593241758,0.442527068 0.649615385,0.528872932 C0.748230769,0.679978195 0.797747253,0.826121053 0.831307692,0.920113534 C0.881505495,1.06084286 0.882934066,1.0810985 0.89310989,1.12449699 L0.894274725,1.13133158 C0.898010989,1.13638421 0.899835165,1.14152707 0.906516484,1.14254211 C0.919857143,1.14457218 0.932230769,1.1354594 0.934164835,1.12215113 L0.932956044,1.11470752 C0.933527473,1.06862481 0.905747253,0.987715038 0.857879121,0.847459398 C0.818362637,0.731677444 0.771351648,0.615309023 0.660010989,0.474241353 C0.596252747,0.393489474 0.493241758,0.273015789 0.406318681,0.21682782 C0.282098901,0.136527068 0.166626374,0.0725796992 0.0993516484,0.0542864662 L0.0527142857,0.0342338346 C0.0457912088,0.0289556391 0.0395934066,0.0268804511 0.0338571429,0.0275571429 L0.0289340659,0.0279180451 C0.0189340659,0.00522631579 0.203923077,0.00443684211 0.504032967,0.101226316 C0.741923077,0.177940602 1.00748352,0.289436842 1.13585714,0.392496992" id="Fill-19" fill="#FEFEFE" mask="url(#mask-4)"></path>
                                </g>
                                <polygon id="Fill-22" fill="#E63C29" points="4.13058901 4.71445263 3.99803956 4.55258797 3.80410549 4.62386617 3.91311648 4.44447519 3.78713846 4.27721955 3.98709451 4.32819699 4.10316044 4.15354286 4.11766593 4.36444511 4.3154022 4.42376842 4.12445714 4.50309925"></polygon>
                            </g>
                        </g>
                    </g>
                </g>
            </g>
        </g>
    </g>
</svg>