<?xml version="1.0" encoding="UTF-8" standalone="no"?>
<svg width="176px" height="26px" viewBox="0 0 176 26" version="1.1" xmlns="http://www.w3.org/2000/svg" xmlns:xlink="http://www.w3.org/1999/xlink">
    <!-- Generator: sketchtool 45.2 (43514) - http://www.bohemiancoding.com/sketch -->
    <title>6DDF3DE6-C58E-481D-BCB5-B1DDAAE9F1A4</title>
    <desc>Created with sketchtool.</desc>
    <defs></defs>
    <g id="Page-1" stroke="none" stroke-width="1" fill="none" fill-rule="evenodd">
        <g id="MS-Pepper-Landing-Page-Desktop-JP" transform="translate(-230.000000, -37.000000)" fill="#FFFFFF">
            <g id="Header">
                <g id="Logo-+-Nav" transform="translate(230.000000, 37.000000)">
                    <path d="M48.6266725,11.6195926 L48.6266725,5.98240741 L50.3770022,5.98240741 L50.3770022,19.9646296 L48.6266725,19.9646296 L48.6266725,13.2518148 L41.9406066,13.2518148 L41.9406066,19.9646296 L40.1902769,19.9646296 L40.1902769,5.98240741 L41.9406066,5.98240741 L41.9406066,11.6195926 L48.6266725,11.6195926 Z M66.6360176,12.9734222 C66.6360176,17.1276444 63.3394022,20.2620889 59.2797978,20.2620889 C55.2192264,20.2620889 51.922611,17.1276444 51.922611,12.9734222 C51.922611,8.9674963 55.2559736,5.68475556 59.2797978,5.68475556 C63.3026549,5.68475556 66.6360176,8.9674963 66.6360176,12.9734222 Z M64.8856879,12.9734222 C64.8856879,9.89482963 62.5764132,7.31697778 59.2797978,7.31697778 C55.9822154,7.31697778 53.6729407,9.89482963 53.6729407,12.9734222 C53.6729407,16.1627556 56.2433143,18.6298667 59.2797978,18.6298667 C62.3153143,18.6298667 64.8856879,16.1627556 64.8856879,12.9734222 Z M71.7391473,19.9650148 L69.9878505,19.9650148 L69.9878505,7.5764963 L66.6544879,7.5764963 L66.6544879,5.98182963 L75.0725099,5.98182963 L75.0725099,7.5764963 L71.7391473,7.5764963 L71.7391473,19.9650148 Z M76.4502418,5.98192593 L83.9940659,5.98192593 L83.9940659,7.57659259 L78.2005714,7.57659259 L78.2005714,11.4900741 L83.8258022,11.4900741 L83.8258022,13.0847407 L78.2005714,13.0847407 L78.2005714,18.3694815 L83.9940659,18.3694815 L83.9940659,19.9651111 L76.4502418,19.9651111 L76.4502418,5.98192593 Z M87.9043604,18.3698667 L92.1699429,18.3698667 L92.1699429,19.9645333 L86.1540308,19.9645333 L86.1540308,5.98231111 L87.9043604,5.98231111 L87.9043604,18.3698667 Z M102.207455,10.7295259 L102.169741,10.7295259 L100.53062,19.9653037 L98.7251692,19.9653037 L101.591455,5.38797037 L106.415982,16.4042667 L111.239543,5.38797037 L114.107763,19.9653037 L112.300378,19.9653037 L110.662224,10.7295259 L110.62451,10.7295259 L106.415982,20.2618963 L102.207455,10.7295259 Z M114.405512,5.98192593 L116.416941,5.98192593 L119.863446,11.9532593 L123.308985,5.98192593 L125.319446,5.98192593 L120.738611,13.8820741 L120.738611,19.9651111 L118.987314,19.9651111 L118.987314,13.8820741 L114.405512,5.98192593 Z M132.769565,8.63402222 C132.247367,7.76157778 131.577213,7.31765185 130.515411,7.31765185 C129.397521,7.31765185 128.169389,8.07742963 128.169389,9.30135556 C128.169389,10.3952815 129.249565,10.9711333 130.12473,11.3043185 L131.129477,11.6933556 C133.122532,12.4723926 134.61273,13.5663185 134.61273,15.9034296 C134.61273,18.4437259 132.638048,20.2618 130.12473,20.2618 C127.853169,20.2618 126.083499,18.5929852 125.784686,16.3483185 L127.554356,15.9775778 C127.535015,17.5173556 128.765081,18.6295778 130.273653,18.6295778 C131.781257,18.6295778 132.8624,17.3680963 132.8624,15.9034296 C132.8624,14.4012074 131.651675,13.7521704 130.440949,13.2514296 L129.471982,12.8431333 C127.870576,12.1575037 126.419059,11.2484667 126.419059,9.30135556 C126.419059,7.03935556 128.429521,5.68542963 130.553125,5.68542963 C132.116818,5.68542963 133.402004,6.44520741 134.164993,7.79913333 L132.769565,8.63402222 Z M140.311745,19.9650148 L138.561415,19.9650148 L138.561415,7.5764963 L135.228053,7.5764963 L135.228053,5.98182963 L143.645108,5.98182963 L143.645108,7.5764963 L140.311745,7.5764963 L140.311745,19.9650148 Z M146.644264,16.4597333 L145.043824,19.9649185 L143.161978,19.9649185 L149.866418,5.38854815 L156.570857,19.9649185 L154.689011,19.9649185 L153.088571,16.4597333 L146.644264,16.4597333 Z M149.866418,9.20862222 L147.370505,14.8650667 L152.36233,14.8650667 L149.866418,9.20862222 Z M155.173881,5.98192593 L157.18531,5.98192593 L160.630848,11.9532593 L164.07542,5.98192593 L166.086848,5.98192593 L161.506013,13.8820741 L161.506013,19.9651111 L159.755684,19.9651111 L159.755684,13.8820741 L155.173881,5.98192593 Z M173.53658,8.63402222 C173.015349,7.76157778 172.345196,7.31765185 171.283393,7.31765185 C170.165503,7.31765185 168.937371,8.07742963 168.937371,9.30135556 C168.937371,10.3952815 170.01658,10.9711333 170.891745,11.3043185 L171.898426,11.6933556 C173.889547,12.4723926 175.380712,13.5663185 175.380712,15.9034296 C175.380712,18.4437259 173.406998,20.2618 170.891745,20.2618 C168.620185,20.2618 166.850514,18.5929852 166.553635,16.3483185 L168.321371,15.9775778 C168.303965,17.5173556 169.532097,18.6295778 171.040668,18.6295778 C172.54924,18.6295778 173.630382,17.3680963 173.630382,15.9034296 C173.630382,14.4012074 172.419657,13.7521704 171.208932,13.2514296 L170.239965,12.8431333 C168.639525,12.1575037 167.186075,11.2484667 167.186075,9.30135556 C167.186075,7.03935556 169.196536,5.68542963 171.321108,5.68542963 C172.8848,5.68542963 174.169987,6.44520741 174.933943,7.79913333 L173.53658,8.63402222 Z M13.0521407,26 L10.9633495,23.9219259 L13.0521407,21.8419259 L15.1409319,23.920963 L13.0521407,26 Z M15.1410286,15.6038519 L19.317644,19.7628889 L17.2288527,21.8419259 L15.1410286,19.7628889 L13.0522374,21.8419259 L10.9644132,19.7628889 L8.87658901,21.8419259 L6.7877978,19.7628889 L10.9644132,15.6038519 L13.0522374,17.6828889 L15.1410286,15.6038519 Z M13.0591033,16.6352815 L4.70683956,8.31720741 L13.0591033,9.62962959e-05 L21.4133011,8.31720741 L13.0591033,16.6352815 Z M19.8457407,19.2348963 L15.6700923,15.0758593 L21.9335648,8.83778519 L26.1101802,12.9968222 L19.8457407,19.2348963 Z M10.4421187,15.0821185 L6.26453626,19.2421185 L9.67032975e-05,13.0040444 L4.17767912,8.84500741 L10.4421187,15.0821185 Z" id="MS-Logo"></path>
                </g>
            </g>
        </g>
    </g>
</svg>