<?xml version="1.0" encoding="UTF-8" standalone="no"?>
<svg width="16px" height="16px" viewBox="0 0 16 16" version="1.1" xmlns="http://www.w3.org/2000/svg" xmlns:xlink="http://www.w3.org/1999/xlink">
    <!-- Generator: sketchtool 45.2 (43514) - http://www.bohemiancoding.com/sketch -->
    <title>E35B65F7-2D4F-4809-9E36-EA9610E3B05D</title>
    <desc>Created with sketchtool.</desc>
    <defs></defs>
    <g id="Symbols" stroke="none" stroke-width="1" fill="none" fill-rule="evenodd">
        <g id="Footer" transform="translate(-950.000000, -71.000000)" fill="#232E48">
            <g id="pre-footer">
                <g>
                    <g id="Group-29" transform="translate(949.000000, 65.000000)">
                        <path d="M6,10.999 L15,10.999 L15,10 L6,10 L6,10.999 Z M6,14 L15,14 L15,13 L6,13 L6,14 Z M6,17 L15,17 L15,16 L6,16 L6,17 Z M16,7.499 C16,7.223 15.776,7 15.5,7 L5.5,7 C5.224,7 5,7.223 5,7.499 L5,10.999 L5,19.999 L4,19.999 L4,10.999 L2.5,10.999 C2.224,10.999 2,11.223 2,11.5 L2,20.499 C2,20.775 2.224,20.999 2.5,20.999 L5.5,20.999 L7.5,20.999 L15.5,20.999 C15.776,20.999 16,20.775 16,20.499 L16,7.499 Z M15.5,21.999 L7.5,21.999 L5.5,21.999 L2.5,21.999 C1.671,21.999 1,21.328 1,20.499 L1,11.5 C1,10.67 1.671,10 2.5,10 L4,10 L4,7.499 C4,6.671 4.671,6 5.5,6 L15.5,6 C16.329,6 17,6.671 17,7.499 L17,20.499 C17,21.328 16.329,21.999 15.5,21.999 L15.5,21.999 Z" id="Policies"></path>
                    </g>
                </g>
            </g>
        </g>
    </g>
</svg>