<?xml version="1.0" encoding="UTF-8" standalone="no"?>
<svg width="19px" height="20px" viewBox="0 0 19 20" version="1.1" xmlns="http://www.w3.org/2000/svg" xmlns:xlink="http://www.w3.org/1999/xlink">
    <!-- Generator: Sketch 45.2 (43514) - http://www.bohemiancoding.com/sketch -->
    <title>Press-Release-icon</title>
    <desc>Created with Sketch.</desc>
    <defs></defs>
    <g id="Page-1" stroke="none" stroke-width="1" fill="none" fill-rule="evenodd">
        <g id="MS-Pepper-Landing-Page-Desktop-EN" transform="translate(-468.000000, -3633.000000)" fill="#FFFFFF">
            <g id="Section" transform="translate(0.000000, 3373.000000)">
                <g id="Group-23" transform="translate(420.000000, 245.000000)">
                    <g id="Cta">
                        <g id="Group-44" transform="translate(48.000000, 15.000000)">
                            <path d="M17.7608696,0 C18.4448696,0 19,0.559166667 19,1.25 L19,18.75 C19,19.4408333 18.4448696,20 17.7608696,20 L1.23913043,20 C0.555130435,20 0,19.4408333 0,18.75 L0,1.25 C0,0.559166667 0.555130435,0 1.23913043,0 L17.7608696,0 Z M18.173913,18.75 L18.173913,1.25 C18.173913,1.02 17.9888696,0.833333333 17.7608696,0.833333333 L1.23913043,0.833333333 C1.01113043,0.833333333 0.826086957,1.02 0.826086957,1.25 L0.826086957,18.75 C0.826086957,18.98 1.01113043,19.1666667 1.23913043,19.1666667 L17.7608696,19.1666667 C17.9888696,19.1666667 18.173913,18.98 18.173913,18.75 Z M3.30434783,9.16666667 C2.84834783,9.16666667 2.47826087,8.79333333 2.47826087,8.33333333 L2.47826087,4.16666667 C2.47826087,3.70666667 2.84834783,3.33333333 3.30434783,3.33333333 L8.26086957,3.33333333 C8.71686957,3.33333333 9.08695652,3.70666667 9.08695652,4.16666667 L9.08695652,8.33333333 C9.08695652,8.79333333 8.71686957,9.16666667 8.26086957,9.16666667 L3.30434783,9.16666667 Z M3.30434783,8.33333333 L8.26086957,8.33333333 L8.26086957,4.16666667 L3.30434783,4.16666667 L3.30434783,8.33333333 Z M16.1086957,3.33333333 C16.3366957,3.33333333 16.5217391,3.52 16.5217391,3.75 C16.5217391,3.98 16.3366957,4.16666667 16.1086957,4.16666667 L11.1521739,4.16666667 C10.9241739,4.16666667 10.7391304,3.98 10.7391304,3.75 C10.7391304,3.52 10.9241739,3.33333333 11.1521739,3.33333333 L16.1086957,3.33333333 Z M16.1086957,5.83333333 C16.3366957,5.83333333 16.5217391,6.02 16.5217391,6.25 C16.5217391,6.48 16.3366957,6.66666667 16.1086957,6.66666667 L11.1521739,6.66666667 C10.9241739,6.66666667 10.7391304,6.48 10.7391304,6.25 C10.7391304,6.02 10.9241739,5.83333333 11.1521739,5.83333333 L16.1086957,5.83333333 Z M16.1086957,8.33333333 C16.3366957,8.33333333 16.5217391,8.52 16.5217391,8.75 C16.5217391,8.98 16.3366957,9.16666667 16.1086957,9.16666667 L11.1521739,9.16666667 C10.9241739,9.16666667 10.7391304,8.98 10.7391304,8.75 C10.7391304,8.52 10.9241739,8.33333333 11.1521739,8.33333333 L16.1086957,8.33333333 Z M16.1086957,10.8333333 C16.3366957,10.8333333 16.5217391,11.02 16.5217391,11.25 C16.5217391,11.48 16.3366957,11.6666667 16.1086957,11.6666667 L2.89130435,11.6666667 C2.66330435,11.6666667 2.47826087,11.48 2.47826087,11.25 C2.47826087,11.02 2.66330435,10.8333333 2.89130435,10.8333333 L16.1086957,10.8333333 Z M16.1086957,13.3333333 C16.3366957,13.3333333 16.5217391,13.52 16.5217391,13.75 C16.5217391,13.98 16.3366957,14.1666667 16.1086957,14.1666667 L2.89130435,14.1666667 C2.66330435,14.1666667 2.47826087,13.98 2.47826087,13.75 C2.47826087,13.52 2.66330435,13.3333333 2.89130435,13.3333333 L16.1086957,13.3333333 Z M16.1086957,15.8333333 C16.3366957,15.8333333 16.5217391,16.02 16.5217391,16.25 C16.5217391,16.48 16.3366957,16.6666667 16.1086957,16.6666667 L2.89130435,16.6666667 C2.66330435,16.6666667 2.47826087,16.48 2.47826087,16.25 C2.47826087,16.02 2.66330435,15.8333333 2.89130435,15.8333333 L16.1086957,15.8333333 Z" id="Press-Release-icon"></path>
                        </g>
                    </g>
                </g>
            </g>
        </g>
    </g>
</svg>