<?xml version="1.0" encoding="UTF-8" standalone="no"?>
<svg width="18px" height="21px" viewBox="0 0 18 21" version="1.1" xmlns="http://www.w3.org/2000/svg" xmlns:xlink="http://www.w3.org/1999/xlink">
    <!-- Generator: Sketch 45.2 (43514) - http://www.bohemiancoding.com/sketch -->
    <title>T-and-C-icon</title>
    <desc>Created with Sketch.</desc>
    <defs></defs>
    <g id="Page-1" stroke="none" stroke-width="1" fill="none" fill-rule="evenodd">
        <g id="MS-Pepper-Landing-Page-Desktop-EN" transform="translate(-230.000000, -685.000000)" fill="#FFFFFF">
            <g id="T&amp;C" transform="translate(230.000000, 684.000000)">
                <path d="M17.1428571,20.74 C17.1428571,20.97184 16.9508571,21.16 16.7142857,21.16 L1.28571429,21.16 C1.04914286,21.16 0.857142857,20.97184 0.857142857,20.74 L0.857142857,2.26 C0.857142857,2.02816 1.04914286,1.84 1.28571429,1.84 L11.1214286,1.84 L11.1394286,6.46504 C11.142,7.1572 11.7188571,7.72 12.4251429,7.72 L17.1428571,7.72 L17.1428571,20.74 Z M16.5111429,6.88 L12.4251429,6.88 C12.1894286,6.88 11.9974286,6.69268 11.9965714,6.46168 L11.9811429,2.43808 L16.5111429,6.88 Z M17.6237143,6.78256 C17.8645714,7.01944 18,7.33948 18,7.67296 L18,20.74 C18,21.43636 17.424,22 16.7142857,22 L1.28571429,22 C0.576,22 0,21.43636 0,20.74 L0,2.26 C0,1.56364 0.576,1 1.28571429,1 L11.1925714,1 C11.5337143,1 11.8611429,1.13272 12.102,1.36876 L17.6237143,6.78256 Z M4.28571429,13.02 C4.28571429,13.25184 4.47771429,13.44 4.71428571,13.44 L13.2857143,13.44 C13.5222857,13.44 13.7142857,13.25184 13.7142857,13.02 C13.7142857,12.78816 13.5222857,12.6 13.2857143,12.6 L4.71428571,12.6 C4.47771429,12.6 4.28571429,12.78816 4.28571429,13.02 Z M4.71428571,10.08 L9.85714286,10.08 C10.0937143,10.08 10.2857143,9.89184 10.2857143,9.66 C10.2857143,9.42816 10.0937143,9.24 9.85714286,9.24 L4.71428571,9.24 C4.47771429,9.24 4.28571429,9.42816 4.28571429,9.66 C4.28571429,9.89184 4.47771429,10.08 4.71428571,10.08 Z M13.2857143,15.96 L4.71428571,15.96 C4.47771429,15.96 4.28571429,16.14816 4.28571429,16.38 C4.28571429,16.61184 4.47771429,16.8 4.71428571,16.8 L13.2857143,16.8 C13.5222857,16.8 13.7142857,16.61184 13.7142857,16.38 C13.7142857,16.14816 13.5222857,15.96 13.2857143,15.96 Z" id="T-and-C-icon"></path>
            </g>
        </g>
    </g>
</svg>