<?xml version="1.0" encoding="UTF-8" standalone="no"?>
<svg width="20px" height="19px" viewBox="0 0 20 19" version="1.1" xmlns="http://www.w3.org/2000/svg" xmlns:xlink="http://www.w3.org/1999/xlink">
    <!-- Generator: sketchtool 45.2 (43514) - http://www.bohemiancoding.com/sketch -->
    <title>0D6A1DC8-7CCD-4F91-AEE5-2C9FD8A002C1</title>
    <desc>Created with sketchtool.</desc>
    <defs></defs>
    <g id="Page-1" stroke="none" stroke-width="1" fill="none" fill-rule="evenodd" opacity="0.699999988">
        <g id="MS-Pepper-Landing-Page-Desktop-JP" transform="translate(-975.000000, -1075.000000)" stroke="#232E48" stroke-width="0.2" fill="#232E48">
            <g id="Featured-Hotels-Live-Support" transform="translate(0.000000, 925.000000)">
                <g id="Tabs" transform="translate(229.000000, 130.000000)">
                    <g id="Amazing-Campaigns" transform="translate(721.000000, 0.000000)">
                        <g id="label" transform="translate(26.000000, 20.000000)">
                            <g id="Page-1" transform="translate(0.000000, 1.000000)">
                                <path d="M9.00065535,0 C8.86865211,0 8.73664887,0.0665217391 8.66689716,0.200304348 L6.07108346,5.18056522 L0.314692206,6.09634783 C0.005684623,6.1466087 -0.109068193,6.52578261 0.122687494,6.73421739 L4.49004466,10.5932174 L3.29226527,16.5550435 C3.24351407,16.7967391 3.43776884,16.9977826 3.65977429,16.9977826 C3.71677569,16.9977826 3.77527712,16.9844783 3.8315285,16.9556522 L8.98040485,14.3383913 L14.1285312,16.9578696 C14.1847826,16.9866957 14.243284,17 14.3002854,17 C14.5215408,17 14.7157956,16.8004348 14.6685444,16.5594783 L13.5052659,10.5895217 L17.8771232,6.73421739 C18.1088788,6.52652174 17.9948761,6.1466087 17.6851185,6.09634783 L11.9302272,5.18056522 L9.33441354,0.200304348 C9.26466182,0.0665217391 9.13265859,0 9.00065535,0 M9.00065535,1.17817391 L11.2634609,5.51834783 L11.4367151,5.85095652 L11.8109743,5.91008696 L16.7888465,6.70243478 L13.0050036,10.0381304 L12.6884958,10.3175217 L12.7687478,10.7284783 L13.7865228,15.951913 L9.32391328,13.6820435 L8.98040485,13.5068696 L8.6361464,13.6820435 L4.17878702,15.9474783 L5.22581272,10.7366087 L5.30831474,10.3241739 L4.99030694,10.0425652 L1.21021418,6.70243478 L6.19033639,5.91008696 L6.56459557,5.85095652 L6.73784982,5.51834783 L9.00065535,1.17817391" id="Amazing-Campaigns-icon"></path>
                            </g>
                        </g>
                    </g>
                </g>
            </g>
        </g>
    </g>
</svg>