<?xml version="1.0" encoding="UTF-8" standalone="no"?>
<svg width="14px" height="14px" viewBox="0 0 14 14" version="1.1" xmlns="http://www.w3.org/2000/svg" xmlns:xlink="http://www.w3.org/1999/xlink">
    <!-- Generator: sketchtool 45.2 (43514) - http://www.bohemiancoding.com/sketch -->
    <title>283390D1-EB92-41D3-A6C3-6757EBA14048</title>
    <desc>Created with sketchtool.</desc>
    <defs></defs>
    <g id="Symbols" stroke="none" stroke-width="1" fill="none" fill-rule="evenodd">
        <g id="Footer-Mobile" transform="translate(-336.000000, -25.000000)" fill="#232E48">
            <g id="Footer">
                <g id="Pre-Footer">
                    <g id="1" transform="translate(15.000000, 18.000000)">
                        <path d="M334.5,14.501 L328.5,14.501 L328.5,20.501 C328.5,20.777 328.275,21 328,21 C327.724,21 327.5,20.777 327.5,20.501 L327.5,14.501 L321.5,14.501 C321.224,14.501 321,14.277 321,14 C321,13.725 321.224,13.5 321.5,13.5 L327.5,13.5 L327.5,7.5 C327.5,7.225 327.724,7 328,7 C328.275,7 328.5,7.225 328.5,7.5 L328.5,13.5 L334.5,13.5 C334.775,13.5 335,13.725 335,14 C335,14.277 334.775,14.501 334.5,14.501" id="Page-1"></path>
                    </g>
                </g>
            </g>
        </g>
    </g>
</svg>