<?xml version="1.0" encoding="UTF-8" standalone="no"?>
<svg width="19px" height="18px" viewBox="0 0 19 18" version="1.1" xmlns="http://www.w3.org/2000/svg" xmlns:xlink="http://www.w3.org/1999/xlink">
    <!-- Generator: sketchtool 45.2 (43514) - http://www.bohemiancoding.com/sketch -->
    <title>0F9D3238-B665-469F-80A0-F546FEFCA879</title>
    <desc>Created with sketchtool.</desc>
    <defs></defs>
    <g id="Page-1" stroke="none" stroke-width="1" fill="none" fill-rule="evenodd" opacity="0.699999988">
        <g id="MS-Pepper-Landing-Page-Desktop-JP" transform="translate(-765.000000, -1076.000000)" stroke="#232E48" stroke-width="0.6" fill="#232E48">
            <g id="Featured-Hotels-Live-Support" transform="translate(0.000000, 925.000000)">
                <g id="Tabs" transform="translate(229.000000, 130.000000)">
                    <g id="Fun-Selfies" transform="translate(481.000000, 0.000000)">
                        <g id="label" transform="translate(56.000000, 20.000000)">
                            <g id="Page-1" transform="translate(0.000000, 2.000000)">
                                <path d="M16.5244975,8.4087789 C16.3360915,9.82640896 16.1098615,10.7438584 15.9869337,11.0290824 C15.1264391,11.0634032 14.0689746,12.1459538 12.9501354,13.2910043 C12.4015098,13.8524205 11.8341508,14.4331647 11.3497546,14.8121387 C10.998099,15.0874277 10.5609827,15.3069003 10.0508948,15.4645954 L10.0428661,15.4671243 L10.0348375,15.4700145 C9.78416467,15.5639451 9.46729998,15.6336705 9.11832062,15.671604 C8.91510616,15.6938223 8.7070745,15.7050217 8.49993491,15.7050217 C8.29261691,15.7050217 8.08458525,15.6938223 7.88137079,15.671604 C7.53274826,15.6336705 7.21588357,15.5639451 6.96503235,15.4700145 L6.9571821,15.4671243 L6.94915344,15.4645954 C6.43906551,15.3070809 6.00212766,15.0874277 5.64993684,14.8121387 C5.16554064,14.4331647 4.59818157,13.8524205 4.04955605,13.2908237 C2.93107364,12.1459538 1.87343068,11.0635838 1.0131145,11.0290824 C0.890186701,10.744039 0.663778315,9.82640896 0.475372283,8.4087789 C0.284111613,6.96947254 0.264842814,6.01679913 0.311587493,5.72362717 C0.722833615,5.56087428 1.90625901,4.92575867 3.73144245,2.59429191 C4.98088132,0.998735549 6.68385062,0.489342486 7.8924325,0.342846821 C8.09778794,0.317919075 8.30225131,0.301842486 8.49993491,0.29515896 C8.69779693,0.301842486 8.90208188,0.317919075 9.10743732,0.342846821 C10.3161976,0.489342486 12.0191669,0.998735549 13.2684274,2.59429191 C15.0934324,4.92521676 16.2770362,5.56069364 16.6884607,5.72362717 C16.7352054,6.01679913 16.7159366,6.96947254 16.5244975,8.4087789 M16.8995255,5.48807803 C17.0613477,5.55364884 17.0242374,6.86072977 16.8131727,8.44815751 C16.6060331,10.005961 16.307902,11.2577673 16.1334123,11.3227962 L16.1325202,11.3294798 C16.1271678,11.3285766 16.1214585,11.3289379 16.1161061,11.328396 C16.1155708,11.328396 16.1150356,11.3289379 16.1146787,11.3289379 L16.1145003,11.3289379 C16.1141435,11.3287572 16.1137867,11.3282153 16.1134298,11.3282153 C16.0855971,11.3247832 16.0574076,11.3231575 16.0285044,11.3231575 C14.8789778,11.3231575 12.9522763,13.9311777 11.527991,15.0455202 C11.101758,15.3787934 10.6139719,15.5988078 10.1359987,15.7465679 C9.86570023,15.847724 9.52760418,15.923591 9.14954321,15.964776 C8.9432957,15.9873555 8.72580805,16 8.49993491,16 C8.27406177,16 8.05639571,15.9873555 7.85032661,15.964776 C7.47226564,15.923591 7.134348,15.847724 6.86404957,15.7465679 C6.3858979,15.5989884 5.89811183,15.378974 5.47187886,15.0455202 C4.04741507,13.9309971 2.12089202,11.3231575 0.971365437,11.3231575 C0.942462239,11.3231575 0.9142727,11.3247832 0.88643999,11.3282153 C0.886083161,11.3282153 0.885726331,11.3287572 0.885369502,11.3289379 L0.885191087,11.3289379 C0.884834257,11.3289379 0.884299013,11.328396 0.883763768,11.328396 C0.878411324,11.3289379 0.872702051,11.3285766 0.867349606,11.3294798 L0.866635947,11.3227962 C0.692146269,11.2577673 0.393836717,10.005961 0.18669713,8.44815751 C-0.0241891678,6.86072977 -0.0612994469,5.55364884 0.100344365,5.48807803 L0.0998091208,5.48518786 C0.0998091208,5.48518786 0.103377417,5.48446532 0.108194617,5.48302023 C0.108194617,5.48302023 0.108194617,5.4828396 0.108194617,5.4828396 L0.108194617,5.48302023 C0.21417301,5.45249277 1.43238929,5.05635838 3.50324992,2.41112717 C4.83261862,0.713330925 6.64941657,0.196531792 7.85782003,0.0500361272 C8.09921526,0.0207731214 8.31581083,0.0061416185 8.49993491,0 C8.68405899,0.0061416185 8.90065456,0.0207731214 9.14204979,0.0500361272 C10.3504533,0.196531792 12.1674296,0.713330925 13.4966199,2.41112717 C15.5676589,5.05635838 16.7858752,5.45249277 16.8916752,5.48302023 L16.8916752,5.4828396 C16.8918536,5.4828396 16.8918536,5.48302023 16.8918536,5.48302023 C16.8966708,5.48446532 16.9000607,5.48518786 16.9000607,5.48518786 L16.8995255,5.48807803 Z M5.52103214,9.38842124 C4.79845218,9.38842124 4.21039699,8.79322616 4.21039699,8.06147038 C4.21039699,7.3297146 4.79845218,6.73451951 5.52103214,6.73451951 C6.24379051,6.73451951 6.83166729,7.3297146 6.83166729,8.06147038 C6.83166729,8.79322616 6.24379051,9.38842124 5.52103214,9.38842124 Z M5.52103214,6.43954118 C4.63627313,6.43954118 3.91904562,7.16569725 3.91904562,8.06147038 C3.91904562,8.9572435 4.63627313,9.68321893 5.52103214,9.68321893 C6.40579115,9.68321893 7.12301866,8.9572435 7.12301866,8.06147038 C7.12301866,7.16569725 6.40579115,6.43954118 5.52103214,6.43954118 Z M11.4554297,9.38842124 C10.7328497,9.38842124 10.1447945,8.79322616 10.1447945,8.06147038 C10.1447945,7.3297146 10.7328497,6.73451951 11.4554297,6.73451951 C12.178188,6.73451951 12.7660648,7.3297146 12.7660648,8.06147038 C12.7660648,8.79322616 12.178188,9.38842124 11.4554297,9.38842124 Z M11.4554297,6.43954118 C10.5706706,6.43954118 9.85344314,7.16569725 9.85344314,8.06147038 C9.85344314,8.9572435 10.5706706,9.68321893 11.4554297,9.68321893 C12.3401887,9.68321893 13.0574162,8.9572435 13.0574162,8.06147038 C13.0574162,7.16569725 12.3401887,6.43954118 11.4554297,6.43954118 Z M8.4882309,5.18632587 C8.77976069,5.18632587 9.0161603,4.94698338 9.0161603,4.65182442 C9.0161603,4.35666546 8.77976069,4.11732298 8.4882309,4.11732298 C8.19670111,4.11732298 7.96030149,4.35666546 7.96030149,4.65182442 C7.96030149,4.94698338 8.19670111,5.18632587 8.4882309,5.18632587 Z M9.87667274,11.5047327 C9.53286742,11.916763 9.03098657,12.1530347 8.50038095,12.1530347 C7.96959691,12.1530347 7.46807289,11.916763 7.12426757,11.5047327 C7.07252727,11.4427746 6.98064365,11.4353685 6.91891213,11.4873916 C6.85771585,11.5401373 6.84968718,11.6331647 6.90178431,11.6953035 C7.30107664,12.1734465 7.88360097,12.4478324 8.50038095,12.4478324 C9.11698251,12.4478324 9.69968526,12.1734465 10.099156,11.6953035 C10.1510747,11.6331647 10.1432245,11.5401373 10.0820282,11.4873916 C10.0206535,11.4353685 9.92876987,11.4427746 9.87667274,11.5047327 Z" id="Fun-Selfies-icon"></path>
                            </g>
                        </g>
                    </g>
                </g>
            </g>
        </g>
    </g>
</svg>