<?xml version="1.0" encoding="UTF-8" standalone="no"?>
<svg width="20px" height="23px" viewBox="0 0 20 23" version="1.1" xmlns="http://www.w3.org/2000/svg" xmlns:xlink="http://www.w3.org/1999/xlink">
    <!-- Generator: sketchtool 45.2 (43514) - http://www.bohemiancoding.com/sketch -->
    <title>16701502-7717-4384-AAE7-113644A8F9F8</title>
    <desc>Created with sketchtool.</desc>
    <defs></defs>
    <g id="Page-1" stroke="none" stroke-width="1" fill="none" fill-rule="evenodd">
        <g id="MS-Pepper-Landing-Page-Desktop-JP" transform="translate(-690.000000, -2480.000000)" fill="#7B7D86">
            <g id="Section" transform="translate(0.000000, 2386.000000)">
                <g id="Group-6" transform="translate(230.000000, 70.000000)">
                    <g id="Newsletter">
                        <path d="M460,24 L460,47 L461.501429,47 L464.14,44.125 L467.095714,47 L469.935714,44.125 L472.882857,47 L475.63,44.125 L478.43,47 L480,47 L480,24 L460,24 Z M461.428571,25.4375 L478.571429,25.4375 L478.571429,45.0924375 L476.651429,43.11875 L475.621429,42.0621875 L474.6,43.1288125 L472.847143,44.9645 L470.931429,43.092875 L469.918571,42.1053125 L468.922857,43.1115625 L467.075714,44.98175 L465.134286,43.0914375 L464.081429,42.0679375 L463.092857,43.150375 L461.428571,44.9601875 L461.428571,25.4375 Z M464.285714,29.747125 L471.12,29.747125 L471.12,28.3110625 L464.285714,28.3110625 L464.285714,29.747125 Z M464.285714,35.497125 L475.714286,35.497125 L475.714286,34.059625 L464.285714,34.059625 L464.285714,35.497125 Z M464.285714,38.3735625 L475.714286,38.3735625 L475.714286,36.9360625 L464.285714,36.9360625 L464.285714,38.3735625 Z" id="Newsletter-icon"></path>
                    </g>
                </g>
            </g>
        </g>
    </g>
</svg>