<?xml version="1.0" encoding="UTF-8" standalone="no"?>
<svg width="18px" height="18px" viewBox="0 0 18 18" version="1.1" xmlns="http://www.w3.org/2000/svg" xmlns:xlink="http://www.w3.org/1999/xlink">
    <!-- Generator: Sketch 45.2 (43514) - http://www.bohemiancoding.com/sketch -->
    <title>Check-icon-2</title>
    <desc>Created with Sketch.</desc>
    <defs></defs>
    <g id="Page-1" stroke="none" stroke-width="1" fill="none" fill-rule="evenodd">
        <g id="MS-Pepper-Landing-Page-Desktop-EN" transform="translate(-373.000000, -806.000000)" fill="#232E48">
            <g id="Bar-key-findings" transform="translate(0.000000, 776.000000)">
                <g id="Bar" transform="translate(373.000000, 28.000000)">
                    <g id="Group">
                        <path d="M7.49770463,14.8370066 C7.26410793,15.0543311 6.88560632,15.0543311 6.65076044,14.8370066 C6.64201618,14.8288715 6.64576372,14.8149255 6.63826864,14.8079525 C6.63327192,14.8021417 6.62452765,14.804466 6.61953093,14.7998174 L4.19112457,12.5394098 C3.93629181,12.3034906 3.93629181,11.9223011 4.19112457,11.6852198 C4.44595734,11.4493006 4.85693763,11.4493006 5.11052122,11.6852198 L7.15168171,13.5841946 L12.9791075,8.16386502 C13.211455,7.94537833 13.5912058,7.94537833 13.8248025,8.16386502 C14.0583992,8.38118956 14.0583992,8.73332503 13.8248025,8.95181173 L7.49770463,14.8370066 Z M9,2 C4.02923077,2 0,6.02892085 0,10.9993077 C0,15.9683101 4.02923077,20 9,20 C13.9707692,20 18,15.9683101 18,10.9993077 C18,6.02892085 13.9707692,2 9,2 L9,2 Z" id="Check-icon-2"></path>
                    </g>
                </g>
            </g>
        </g>
    </g>
</svg>