<?xml version="1.0" encoding="UTF-8" standalone="no"?>
<svg width="115px" height="24px" viewBox="0 0 115 24" version="1.1" xmlns="http://www.w3.org/2000/svg" xmlns:xlink="http://www.w3.org/1999/xlink">
    <!-- Generator: Sketch 45.2 (43514) - http://www.bohemiancoding.com/sketch -->
    <title>Pepper-Logo</title>
    <desc>Created with Sketch.</desc>
    <defs></defs>
    <g id="Page-1" stroke="none" stroke-width="1" fill="none" fill-rule="evenodd">
        <g id="MS-Pepper-Landing-Page-Desktop-EN" transform="translate(-451.000000, -38.000000)">
            <g id="Header">
                <g id="Logo-+-Nav" transform="translate(230.000000, 37.000000)">
                    <g id="Pepper-Logo" transform="translate(221.000000, 1.000000)">
                        <path d="M114.993824,3.59475703 C115.009574,3.6730179 114.993824,3.7668798 114.962194,3.82953964 L114.235359,4.98785166 C114.1721,5.08171355 114.07734,5.12877238 113.98258,5.12877238 C113.9352,5.12877238 113.903571,5.12877238 113.856191,5.09744246 C113.603412,4.98785166 113.397884,4.94092072 113.239866,4.94092072 C112.844818,4.94092072 112.481401,5.09744246 112.102104,5.42608696 C111.722807,5.75473146 111.422648,6.30255754 111.21725,7.03823529 C111.059231,7.6173913 110.964471,8.83823529 110.964471,10.6538363 L110.964471,14.2694373 C110.964471,14.4415601 110.822202,14.5668798 110.664183,14.5668798 L109.241755,14.5668798 L109.241755,14.5670077 C109.067986,14.5670077 108.941468,14.426087 108.941468,14.2695652 L108.941468,8.11828645 C108.941468,5.56700767 110.316258,3.98606138 111.48552,3.40703325 C112.196734,3.06265985 112.860439,3 113.176477,3 L113.366126,3 C113.824432,3 114.408999,3.15652174 114.851555,3.40690537 C114.930564,3.45383632 114.977944,3.51649616 114.993824,3.59475703 Z M70.7484054,3 C72.3602239,3 73.7507643,3.57915601 74.9042764,4.73734015 C76.0420382,5.87992327 76.6267339,7.28861893 76.6267339,8.90076726 C76.6267339,10.5442455 76.0579176,11.9685422 74.9201558,13.1112532 C73.7823939,14.2695652 72.3918535,14.8485934 70.7959144,14.8485934 C69.8951809,14.8485934 69.0577066,14.6607417 68.2992417,14.2851662 C67.8568147,14.0659847 67.4301379,13.7842711 67.0350906,13.4398977 C67.003461,13.4085678 66.9718314,13.4085678 66.9403309,13.4085678 C66.9245807,13.4085678 66.8929511,13.4085678 66.8770717,13.4241688 C66.8296919,13.4554987 66.782312,13.5024297 66.782312,13.5650895 L66.782312,20.7024297 C66.782312,20.8745524 66.6400434,20.9998721 66.4820245,20.9998721 L65.0754757,20.9998721 L65.0754757,21 C64.9017065,21 64.7751881,20.8590793 64.7751881,20.7025575 L64.7751881,9.04168798 C64.7751881,7.3668798 65.3598838,5.92685422 66.4976457,4.7842711 C67.6670371,3.61048593 69.0892071,3 70.7484054,3 Z M74.1616909,10.9670077 C74.5251085,10.3253197 74.714757,9.65217391 74.714757,8.96355499 C74.714757,8.25920716 74.5251085,7.58618926 74.1774412,6.9601023 C73.8140235,6.33401535 73.3399669,5.8331202 72.7236416,5.4887468 C72.1231956,5.11304348 71.4594904,4.94092072 70.7484054,4.94092072 C69.626523,4.94092072 68.7099101,5.31662404 67.935695,6.09923274 C67.1613508,6.88184143 66.7979332,7.82097187 66.7979332,8.99488491 C66.7979332,9.74616368 66.9717023,10.4349105 67.3036195,11.0296675 C67.6354075,11.6244246 68.1253435,12.1097187 68.7574191,12.4539642 C69.3894946,12.8139386 70.06895,12.9861893 70.7642848,12.9861893 C71.4437402,12.9861893 72.1074453,12.8140665 72.7078913,12.4539642 C73.3083373,12.0939898 73.7982733,11.5930946 74.1616909,10.9670077 Z M41.9730882,3 C43.5849067,3 44.9754471,3.57915601 46.1290883,4.73734015 C47.2668501,5.87992327 47.8515458,7.28861893 47.8515458,8.90076726 C47.8515458,10.5442455 47.2827294,11.9685422 46.1449676,13.1112532 C45.0072058,14.2695652 43.6166654,14.8485934 42.0207262,14.8485934 C41.1199928,14.8485934 40.2825185,14.6607417 39.5240536,14.2851662 C39.0816265,14.0659847 38.6549497,13.7842711 38.2599025,13.4398977 C38.2282729,13.4085678 38.1966433,13.4085678 38.1651428,13.4085678 C38.1493926,13.4085678 38.117763,13.4085678 38.1018836,13.4241688 C38.0545038,13.4554987 38.0071239,13.5024297 38.0071239,13.5650895 L38.0071239,20.7024297 C38.0071239,20.8745524 37.8648553,20.9998721 37.7068364,20.9998721 L36.3002875,20.9998721 L36.3002875,21 C36.1265184,21 36,20.8590793 36,20.7025575 L36,9.04168798 C36,7.3668798 36.5846957,5.92685422 37.7224575,4.7842711 C38.8917199,3.61048593 40.3297692,3 41.9730882,3 Z M45.3863737,10.9670077 C45.7497913,10.3253197 45.9236895,9.65217391 45.9236895,8.96355499 C45.9236895,8.25920716 45.7499204,7.58618926 45.3863737,6.9601023 C45.0228269,6.33401535 44.5488994,5.8331202 43.9484534,5.4887468 C43.3478784,5.11304348 42.6841732,4.94092072 41.9730882,4.94092072 C40.8512057,4.94092072 39.9345929,5.31662404 39.1603778,6.09923274 C38.3861627,6.88184143 38.022616,7.82097187 38.022616,8.99488491 C38.022616,9.74616368 38.1963851,10.4349105 38.5283022,11.0296675 C38.8602194,11.6244246 39.3500263,12.1097187 39.9821018,12.4539642 C40.6141774,12.8139386 41.2936328,12.9861893 41.9889676,12.9861893 C42.668423,12.9861893 43.3321281,12.8140665 43.9325741,12.4539642 C44.53302,12.0938619 45.022956,11.5930946 45.3863737,10.9670077 Z M85.1912545,3 C86.803073,3 88.1936134,3.57915601 89.3471254,4.73734015 C90.4848873,5.87992327 91.069583,7.28861893 91.069583,8.90076726 C91.069583,10.5442455 90.5007666,11.9685422 89.3630048,13.1112532 C88.225243,14.2695652 86.8347026,14.8485934 85.2387634,14.8485934 C84.3380299,14.8485934 83.5005556,14.6607417 82.7420908,14.2851662 C82.2996637,14.0659847 81.8729869,13.7842711 81.4779397,13.4398977 C81.4463101,13.4085678 81.4146805,13.4085678 81.38318,13.4085678 C81.3674297,13.4085678 81.3358001,13.4085678 81.3199208,13.4241688 C81.2725409,13.4554987 81.2251611,13.5024297 81.2251611,13.5650895 L81.2251611,20.7024297 C81.2251611,20.8745524 81.0828924,20.9998721 80.9248736,20.9998721 L79.5184538,20.9998721 L79.5184538,21 C79.3446847,21 79.2181663,20.8590793 79.2181663,20.7025575 L79.2181663,9.04168798 C79.2181663,7.3668798 79.802862,5.92685422 80.9406238,4.7842711 C82.1098861,3.61048593 83.5479355,3 85.1912545,3 Z M88.6045399,10.9670077 C88.9679576,10.3253197 89.1576061,9.65217391 89.1576061,8.96355499 C89.1576061,8.25920716 88.9838369,7.58618926 88.6202902,6.9601023 C88.2567435,6.33401535 87.7828159,5.8331202 87.1664906,5.4887468 C86.5660446,5.11304348 85.9023395,4.94092072 85.1912545,4.94092072 C84.069372,4.94092072 83.1527592,5.31662404 82.3785441,6.09923274 C81.6041999,6.88184143 81.2407822,7.82097187 81.2407822,8.99488491 C81.2407822,9.74616368 81.4145514,10.4349105 81.7464685,11.0296675 C82.0783856,11.6244246 82.5681925,12.1097187 83.2002681,12.4539642 C83.8323437,12.8139386 84.5117991,12.9861893 85.2071338,12.9861893 C85.8865892,12.9861893 86.5502944,12.8140665 87.1507403,12.4539642 C87.7511863,12.0939898 88.2411223,11.5930946 88.6045399,10.9670077 Z M56.0367694,3 C57.9646256,3 59.5289352,3.73567775 60.6825764,5.19130435 C61.5043004,6.22429668 61.9309772,7.50780051 61.9467275,9.02608696 C61.9467275,9.10434783 61.9150979,9.1826087 61.8519678,9.24526854 C61.7887086,9.30792839 61.7096991,9.33913043 61.6306897,9.33913043 L52.4023349,9.33913043 C52.3549551,9.33913043 52.3233255,9.35473146 52.2916959,9.38606138 C52.2600663,9.4173913 52.244316,9.46432225 52.2600663,9.5112532 C52.3707053,10.4503836 52.7341229,11.2485934 53.3504482,11.8904092 C54.0772835,12.626087 54.9463874,12.9860614 56.0051398,12.9860614 C56.510826,12.9860614 57.0165123,12.8921995 57.5063192,12.7199488 C57.9961261,12.5478261 58.4070527,12.3130435 58.7388407,12.015601 C58.9442395,11.8434783 59.1496382,11.6086957 59.3709163,11.2956522 C59.4341755,11.2173913 59.5131849,11.1704604 59.6236949,11.1704604 C59.6710747,11.1704604 59.7184546,11.1860614 59.7659635,11.2017903 L60.9668554,11.8592072 C61.0458649,11.9061381 61.0932447,11.968798 61.1091241,12.0470588 C61.1248743,12.1253197 61.1091241,12.2191816 61.0617442,12.2818414 C60.777336,12.6887468 60.4770485,13.0488491 60.1452605,13.3461637 C59.623824,13.8313299 59.0074987,14.2070332 58.3437935,14.4574169 C57.6959677,14.7235294 56.9375029,14.8487212 56.1157788,14.8487212 C54.266932,14.8487212 52.7973821,14.2382353 51.7545091,13.0331202 C50.7116361,11.8436061 50.1900705,10.4661125 50.1900705,8.96355499 C50.1900705,7.53925831 50.6324975,6.2713555 51.5174808,5.1601023 C52.6393632,3.71994885 54.156422,3 56.0367694,3 Z M59.623824,7.47659847 C59.6554536,7.42966752 59.6554536,7.38273657 59.6395742,7.33567775 C59.4815553,6.91304348 59.2919068,6.55306905 59.0707579,6.2713555 C58.7547201,5.88005115 58.312293,5.53567775 57.7749771,5.30089514 C57.221911,5.05038363 56.6530947,4.92519182 56.0526487,4.92519182 C55.0729058,4.92519182 54.2196812,5.23823529 53.5243465,5.86432225 C53.1292993,6.20869565 52.7975112,6.70959079 52.5604829,7.33567775 C52.5447326,7.3826087 52.5447326,7.42953964 52.5762331,7.47659847 C52.6077336,7.52365729 52.6552426,7.53925831 52.7026224,7.53925831 L59.4974347,7.53925831 C59.5448145,7.53925831 59.5921944,7.50792839 59.623824,7.47659847 Z M99.3655747,3 C101.293431,3 102.85774,3.73567775 104.011382,5.19130435 C104.833106,6.20869565 105.259783,7.50780051 105.275533,9.02608696 C105.275533,9.10434783 105.243903,9.1826087 105.180773,9.24526854 C105.117514,9.30792839 105.038504,9.33913043 104.959495,9.33913043 L95.7311402,9.33913043 C95.6837604,9.33913043 95.6521308,9.35473146 95.6205012,9.38606138 C95.5888716,9.4173913 95.5731213,9.46432225 95.5888716,9.5112532 C95.6995106,10.4503836 96.0629282,11.2485934 96.6792536,11.8904092 C97.4060888,12.626087 98.2751927,12.9860614 99.3339451,12.9860614 C99.8396313,12.9860614 100.345318,12.8921995 100.835125,12.7199488 C101.324931,12.5476982 101.735858,12.3130435 102.067646,12.015601 C102.273045,11.8434783 102.478444,11.6086957 102.699722,11.2956522 C102.762981,11.2173913 102.84199,11.1704604 102.9525,11.1704604 C102.99988,11.1704604 103.04726,11.1860614 103.094769,11.2017903 L104.295661,11.8592072 C104.37467,11.9061381 104.42205,11.968798 104.437929,12.0470588 C104.45368,12.1253197 104.437929,12.2191816 104.39055,12.2818414 C104.106141,12.6887468 103.805854,13.0488491 103.474066,13.3461637 C102.952629,13.8313299 102.336304,14.2070332 101.672599,14.4574169 C101.024773,14.7235294 100.282058,14.8487212 99.4445841,14.8487212 C97.5957373,14.8487212 96.1261874,14.2382353 95.0833144,13.0331202 C94.0404414,11.8436061 93.5188758,10.4661125 93.5188758,8.96355499 C93.5188758,7.53925831 93.9613028,6.2713555 94.8462861,5.1601023 C95.9681686,3.71994885 97.4852273,3 99.3655747,3 Z M102.96838,7.47659847 C103.000009,7.42966752 103.000009,7.38273657 102.98413,7.33567775 C102.826111,6.91304348 102.636462,6.55306905 102.415313,6.2713555 C102.099276,5.88005115 101.656849,5.53567775 101.119533,5.30089514 C100.566596,5.05038363 99.9819,4.92519182 99.3972043,4.92519182 C98.4017111,4.92519182 97.579987,5.23823529 96.868902,5.86432225 C96.4738548,6.20869565 96.1420668,6.70959079 95.9050385,7.33567775 C95.8892882,7.3826087 95.8892882,7.42953964 95.9207887,7.47659847 C95.9522892,7.52365729 95.9997981,7.53925831 96.047178,7.53925831 L102.84199,7.53925831 C102.88937,7.53925831 102.93675,7.50792839 102.96838,7.47659847 Z" fill="#FFFFFF"></path>
                        <g id="Page-1">
                            <path d="M25.8464872,8.23178149 C26.093715,8.32997899 26.0371421,10.2908327 25.714187,12.6719009 C25.3974682,15.008736 24.9417674,16.8864315 24.6749396,16.9841867 L24.6731578,16.9939179 C24.6651396,16.9930333 24.656676,16.9934756 24.6482123,16.992591 C24.6473214,16.9921486 24.6464305,16.9934756 24.645985,16.9930333 C24.6450941,16.9930333 24.6446487,16.9921486 24.6442032,16.9921486 C22.9042546,16.7873493 19.8640217,20.8545837 17.630954,22.5681743 C16.9792528,23.0684507 16.233115,23.3984297 15.5021228,23.6200376 C15.0887402,23.7717572 14.5715665,23.8854362 13.9933655,23.9473626 C13.6779831,23.9809798 13.3452279,24 13,24 C12.6543266,24 12.3215715,23.9809798 12.0061891,23.9473626 C11.427988,23.8854362 10.9112598,23.7717572 10.4978772,23.6200376 C9.76688497,23.3984297 9.02074724,23.0684507 8.36904604,22.5681743 C6.13553285,20.8545837 3.09574544,16.7873493 1.35579679,16.9921486 C1.35490588,16.9921486 1.35446043,16.9930333 1.35401497,16.9930333 C1.35356952,16.9934756 1.35267861,16.9921486 1.3517877,16.992591 C1.34332404,16.9934756 1.33486039,16.9930333 1.32639674,16.9939179 L1.32550583,16.9841867 C1.05823261,16.8864315 0.602086319,15.008736 0.285813011,12.6719009 C-0.0371421275,10.2908327 -0.0937149587,8.32997899 0.153512768,8.23178149 L0.152621857,8.22780051 C0.152621857,8.22780051 0.157967322,8.22647352 0.165540063,8.22426186 C0.32724036,8.17870176 2.19058015,7.58420878 5.35776778,3.61649895 C7.39082606,1.06999889 10.1695766,0.294592502 12.0177709,0.0747539533 C12.3870534,0.0309631759 12.7184722,0.0088466217 13,0 C13.2815278,0.0088466217 13.6129466,0.0309631759 13.9822291,0.0747539533 C15.8304234,0.294592502 18.6091739,1.06999889 20.6417868,3.61649895 C23.8094199,7.58420878 25.6723142,8.17870176 25.8344599,8.22426186 C25.8420327,8.22647352 25.8469327,8.22780051 25.8469327,8.22780051 L25.8464872,8.23178149 Z M17.5200356,14.5248258 C18.873329,14.5248258 19.9700401,13.4358067 19.9700401,12.0920049 C19.9700401,10.748203 18.873329,9.6591839 17.5200356,9.6591839 C16.1667422,9.6591839 15.0700311,10.748203 15.0700311,12.0920049 C15.0700311,13.4358067 16.1667422,14.5248258 17.5200356,14.5248258 Z M17,10 C17.5513333,10 18,10.4486667 18,11 C18,11.5515556 17.5513333,12 17,12 C16.4486667,12 16,11.5515556 16,11 C16,10.4486667 16.4486667,10 17,10 Z M8.44388254,14.5248258 C9.79717594,14.5248258 10.893887,13.4358067 10.893887,12.0920049 C10.893887,10.748203 9.79717594,9.6591839 8.44388254,9.6591839 C7.09058915,9.6591839 5.99387804,10.748203 5.99387804,12.0920049 C5.99387804,13.4358067 7.09058915,14.5248258 8.44388254,14.5248258 Z M8,10 C8.55133333,10 9,10.4486667 9,11 C9,11.5515556 8.55133333,12 8,12 C7.44866667,12 7,11.5515556 7,11 C7,10.4486667 7.44866667,10 8,10 Z M12.9817363,6.17582661 C12.536281,6.17582661 12.1745712,6.53499945 12.1745712,6.97777286 C12.1745712,7.42010395 12.536281,7.77927679 12.9817363,7.77927679 C13.4280826,7.77927679 13.7893469,7.42010395 13.7893469,6.97777286 C13.7893469,6.53499945 13.4280826,6.17582661 12.9817363,6.17582661 Z" id="Combined-Shape" fill="#FFFFFF"></path>
                            <g id="Group-7" transform="translate(10.000000, 16.258100)" stroke="#232E48" stroke-width="0.4" fill="#232E48">
                                <path d="M5.44554995,1.28475082 C4.83483064,2.00176951 3.94347446,2.41357975 3.00044546,2.41357975 C2.05741645,2.41357975 1.16650572,2.00176951 0.55578642,1.28475082 C0.47604991,1.19141896 0.488077204,1.05208467 0.581622831,0.972907409 C0.676504823,0.894614807 0.816823263,0.906115415 0.895668862,0.999004943 C1.42175165,1.61694147 2.18882578,1.97124867 3.00044546,1.97124867 C3.81206513,1.97124867 4.57958472,1.61694147 5.1056675,0.999004943 C5.18495856,0.906115415 5.32572245,0.894614807 5.41971354,0.972907409 C5.51325916,1.05208467 5.52528646,1.19141896 5.44554995,1.28475082" id="Fill-5"></path>
                            </g>
                        </g>
                    </g>
                </g>
            </g>
        </g>
    </g>
</svg>