<?xml version="1.0" encoding="UTF-8" standalone="no"?>
<svg width="16px" height="16px" viewBox="0 0 16 16" version="1.1" xmlns="http://www.w3.org/2000/svg" xmlns:xlink="http://www.w3.org/1999/xlink">
    <!-- Generator: sketchtool 45.2 (43514) - http://www.bohemiancoding.com/sketch -->
    <title>1EA53830-7B94-442D-920B-FB49E3B81F91</title>
    <desc>Created with sketchtool.</desc>
    <defs></defs>
    <g id="Page-1" stroke="none" stroke-width="1" fill="none" fill-rule="evenodd">
        <g id="MS-Pepper-Landing-Page-Desktop-JP" transform="translate(-703.000000, -3518.000000)" fill="#FFD25D">
            <g id="Section" transform="translate(0.000000, 3442.000000)">
                <g id="H2" transform="translate(578.000000, 62.000000)">
                    <path d="M134.26008,20.5294118 L134.26008,13.4705882 C134.26008,12.6584048 133.601675,12 132.789492,12 C131.977308,12 131.318903,12.6584048 131.318903,13.4705882 L131.318903,13.4705882 L131.318903,20.5294118 L124.26008,20.5294118 L124.26008,20.5294118 C123.447896,20.5294118 122.789492,21.1878165 122.789492,22 C122.789492,22.8121835 123.447896,23.4705882 124.26008,23.4705882 L131.318903,23.4705882 L131.318903,30.5294118 C131.318903,31.3415952 131.977308,32 132.789492,32 L132.789492,32 C133.601675,32 134.26008,31.3415952 134.26008,30.5294118 L134.26008,30.5294118 L134.26008,23.4705882 L141.318903,23.4705882 C142.131087,23.4705882 142.789492,22.8121835 142.789492,22 L142.789492,22 C142.789492,21.1878165 142.131087,20.5294118 141.318903,20.5294118 L141.318903,20.5294118 L134.26008,20.5294118 Z" id="Plus-icon" transform="translate(133.000000, 22.000000) rotate(45.000000) translate(-133.000000, -22.000000) "></path>
                </g>
            </g>
        </g>
    </g>
</svg>