<?xml version="1.0" encoding="UTF-8" standalone="no"?>
<svg width="15px" height="15px" viewBox="0 0 15 15" version="1.1" xmlns="http://www.w3.org/2000/svg" xmlns:xlink="http://www.w3.org/1999/xlink">
    <!-- Generator: sketchtool 45.2 (43514) - http://www.bohemiancoding.com/sketch -->
    <title>2F8E29A1-9756-4156-A363-AEC009C5E953</title>
    <desc>Created with sketchtool.</desc>
    <defs></defs>
    <g id="Symbols" stroke="none" stroke-width="1" fill="none" fill-rule="evenodd">
        <g id="Footer" transform="translate(-230.000000, -72.000000)" fill="#232E48">
            <g id="pre-footer">
                <g>
                    <g id="Group-26" transform="translate(229.000000, 65.000000)">
                        <path d="M7,10 L8,10 L8,9 L7,9 L7,10 Z M5,10 L6,10 L6,9 L5,9 L5,10 Z M3,10 L4,10 L4,9 L3,9 L3,10 Z M15,12 L2,12 L2,20.4990557 C2,20.775025 2.224,21 2.5,21 L14.5,21 C14.776,21 15,20.775025 15,20.4990557 L15,12 Z M15,8.49983339 C15,8.22492502 14.776,8 14.5,8 L2.5,8 C2.224,8 2,8.22492502 2,8.49983339 L2,11 L15,11 L15,8.49983339 Z M15.5,22 L1.5,22 C1.224,22 1,21.776 1,21.5 L1,7.5 C1,7.225 1.224,7 1.5,7 L15.5,7 C15.776,7 16,7.225 16,7.5 L16,21.5 C16,21.776 15.776,22 15.5,22 L15.5,22 Z" id="Website-icon"></path>
                    </g>
                </g>
            </g>
        </g>
    </g>
</svg>