<?xml version="1.0" encoding="UTF-8" standalone="no"?>
<svg width="24px" height="23px" viewBox="0 0 24 23" version="1.1" xmlns="http://www.w3.org/2000/svg" xmlns:xlink="http://www.w3.org/1999/xlink">
    <!-- Generator: Sketch 45.2 (43514) - http://www.bohemiancoding.com/sketch -->
    <title>X-icon</title>
    <desc>Created with Sketch.</desc>
    <defs></defs>
    <g id="Page-1" stroke="none" stroke-width="1" fill="none" fill-rule="evenodd">
        <g id="MS-Pepper-Landing-Page-Desktop-EN" transform="translate(-234.000000, -220.000000)" fill="#FFD25D">
            <g id="Hero-Section-v2" transform="translate(0.000000, 100.000000)">
                <g id="img">
                    <path d="M245,130 L232.25,130 L232.25,130 C231.559644,130 231,130.559644 231,131.25 C231,131.940356 231.559644,132.5 232.25,132.5 L245,132.5 L245,144.75 C245,145.440356 245.559644,146 246.25,146 L246.25,146 C246.940356,146 247.5,145.440356 247.5,144.75 L247.5,144.75 L247.5,132.5 L259.75,132.5 C260.440356,132.5 261,131.940356 261,131.25 L261,131.25 C261,130.559644 260.440356,130 259.75,130 L259.75,130 L247.5,130 L247.5,117.25 C247.5,116.559644 246.940356,116 246.25,116 C245.559644,116 245,116.559644 245,117.25 L245,117.25 L245,130 Z" id="X-icon" transform="translate(246.000000, 131.000000) rotate(-315.000000) translate(-246.000000, -131.000000) "></path>
                </g>
            </g>
        </g>
    </g>
</svg>